<svg width="619" height="528" viewBox="0 0 619 528" fill="none" xmlns="http://www.w3.org/2000/svg">
<rect x="618.359" y="323.127" width="618.359" height="118.466" rx="59.233" transform="rotate(-180 618.359 323.127)" fill="url(#paint0_linear_600_723)"/>
<path fill-rule="evenodd" clip-rule="evenodd" d="M475.522 263.896L312.743 101.117C289.611 77.985 289.611 40.4808 312.743 17.3489C335.875 -5.78311 373.38 -5.7831 396.511 17.3489L601.012 221.849C612.668 233.506 618.451 248.813 618.359 264.091C618.352 279.239 612.569 294.386 601.01 305.944L396.51 510.444C373.378 533.576 335.874 533.576 312.742 510.444C289.61 487.312 289.61 449.808 312.742 426.676L475.522 263.896Z" fill="url(#paint1_linear_600_723)"/>
<defs>
<linearGradient id="paint0_linear_600_723" x1="618.359" y1="393.951" x2="1236.72" y2="393.951" gradientUnits="userSpaceOnUse">
<stop stop-color="white"/>
<stop offset="1" stop-color="white" stop-opacity="0"/>
</linearGradient>
<linearGradient id="paint1_linear_600_723" x1="456.877" y1="527.793" x2="126" y2="354.73" gradientUnits="userSpaceOnUse">
<stop stop-color="white"/>
<stop offset="1" stop-color="white" stop-opacity="0"/>
</linearGradient>
</defs>
</svg>
