<svg width="26" height="26" viewBox="0 0 26 26" fill="none" xmlns="http://www.w3.org/2000/svg">
<path d="M20.8859 0.127188C21.7659 0.127188 22.5759 0.342188 23.3159 0.772188C24.0559 1.20219 24.6409 1.78719 25.0709 2.52719C25.5009 3.26719 25.7159 4.07719 25.7159 4.95719V21.0372C25.7159 21.9172 25.5009 22.7272 25.0709 23.4672C24.6409 24.2072 24.0559 24.7922 23.3159 25.2222C22.5759 25.6522 21.7659 25.8672 20.8859 25.8672H17.7659V15.9072H21.0959L21.5759 12.0072H17.7659V9.51719C17.7659 8.89719 17.8859 8.44719 18.1259 8.16719C18.4059 7.82719 18.9259 7.65719 19.6859 7.65719L21.7259 7.62719V4.17719C21.5059 4.13719 21.1359 4.10719 20.6159 4.08719C19.9959 4.04719 19.3659 4.02719 18.7259 4.02719C17.2259 4.02719 16.0259 4.46719 15.1259 5.34719C14.2059 6.26719 13.7459 7.53719 13.7459 9.15719V12.0072H10.3859V15.9072H13.7459V25.8672H4.83586C3.95586 25.8672 3.14586 25.6522 2.40586 25.2222C1.66586 24.7922 1.08086 24.2072 0.650859 23.4672C0.220859 22.7272 0.00585938 21.9172 0.00585938 21.0372V4.95719C0.00585938 4.07719 0.220859 3.26719 0.650859 2.52719C1.08086 1.78719 1.66586 1.20219 2.40586 0.772188C3.14586 0.342188 3.95586 0.127188 4.83586 0.127188H20.8859Z" fill="#2D2D2D"/>
</svg>
