<svg width="445" height="528" viewBox="0 0 445 528" fill="none" xmlns="http://www.w3.org/2000/svg">
<rect x="444.438" y="323.131" width="618.359" height="118.466" rx="59.233" transform="rotate(-180 444.438 323.131)" fill="url(#paint0_linear_326_4151)"/>
<path fill-rule="evenodd" clip-rule="evenodd" d="M301.602 263.896L138.821 101.115C115.689 77.9831 115.689 40.4788 138.821 17.3469C161.953 -5.78506 199.458 -5.78506 222.589 17.3469L427.09 221.847C438.724 233.481 444.507 248.752 444.438 264C444.454 279.18 438.671 294.364 427.089 305.946L222.589 510.446C199.457 533.578 161.953 533.578 138.821 510.446C115.689 487.314 115.689 449.81 138.821 426.678L301.602 263.896Z" fill="url(#paint1_linear_326_4151)"/>
<defs>
<linearGradient id="paint0_linear_326_4151" x1="444.438" y1="393.955" x2="1062.8" y2="393.955" gradientUnits="userSpaceOnUse">
<stop stop-color="white"/>
<stop offset="1" stop-color="white" stop-opacity="0"/>
</linearGradient>
<linearGradient id="paint1_linear_326_4151" x1="282.955" y1="527.795" x2="-47.9223" y2="354.733" gradientUnits="userSpaceOnUse">
<stop stop-color="white"/>
<stop offset="1" stop-color="white" stop-opacity="0"/>
</linearGradient>
</defs>
</svg>
