<svg width="27" height="26" viewBox="0 0 27 26" fill="none" xmlns="http://www.w3.org/2000/svg">
<path d="M18.0167 12.9972C18.0167 12.2172 17.8267 11.4972 17.4467 10.8372C17.0667 10.1772 16.5467 9.65719 15.8867 9.27719C15.2267 8.89719 14.5167 8.70719 13.7567 8.70719C12.9967 8.70719 12.2867 8.90219 11.6267 9.29219C10.9667 9.68219 10.4417 10.2022 10.0517 10.8522C9.66172 11.5022 9.46672 12.2172 9.46672 12.9972C9.46672 13.7772 9.65672 14.4972 10.0367 15.1572C10.4167 15.8172 10.9367 16.3372 11.5967 16.7172C12.2567 17.0972 12.9767 17.2872 13.7567 17.2872C14.5367 17.2872 15.2517 17.0972 15.9017 16.7172C16.5517 16.3372 17.0667 15.8172 17.4467 15.1572C17.8267 14.4972 18.0167 13.7772 18.0167 12.9972ZM20.3267 12.9972C20.3267 14.1972 20.0317 15.3022 19.4417 16.3122C18.8517 17.3222 18.0567 18.1222 17.0567 18.7122C16.0567 19.3022 14.9567 19.5972 13.7567 19.5972C12.5567 19.5972 11.4517 19.3022 10.4417 18.7122C9.43172 18.1222 8.63172 17.3222 8.04172 16.3122C7.45172 15.3022 7.15672 14.1972 7.15672 12.9972C7.15672 11.7972 7.45172 10.6922 8.04172 9.68219C8.63172 8.67219 9.43172 7.87219 10.4417 7.28219C11.4517 6.69219 12.5567 6.39719 13.7567 6.39719C14.9567 6.39719 16.0567 6.69219 17.0567 7.28219C18.0567 7.87219 18.8517 8.67219 19.4417 9.68219C20.0317 10.6922 20.3267 11.7972 20.3267 12.9972ZM22.1567 6.12719C22.1567 6.56719 22.0067 6.93719 21.7067 7.23719C21.4067 7.53719 21.0367 7.68719 20.5967 7.68719C20.1567 7.68719 19.7917 7.53719 19.5017 7.23719C19.2117 6.93719 19.0667 6.56719 19.0667 6.12719C19.0667 5.68719 19.2167 5.32219 19.5167 5.03219C19.8167 4.74219 20.1767 4.59719 20.5967 4.59719C21.0167 4.59719 21.3817 4.74719 21.6917 5.04719C22.0017 5.34719 22.1567 5.70719 22.1567 6.12719ZM13.7567 2.43719C13.5767 2.43719 13.2767 2.43719 12.8567 2.43719C11.2967 2.41719 10.1067 2.42719 9.28672 2.46719C7.84672 2.54719 6.80672 2.71719 6.16672 2.97719C5.60672 3.19719 5.11672 3.51719 4.69672 3.93719C4.27672 4.35719 3.94672 4.84719 3.70672 5.40719C3.46672 6.04719 3.30672 7.08719 3.22672 8.52719C3.18672 9.34719 3.17672 10.5372 3.19672 12.0972V13.8972C3.17672 15.4572 3.18672 16.6472 3.22672 17.4672C3.30672 18.9072 3.46672 19.9472 3.70672 20.5872C3.94672 21.1472 4.27672 21.6372 4.69672 22.0572C5.11672 22.4772 5.60672 22.7972 6.16672 23.0172C6.80672 23.2772 7.84672 23.4472 9.28672 23.5272C10.1067 23.5672 11.2967 23.5772 12.8567 23.5572H14.6567C16.1967 23.5772 17.3767 23.5672 18.1967 23.5272C19.6367 23.4472 20.6767 23.2772 21.3167 23.0172C21.8767 22.7972 22.3667 22.4772 22.7867 22.0572C23.2067 21.6372 23.5367 21.1472 23.7767 20.5872C24.0167 19.9472 24.1767 18.9072 24.2567 17.4672C24.2967 16.6472 24.3067 15.4572 24.2867 13.8972V12.0972C24.3067 10.5372 24.2967 9.34719 24.2567 8.52719C24.1767 7.08719 24.0167 6.04719 23.7767 5.40719C23.5167 4.80719 23.1867 4.31719 22.7867 3.93719C22.3267 3.49719 21.8367 3.17719 21.3167 2.97719C20.6767 2.71719 19.6367 2.54719 18.1967 2.46719C17.3767 2.42719 16.1867 2.41719 14.6267 2.43719H13.7567ZM26.5967 12.9972C26.5967 13.1972 26.5967 13.4872 26.5967 13.8672C26.5967 15.8472 26.5667 17.3272 26.5067 18.3072C26.4667 19.4272 26.2967 20.3972 25.9967 21.2172C25.6567 22.1572 25.1367 22.9872 24.4367 23.7072C23.7367 24.4272 22.9067 24.9472 21.9467 25.2672C21.1667 25.5472 20.1917 25.7172 19.0217 25.7772C17.8517 25.8372 16.0917 25.8672 13.7417 25.8672C11.3917 25.8672 9.63672 25.8372 8.47672 25.7772C7.31672 25.7172 6.33672 25.5472 5.53672 25.2672C4.57672 24.9272 3.74672 24.4072 3.04672 23.7072C2.34672 23.0072 1.82672 22.1772 1.48672 21.2172C1.18672 20.3972 1.01672 19.4272 0.976719 18.3072C0.916719 17.3272 0.886719 15.8472 0.886719 13.8672V12.0972C0.886719 10.1372 0.916719 8.66719 0.976719 7.68719C1.01672 6.56719 1.18672 5.59719 1.48672 4.77719C1.82672 3.83719 2.34672 3.00719 3.04672 2.28719C3.74672 1.56719 4.57672 1.04719 5.53672 0.727188C6.31672 0.447187 7.29172 0.277187 8.46172 0.217188C9.63172 0.157188 11.3917 0.127188 13.7417 0.127188C16.0917 0.127188 17.8467 0.157188 19.0067 0.217188C20.1667 0.277187 21.1467 0.447187 21.9467 0.727188C22.9067 1.06719 23.7367 1.58719 24.4367 2.28719C25.1367 2.98719 25.6567 3.81719 25.9967 4.77719C26.2967 5.59719 26.4667 6.56719 26.5067 7.68719C26.5667 8.66719 26.5967 10.1372 26.5967 12.0972V12.9972Z" fill="#2D2D2D"/>
</svg>
