<svg width="27" height="26" viewBox="0 0 27 26" fill="none" xmlns="http://www.w3.org/2000/svg">
<path d="M4.40531 21.6672H8.27531V10.0572H4.40531V21.6672ZM8.54531 6.45719C8.52531 5.87719 8.32031 5.39719 7.93031 5.01719C7.54031 4.63719 7.02031 4.44719 6.37031 4.44719C5.72031 4.44719 5.19031 4.63719 4.78031 5.01719C4.37031 5.39719 4.16531 5.87219 4.16531 6.44219C4.16531 7.01219 4.36531 7.49219 4.76531 7.88219C5.16531 8.27219 5.68531 8.46719 6.32531 8.46719C7.00531 8.46719 7.54531 8.27719 7.94531 7.89719C8.34531 7.51719 8.54531 7.03719 8.54531 6.45719ZM18.3253 21.6672H22.1953V15.0072C22.1953 13.2872 21.7653 11.9672 20.9053 11.0472C20.1253 10.2072 19.0653 9.78719 17.7253 9.78719C16.8053 9.78719 16.0353 10.0072 15.4153 10.4472C14.9953 10.7472 14.6053 11.1772 14.2453 11.7372H14.2753V10.0572H10.4053L10.4353 11.9172C10.4353 14.0372 10.4253 17.2872 10.4053 21.6672H14.2753V15.1872C14.2753 14.7272 14.3153 14.4072 14.3953 14.2272C14.5553 13.8272 14.7853 13.5072 15.0853 13.2672C15.4653 12.9672 15.8953 12.8172 16.3753 12.8172C17.0553 12.8172 17.5553 13.0572 17.8753 13.5372C18.1753 13.9972 18.3253 14.6372 18.3253 15.4572V21.6672ZM26.1553 4.95719V21.0372C26.1553 21.9172 25.9403 22.7272 25.5103 23.4672C25.0803 24.2072 24.4953 24.7922 23.7553 25.2222C23.0153 25.6522 22.2053 25.8672 21.3253 25.8672H5.27531C4.39531 25.8672 3.58531 25.6522 2.84531 25.2222C2.10531 24.7922 1.52031 24.2072 1.09031 23.4672C0.660313 22.7272 0.445312 21.9172 0.445312 21.0372V4.95719C0.445312 4.07719 0.660313 3.26719 1.09031 2.52719C1.52031 1.78719 2.10531 1.20219 2.84531 0.772188C3.58531 0.342188 4.39531 0.127188 5.27531 0.127188H21.3253C22.2053 0.127188 23.0153 0.342188 23.7553 0.772188C24.4953 1.20219 25.0803 1.78719 25.5103 2.52719C25.9403 3.26719 26.1553 4.07719 26.1553 4.95719Z" fill="#2D2D2D"/>
</svg>
