<svg width="350" height="49" viewBox="0 0 350 49" fill="none" xmlns="http://www.w3.org/2000/svg">
<mask id="mask0_326_4267" style="mask-type:luminance" maskUnits="userSpaceOnUse" x="0" y="0" width="38" height="49">
<path fill-rule="evenodd" clip-rule="evenodd" d="M0 0H38V49H0V0Z" fill="white"/>
</mask>
<g mask="url(#mask0_326_4267)">
<path fill-rule="evenodd" clip-rule="evenodd" d="M29.2119 34.6857C29.0458 34.6031 28.9471 34.554 28.8346 34.498C28.7492 34.7017 28.6803 34.8658 28.6113 35.03C28.6299 35.0448 28.6484 35.0595 28.667 35.0743C28.8302 34.9581 28.9934 34.8415 29.2119 34.6857ZM9.78475 32.1934C9.60215 32.3559 9.42359 32.4885 9.28211 32.6534C9.21922 32.7269 9.17529 32.9042 9.21842 32.9681C9.44777 33.3083 9.70735 33.6274 9.95646 33.9541C9.97379 33.9349 9.99152 33.9162 10.0097 33.8974C9.93671 33.3443 9.86335 32.7916 9.78475 32.1934ZM29.1304 33.0117C29.0763 33.3863 29.0191 33.7026 28.9889 34.0221C28.9703 34.221 29.3887 34.467 29.5488 34.3487C29.7471 34.2026 29.9216 34.0237 30.1256 33.842C29.7813 33.5544 29.4847 33.3072 29.1304 33.0117ZM6.15039 35.2422C6.40756 36.1264 6.62401 36.9526 7.12745 37.7741C7.19316 37.6587 7.23306 37.6044 7.25805 37.5436C7.50635 36.9406 7.43299 36.3404 7.23105 35.745C7.21291 35.6919 7.14438 35.6431 7.08795 35.6192C6.79612 35.4962 6.50107 35.3824 6.15039 35.2422ZM6.38746 7.48576C7.08761 7.48576 7.08761 7.48576 7.08761 6.82084C7.08801 6.09961 7.08761 6.09961 6.37738 6.09961C5.69336 6.09961 5.69336 6.09961 5.69336 6.7809C5.69336 7.48576 5.69336 7.48576 6.38746 7.48576ZM32.603 35.2812C32.1862 35.5636 31.7783 35.8383 31.3728 36.1171C31.3305 36.1466 31.2809 36.199 31.2761 36.2453C31.2253 36.7509 31.1753 37.2568 31.1447 37.7636C31.1403 37.8439 31.233 37.9293 31.2805 38.0124C31.3648 37.9533 31.4748 37.9126 31.5296 37.8323C32.0617 37.0544 32.4079 36.1946 32.603 35.2812ZM7.06578 12.48C7.06578 12.0128 7.06578 11.5743 7.06578 11.125C6.60224 11.125 6.16087 11.125 5.7207 11.125C5.7207 11.591 5.7207 12.0295 5.7207 12.48C6.17376 12.48 6.59901 12.48 7.06578 12.48ZM18.3685 19.9656C18.1271 19.5698 17.8075 19.4205 17.2202 19.432C16.8574 19.4388 16.495 19.48 16.1323 19.482C15.5224 19.4852 15.3358 19.337 15.158 18.7344C14.915 18.9125 14.7666 19.1345 14.7969 19.436C14.8255 19.7236 15.1258 20.0367 15.4482 20.069C15.761 20.1002 16.0855 20.0858 16.3975 20.0411C17.0473 19.9472 17.689 19.7559 18.3685 19.9656ZM3.96363 7.88614C4.67386 7.88814 5.16642 7.38536 5.16642 6.65774C5.16682 5.92892 4.67789 5.42654 3.96927 5.42774C3.25824 5.42893 2.77173 5.92493 2.76568 6.65454C2.75963 7.37657 3.25421 7.88455 3.96363 7.88614ZM3.95555 12.907C4.66981 12.9102 5.16116 12.4202 5.16842 11.6974C5.17567 10.9594 4.67666 10.4383 3.96361 10.4395C3.23888 10.4403 2.72818 10.9486 2.72656 11.6711C2.72536 12.3979 3.228 12.9039 3.95555 12.907ZM31.3144 5.91406C31.3144 6.57139 31.3277 7.17362 31.3091 7.77464C31.2995 8.07895 31.4172 8.17719 31.6792 8.07575C32.3031 7.83414 32.9319 7.59972 33.5374 7.31459C34.044 7.07578 34.5322 6.83736 35.1122 7.07857C34.9723 6.23075 34.2085 5.75792 33.3951 6.00791C32.9319 6.15008 32.4716 6.21398 31.9984 6.11294C31.7864 6.06741 31.5808 5.99273 31.3144 5.91406ZM31.3176 12.6724C31.3736 12.6804 31.416 12.6936 31.4571 12.6904C31.5445 12.684 31.6324 12.672 31.7191 12.6568C32.4446 12.5306 33.1226 12.2723 33.7417 11.8709C34.1162 11.6285 34.4991 11.5958 34.9098 11.7347C34.9739 11.7563 35.0429 11.7647 35.1211 11.7819C34.9626 10.9596 34.4773 10.5507 33.7675 10.6393C32.9493 10.7412 32.1338 10.8662 31.293 10.5918C31.293 11.2423 31.2926 11.8565 31.2942 12.4707C31.2942 12.5354 31.3087 12.6001 31.3176 12.6724ZM17.7505 34.8653C17.7202 34.3773 17.6465 33.8977 17.6739 33.4245C17.7017 32.9492 17.7831 32.4648 17.9262 32.0124C18.1886 31.1829 18.5131 30.3742 18.8138 29.5572C18.8738 29.3938 18.9428 29.2341 19.0439 28.9833C19.6244 30.1131 19.8094 31.2604 19.9803 32.5C20.3455 32.0068 20.6631 31.5775 20.9803 31.1482C21.0122 31.157 21.0436 31.1657 21.0755 31.1741C21.2198 31.7564 21.3641 32.3382 21.5205 32.9684C22.1585 31.7847 21.882 30.665 21.4878 29.5452C21.5196 29.5312 21.5511 29.5172 21.5829 29.5028C21.7409 29.7301 21.8993 29.9569 22.0578 30.1841C22.084 30.1762 22.1106 30.1686 22.1372 30.161C22.1372 29.9865 22.1537 29.8099 22.1335 29.6378C22.0896 29.256 21.9735 28.9134 21.7071 28.6095C21.4491 28.3156 21.3266 27.9414 21.3971 27.5197C21.5648 27.792 21.7321 28.0648 21.8998 28.3375C21.9296 28.3264 21.959 28.3152 21.9888 28.304C22.0235 28.0652 22.0408 27.8216 22.0961 27.5876C22.3443 26.5341 22.0312 25.6831 21.252 24.9638C20.9457 24.6807 20.828 24.2813 20.8747 23.8269C21.0295 24.0365 21.1839 24.2458 21.385 24.5189C21.5378 23.7059 21.3024 23.0653 20.9541 22.4459C20.9852 22.4307 21.0166 22.4152 21.0476 22.4C21.2443 22.6204 21.441 22.8409 21.6619 23.0885C21.9195 22.4451 22.1174 21.8613 21.7591 21.2075C22.0271 21.3896 22.248 21.5398 22.4689 21.6895C22.5048 21.6564 22.541 21.6232 22.5769 21.5901C21.7635 21.1181 22.1622 20.1912 21.7345 19.559C22.0227 19.662 22.2847 19.8286 22.5229 19.4268C22.1114 19.4404 21.8933 19.2299 21.8542 18.9009C21.8131 18.555 21.6688 18.3198 21.3459 18.1697C21.6176 18.061 21.8727 17.99 22.0948 17.861C22.3415 17.7184 22.425 17.476 22.3443 17.1313C22.0682 17.4364 21.7792 17.5782 21.4076 17.4888C21.4983 17.3242 21.5765 17.1825 21.6547 17.0403C21.1714 17.1405 20.757 17.0906 20.3507 16.9117C20.0984 16.8007 19.8444 16.6921 19.5873 16.593C19.1508 16.4253 18.7199 16.4413 18.316 16.6897C18.1213 16.8099 17.9455 16.9612 17.7613 17.0986C17.792 17.1693 17.7513 17.1274 17.7029 17.1138C17.5759 17.0778 17.4457 17.0543 17.3167 17.0255C17.3115 17.1601 17.2797 17.3015 17.3087 17.4285C17.3433 17.5834 17.4292 17.7264 17.5134 17.9217C16.9161 17.9548 17.0652 17.339 16.7444 17.1617C16.3207 17.3678 16.0035 17.6805 15.9233 18.1705C15.8753 18.4636 16.018 18.7 16.2635 18.8741C16.6851 18.1912 17.1293 18.1952 17.5106 18.851C17.5574 18.9312 17.6888 18.9696 17.7883 19.0079C18.0415 19.1049 18.3897 19.1157 18.5352 19.297C18.8416 19.6796 19.2044 19.9176 19.6296 20.1281C19.9956 20.3094 20.0613 20.7031 19.8561 21.0258C19.7671 20.924 19.6844 20.821 19.5925 20.7271C19.2032 20.3274 18.7904 20.2675 18.299 20.5075C18.0298 20.6392 17.7448 20.7379 17.4502 20.8581C17.5864 21.1688 17.8686 21.1951 18.1963 21.1432C18.4474 21.1037 18.6973 21.1292 18.819 21.3996C18.9416 21.6732 18.7565 21.8365 18.5687 21.9883C18.5566 21.9982 18.559 22.0266 18.5477 22.0777C19.1044 22.2862 19.3386 21.789 19.73 21.4723C19.705 22.6735 18.7973 22.6388 18.0274 22.86C18.1729 22.9866 18.2797 23.0797 18.3885 23.1743C17.1555 23.6539 16.6166 24.469 16.875 25.5165C17.1176 25.366 17.3494 25.2214 17.5812 25.0772C17.6045 25.1016 17.6279 25.126 17.6513 25.1503C17.5933 25.2442 17.5445 25.346 17.4756 25.4311C17.0491 25.957 16.7246 26.5373 16.5843 27.2082C16.4646 27.7816 16.4606 28.3455 16.8097 28.9418C16.9753 28.679 17.1059 28.4713 17.2365 28.2637C17.2736 28.2633 17.3103 28.2629 17.347 28.2625C17.3659 28.431 17.4332 28.6127 17.3921 28.7648C17.3357 28.9741 17.1741 29.1518 17.1003 29.3591C16.987 29.6762 16.8742 30.002 16.8306 30.3331C16.7984 30.5759 16.9439 30.7772 17.2744 30.8435C17.3615 30.5499 17.4465 30.2628 17.5332 29.9693C17.8585 30.2568 17.8601 30.5855 17.6053 30.8882C17.4606 31.0603 17.3119 31.2832 17.2893 31.4968C17.2317 32.0483 17.1966 32.6114 17.2398 33.1629C17.2861 33.7575 17.4598 34.3346 17.7505 34.8653ZM7.68493 3.36178C7.67647 3.45922 7.66034 3.55666 7.66034 3.6541C7.65914 7.35889 7.66196 11.0641 7.6543 14.7688C7.6539 15.048 7.73854 15.1275 8.01143 15.1299C9.1997 15.1406 10.3565 14.919 11.5122 14.679C12.4078 14.4929 13.2998 14.29 14.1979 14.1187C15.6671 13.8396 17.0384 14.2185 18.3758 14.7972C18.479 14.8419 18.583 14.8851 18.7192 14.943C18.7192 13.7006 18.7192 12.5149 18.7192 11.3288C18.7192 8.81053 18.714 6.29182 18.7269 3.77351C18.7285 3.49077 18.6362 3.33502 18.3931 3.23958C18.1061 3.12616 17.8276 2.98719 17.5346 2.89374C15.7598 2.32826 14.0044 2.4852 12.2825 3.11179C11.5517 3.37735 10.81 3.49157 10.0466 3.4748C9.26742 3.45762 8.48908 3.40171 7.68493 3.36178ZM30.8049 15.2134C30.8049 11.229 30.8049 7.34294 30.8049 3.45406C30.7311 3.44926 30.6868 3.44248 30.6432 3.44447C30.5557 3.44887 30.4679 3.45845 30.38 3.46524C28.4497 3.6138 26.5544 3.47243 24.7079 2.82708C24.2975 2.68331 23.8517 2.60424 23.4176 2.57788C22.0822 2.49641 20.8238 2.85942 19.5872 3.32906C19.3368 3.42411 19.2691 3.56468 19.2695 3.82705C19.2784 7.39685 19.2756 10.9667 19.2764 14.5365C19.2764 14.6531 19.2865 14.7701 19.2937 14.917C19.3856 14.8747 19.4352 14.8551 19.482 14.8296C20.7565 14.1335 22.1189 13.8811 23.541 14.1072C25.2371 14.3767 26.9204 14.7277 28.6149 15.0065C29.3272 15.1235 30.0539 15.1455 30.8049 15.2134ZM8.30995 32.8047C8.34058 32.8278 8.37122 32.8514 8.40225 32.875C8.79929 32.4768 9.2068 32.0886 9.5869 31.6745C9.69332 31.5583 9.73886 31.3698 9.77554 31.2057C9.84649 30.8858 9.89163 30.5595 9.96136 30.1578C10.1863 30.3323 10.3544 30.4625 10.5543 30.6174C11.15 29.6929 11.7397 28.778 12.3299 27.8631C12.3589 27.8799 12.3883 27.8966 12.4173 27.913C12.4012 27.9853 12.3948 28.0612 12.3673 28.1283C11.9973 29.0284 11.5999 29.9126 10.9598 30.659C10.8941 30.7356 10.8054 30.8722 10.832 30.9361C10.9703 31.2676 11.1424 31.5842 11.3161 31.9321C12.1215 30.8674 12.7894 29.7552 13.7031 28.8375C13.7354 28.9034 13.7374 28.9477 13.7233 28.9857C13.6798 29.1003 13.631 29.2129 13.583 29.3255C13.1312 30.385 12.45 31.2907 11.7365 32.1761C11.6571 32.2751 11.5362 32.4245 11.5616 32.5115C11.6712 32.8853 11.8288 33.244 11.9691 33.6086C12.0574 32.4177 12.396 31.6805 13.1227 31.2504C13.1183 32.127 13.7817 32.5227 14.2949 33.0714C14.4819 32.335 14.3537 31.75 13.947 31.2288C13.7999 31.0403 13.6681 30.8275 13.5834 30.6046C13.5121 30.4165 13.6048 30.284 13.8386 30.3055C14.8245 30.3962 15.6553 30.774 16.1837 31.6621C16.3929 32.014 16.5384 32.4049 16.7141 32.7775C16.7702 32.8965 16.8306 33.0135 16.8891 33.1317C16.8061 32.5227 16.727 31.9421 16.9173 31.3526C16.9403 31.2819 16.8552 31.1534 16.7899 31.0791C16.5344 30.7907 16.3631 30.4549 16.4122 30.0739C16.4808 29.5456 16.3748 29.0903 16.1849 28.5875C15.8685 27.7513 16.0434 26.8919 16.4251 26.0852C16.4723 25.9853 16.5312 25.838 16.4925 25.7585C16.3018 25.3648 16.3095 24.9698 16.4747 24.5884C16.7762 23.8931 16.3369 22.9351 15.8294 22.5965C15.2014 22.1783 14.5198 21.8093 14.3021 20.9547C14.1127 21.3293 13.949 21.6839 13.8499 22.0557C13.7374 22.4778 13.8382 22.6635 14.2026 22.8988C14.3142 22.9706 14.4347 23.0289 14.5399 23.11C14.6859 23.2222 14.7878 23.6943 14.677 23.8205C14.4883 24.0349 14.3021 23.8572 14.157 23.7494C13.8233 23.5018 13.477 23.4742 13.0917 23.5797C12.7632 23.6695 12.4294 23.7602 12.0928 23.7901C11.9348 23.8041 11.6789 23.7186 11.6204 23.6008C11.543 23.4435 11.5648 23.1903 11.6341 23.0146C11.7305 22.7702 11.7397 22.5669 11.5886 22.3592C11.3713 22.0613 11.3214 21.6767 11.5213 21.4331C11.722 21.1883 11.9493 20.9551 12.2033 20.7718C12.2875 20.7111 12.4935 20.809 12.639 20.8529C13.1533 21.0078 13.4597 20.8473 13.6245 20.3213C13.5274 20.3014 13.4299 20.2862 13.3343 20.261C12.847 20.1333 12.793 19.9955 12.8075 19.4823C12.8208 19.0191 12.8007 18.5378 12.6878 18.0926C12.5221 17.436 11.9751 17.1265 11.3121 17.2308C11.0851 17.2663 10.8626 17.3386 10.6418 17.4073C10.2528 17.5291 9.87188 17.6828 9.47767 17.7827C8.98188 17.9085 8.47561 17.9971 8.12332 17.4488C7.84157 18.0478 8.00522 18.3234 8.62354 18.345C8.79808 18.3509 8.97342 18.3462 9.14795 18.3462C9.15077 18.3817 9.15359 18.4176 9.15641 18.4532C8.99155 18.4959 8.82589 18.535 8.66224 18.5822C8.44941 18.6429 8.212 18.6668 8.03061 18.7806C6.18411 19.9396 4.34687 21.1133 2.50762 22.2834C2.42741 22.3341 2.35082 22.3908 2.20451 22.4914C3.68945 22.9187 4.88176 22.263 6.12566 21.7191C6.07689 21.9387 6.0265 22.154 5.89792 22.2973C5.61012 22.6176 5.31668 22.9535 4.9656 23.1911C4.14171 23.7486 3.28395 24.2542 2.43708 24.7765C2.22305 24.9083 1.99894 25.0229 1.72041 25.1787C3.15174 25.5964 4.29165 24.9818 5.45413 24.3835C4.32873 25.8552 2.86475 26.9721 1.60352 28.3559C2.04972 28.4801 2.40846 28.3631 2.72045 28.1602C3.12675 27.8958 3.51814 27.5991 3.8789 27.2741C4.28157 26.911 4.6387 26.4961 5.02485 26.1135C5.13771 26.0013 5.28161 25.9214 5.411 25.8264C5.43922 25.8556 5.46743 25.8851 5.49565 25.9147C5.45091 26.0073 5.41906 26.1103 5.3586 26.1918C4.51012 27.3391 3.88575 28.6099 3.44035 29.9625C3.17633 30.7644 3.00704 31.5998 2.82646 32.4277C2.75673 32.7484 2.76035 33.0922 3.04735 33.4348C3.95508 31.2133 4.84306 29.0396 5.73105 26.8663C5.76531 26.8791 5.79957 26.8919 5.83383 26.9043C5.74475 28.1239 5.63673 29.3423 5.57102 30.5631C5.50411 31.8043 5.63108 33.0311 5.9213 34.2132C6.2095 34.1369 6.46505 34.069 6.73794 33.9963C6.70448 33.9284 6.68755 33.8602 6.64644 33.815C6.26311 33.3969 6.23731 32.8929 6.301 32.367C6.32519 32.1669 6.36146 31.9688 6.38363 31.7688C6.42676 31.3742 6.39976 31.0104 6.01522 30.768C5.93944 30.7205 5.87212 30.5723 5.88744 30.4864C5.90074 30.4106 6.03053 30.3491 6.118 30.2967C6.17282 30.264 6.24457 30.2444 6.30826 30.246C6.60533 30.2532 6.63999 30.0659 6.68433 29.8191C6.78873 29.2381 6.93021 28.6634 7.07209 28.0903C7.10273 27.9665 7.19785 27.8591 7.26355 27.7441C7.29217 27.7549 7.32039 27.7661 7.34901 27.7768C7.34135 27.9154 7.34538 28.0556 7.32361 28.1918C7.23453 28.7433 7.12973 29.2924 7.05032 29.8455C7.03299 29.9653 7.09628 30.0967 7.12248 30.2225C7.95201 29.1861 8.52318 28.0444 9.38093 27.1043C9.36602 27.2932 9.3116 27.459 9.24791 27.6207C8.87627 28.5644 8.31519 29.3934 7.73838 30.2149C7.67752 30.3015 7.63761 30.4749 7.68235 30.5527C7.8061 30.7688 7.97983 30.9553 8.13985 31.1621C8.97261 30.1238 9.79449 29.0987 10.6172 28.0736C10.6547 28.0999 10.6921 28.1259 10.7296 28.1518C10.674 28.2772 10.624 28.4066 10.5607 28.528C9.98555 29.633 9.27169 30.6358 8.41918 31.5379C8.33373 31.6286 8.24102 31.7616 8.24062 31.875C8.2382 32.1849 8.28375 32.4948 8.30995 32.8047ZM23.1672 38.0707C23.3498 37.8187 23.4453 37.5874 23.6166 37.468C24.1608 37.087 24.482 36.5575 24.7199 35.9549C24.8347 35.6646 24.948 35.3726 25.0847 35.0923C25.3124 34.6239 25.6506 34.2692 26.1589 34.1111C26.1927 34.1007 26.2189 34.0652 26.2657 34.0272C25.6518 33.8934 25.2423 34.3096 24.7537 34.5304C25.3483 33.6327 24.9315 32.7313 24.8597 31.8016C24.5852 31.963 24.4442 32.175 24.4135 32.4542C24.3373 33.1479 24.0886 33.768 23.7134 34.3515C23.5888 34.5452 23.5054 34.8068 23.5066 35.0368C23.511 36.1582 22.773 36.8418 22.1309 37.6437C21.9483 37.0116 22.1579 36.4768 22.7141 36.0368C23.1789 35.6686 23.2281 35.391 22.9084 34.8667C22.7133 35.4118 22.5025 35.9337 21.7629 36.0324C21.9878 35.6154 22.1861 35.27 22.3627 34.9138C22.7464 34.1406 22.9084 33.3615 22.3461 32.572C21.9455 33.0061 21.7806 33.5404 21.7113 34.1143C21.6383 34.7109 21.4985 35.2896 21.1252 35.7672C20.7044 36.3055 20.4541 36.9177 20.2642 37.5651C20.238 37.6545 20.1989 37.74 20.1316 37.9165C20.1175 37.764 20.1131 37.712 20.1078 37.6597C20.03 36.8714 20.2888 36.1933 20.737 35.5619C21.1143 35.03 21.3372 34.429 21.2272 33.7636C21.1393 33.2277 20.991 32.7026 20.8572 32.1203C20.0381 32.7281 19.7148 33.5452 19.4907 34.4489C19.429 33.9605 19.346 33.4613 19.4476 33.0045C19.6326 32.171 19.5254 31.3843 19.296 30.5928C19.2549 30.451 19.1932 30.3153 19.1142 30.1056C17.8454 32.3244 17.9929 34.5564 18.6555 36.8311C18.1557 36.2688 17.6748 35.7077 17.2178 35.1282C17.1057 34.9865 17.067 34.7836 17.0013 34.6063C16.7578 33.9489 16.5801 33.2569 16.2568 32.6435C15.9718 32.1019 15.551 31.6251 15.1419 31.1643C14.8948 30.8855 14.5429 30.7218 14.1326 30.6978C14.7033 31.6207 14.7042 31.6207 14.7509 32.6846C14.7562 32.8072 14.7586 32.9326 14.7392 33.0528C14.553 34.183 14.9702 35.0835 15.809 35.7808C16.3701 36.2468 16.9989 36.6278 17.5821 37.0675C17.8631 37.2787 18.1299 37.5187 18.3645 37.7811C18.5253 37.9616 18.6362 38.1996 18.5036 38.5103C17.9844 37.7116 17.2391 37.2592 16.4781 36.8203C15.8944 36.484 15.3221 36.1278 14.7497 35.7724C14.1519 35.4002 13.8359 34.9154 13.9984 34.1478C14.0749 33.7844 14.0733 33.3567 13.7791 33.0384C13.4848 32.7205 13.1757 32.4174 12.856 32.0904C12.8282 32.1239 12.7379 32.2198 12.6642 32.3272C12.3103 32.8407 12.3748 33.4018 12.4687 33.9761C12.5283 34.3399 12.5316 34.7137 12.5602 35.0831C12.5251 35.0923 12.4896 35.1015 12.4542 35.1107C12.3885 35.0587 12.3083 35.0176 12.2587 34.9525C11.7202 34.2441 11.1631 33.5468 10.9849 32.6319C10.9313 32.3583 10.866 32.0828 10.7649 31.8248C10.6423 31.5113 10.4759 31.2154 10.3058 30.8652C10.2461 30.9698 10.2191 30.9965 10.2163 31.0253C10.1268 32.0269 10.1207 33.0185 10.6073 33.939C10.6915 34.0987 10.7229 34.2552 10.569 34.3495C10.4601 34.4158 10.284 34.4481 10.1679 34.4074C9.6963 34.2425 9.32466 33.931 9.04976 33.5061C8.9631 33.3715 8.88611 33.2297 8.79743 33.0796C8.41612 33.431 8.45723 33.8319 8.55558 34.2632C8.41733 34.1758 8.26698 34.0935 8.20732 33.9673C8.07068 33.6798 7.93605 33.3783 7.8772 33.068C7.77603 32.5312 7.76555 31.9766 7.65712 31.4418C7.54345 30.8815 7.17302 30.6323 6.59138 30.6663C6.89852 31.1231 6.85298 31.6151 6.74052 32.0952C6.55954 32.8675 6.8163 33.4789 7.34715 34.0065C7.53821 34.1961 7.74257 34.3719 7.9683 34.5791C6.81952 34.3687 6.51923 34.409 6.23828 34.8235C6.44748 34.9038 6.64862 34.9873 6.85338 35.0587C8.53825 35.6462 10.2747 35.9972 12.0418 36.1985C12.4824 36.2484 12.8202 36.4712 13.1636 36.7803C12.6444 36.7488 12.1853 36.6733 11.7339 36.7061C11.2719 36.7396 10.8842 37.0004 10.5488 37.3155C10.8898 37.5299 11.199 37.72 11.5041 37.9169C11.9015 38.1733 12.3143 38.2372 12.7645 38.0691C13.0628 37.9576 13.3655 37.8462 13.6759 37.7831C15.2725 37.4576 16.7224 37.7144 17.9127 38.9384C17.9518 38.9788 17.9812 39.0291 18.015 39.075C17.8502 39.0786 17.7208 39.0291 17.5902 38.9824C17.113 38.8111 16.6446 38.6066 16.1564 38.4772C15.2656 38.2412 14.397 38.2791 13.5642 38.7583C13.3172 38.9001 13.0007 38.9608 12.7121 38.9764C11.758 39.0275 10.9309 38.6325 10.1397 38.1445C10.0433 38.085 9.94903 38.0219 9.8535 37.9608C9.86317 38.1226 9.92041 38.226 9.98692 38.323C10.5206 39.0982 11.2389 39.6621 12.0047 40.1832C12.7383 40.6828 13.4437 40.7451 14.2261 40.2819C14.707 39.9975 15.2334 39.7627 15.7679 39.6082C16.9134 39.2767 18.134 39.833 18.5616 40.827C18.6305 40.9871 18.6479 41.17 18.6894 41.3425C18.662 41.3593 18.6342 41.3757 18.6064 41.3925C18.1404 40.7866 17.6382 40.2228 16.8119 40.2455C15.9997 40.2683 15.4954 40.8002 15.0242 41.4084C15.0738 41.4288 15.0847 41.4376 15.0939 41.4364C15.1371 41.4296 15.1802 41.422 15.2221 41.4108C16.2234 41.1341 17.1847 41.2854 18.1287 41.6748C18.3552 41.7682 18.3964 41.8916 18.2504 42.0761C18.0026 42.3904 17.7555 42.7063 17.4902 43.0054C16.8239 43.7562 16.208 43.6983 15.6163 42.8872C15.4132 42.6093 15.1415 42.3457 14.8436 42.184C14.0625 41.7583 13.2023 41.7654 12.2816 41.817C12.6368 42.0686 12.9616 42.2563 13.2365 42.5019C13.8649 43.0625 14.4792 43.6416 15.0794 44.2334C15.5055 44.6528 15.9851 44.775 16.5329 44.5797C16.7901 44.4878 17.0521 44.3704 17.2661 44.2039C17.7462 43.8313 18.1972 43.4196 18.6616 43.0254C18.7825 42.9228 18.9087 42.8265 18.9756 42.7734C19.2194 43.2986 19.4504 43.7942 19.6798 44.2909C19.7213 44.3816 19.768 44.4723 19.7934 44.5681C19.8978 44.9563 19.758 45.1619 19.3646 45.1591C19.0868 45.1571 18.8095 45.1064 18.5322 45.0773C18.5133 45.0992 18.4947 45.1208 18.4758 45.1428C18.7978 45.4203 19.0973 45.733 19.448 45.9658C19.8692 46.2458 20.3041 46.1495 20.6399 45.7825C20.9765 45.4147 21.0035 45.0545 20.6943 44.5969C20.5077 44.3209 20.2828 44.0717 20.0804 43.8069C19.7737 43.4056 19.7257 43.0534 19.9369 42.8002C20.1163 42.5853 20.3823 42.5909 20.8406 42.8601C21.2985 43.1284 21.7355 43.4335 22.195 43.6983C22.3913 43.8117 22.6162 43.9012 22.8383 43.9375C23.6316 44.0681 24.2583 43.7754 24.7332 43.1189C24.9899 42.7634 25.2281 42.3797 25.7086 42.2702C25.0464 41.579 24.1197 41.555 23.482 42.1932C23.1265 42.5494 22.7214 42.6304 22.2724 42.4208C22.0636 42.3237 21.8366 42.2215 21.6827 42.0586C21.307 41.6608 20.8705 41.5087 20.3432 41.5865C20.3319 41.5881 20.3162 41.5578 20.3025 41.5422C20.5266 41.1353 21.0281 40.9476 21.544 40.9847C22.2429 41.0346 22.9495 41.0746 23.6473 41.0278C25.3132 40.9164 26.5519 40.049 27.4753 38.6182C27.3266 38.6896 27.1992 38.7456 27.0767 38.8106C26.6373 39.0439 26.1875 39.2595 25.7642 39.5199C24.7001 40.1748 23.684 40.0906 22.6497 39.3278C22.7718 39.2459 22.8734 39.1329 22.9955 39.103C23.9536 38.8674 24.7324 38.2979 25.5119 37.7304C26.2254 37.2112 26.9799 36.7704 27.8417 36.5735C28.4314 36.4389 29.034 36.3586 29.6334 36.2724C30.7205 36.1146 31.7113 35.7772 32.43 34.8623C32.6674 34.56 32.9443 34.2896 33.2067 34.0013C32.8862 33.7688 32.644 34.3639 32.2691 34.169C32.6654 33.5584 32.9205 32.9282 32.9697 32.2138C32.9826 32.0309 33.1321 31.854 33.2329 31.683C33.299 31.5712 33.3909 31.475 33.4868 31.3512C33.4203 31.3436 33.3845 31.3276 33.3599 31.3384C32.571 31.6826 31.8052 32.0776 31.3936 32.8939C30.6613 34.3471 29.4548 35.2377 28.0441 35.9026C27.8397 35.9988 27.6349 36.0943 27.4306 36.1901C27.4068 36.1697 27.3834 36.149 27.36 36.1282C28.4234 35.1079 28.6656 33.8419 28.5531 32.3647C28.1404 32.7213 27.9675 33.0907 27.8582 33.5117C27.6837 34.1866 27.4943 34.9014 26.9493 35.3423C26.071 36.0535 25.2527 36.8259 24.4212 37.5874C24.1112 37.871 23.7206 38.0399 23.1672 38.0707ZM27.4454 33.3024C27.632 32.9035 27.7952 32.5544 27.9637 32.1938C27.3406 31.7118 26.9818 31.0621 26.7497 30.3213C26.9415 30.3967 27.0951 30.5014 27.2217 30.6332C27.5679 30.9934 27.8984 31.3692 28.2455 31.7286C28.3084 31.7937 28.4289 31.8544 28.5095 31.8404C28.9331 31.7665 29.0182 31.8228 29.1097 32.2577C29.1403 32.4039 29.171 32.5856 29.2693 32.6746C29.5962 32.9714 29.9533 33.2333 30.3439 33.5444C30.5305 33.2685 30.718 33.0229 30.8651 32.7545C30.9082 32.6762 30.8784 32.4945 30.8139 32.427C30.4693 32.0656 30.113 31.7142 29.7421 31.3803C28.9271 30.6471 28.3309 29.7578 27.8876 28.7562C27.8364 28.6408 27.8081 28.515 27.7691 28.3936C27.792 28.378 27.8154 28.362 27.8384 28.3465C27.9577 28.4535 28.0911 28.5481 28.1939 28.6695C29.0194 29.646 29.8377 30.6288 30.6628 31.6056C30.7917 31.7585 30.9425 31.8923 31.0832 32.0353C31.1174 32.0209 31.1517 32.0069 31.1864 31.9929C31.2194 31.5608 31.2694 31.1295 31.2766 30.697C31.2783 30.5677 31.1936 30.3939 31.0924 30.3125C30.1702 29.5689 29.564 28.5905 29.0504 27.5394C29.0101 27.4563 28.9944 27.3609 28.9674 27.271C29.0013 27.2471 29.0355 27.2231 29.0694 27.1987C29.4297 27.6113 29.7961 28.0182 30.1484 28.4371C30.4975 28.8528 30.8325 29.2806 31.1739 29.7031C31.1944 29.6899 31.2154 29.6767 31.2363 29.6639C31.0928 28.5457 30.9497 27.4284 30.8063 26.3102C30.8603 26.3022 30.9147 26.2942 30.9683 26.2862C31.6447 27.9779 31.945 29.747 31.9135 31.5477C32.4428 31.2981 32.9599 31.0641 33.465 30.8061C33.5415 30.7673 33.6121 30.6156 33.6044 30.5229C33.5609 30.011 33.5162 29.4974 33.4275 28.9918C33.151 27.4092 32.6124 25.9064 32.0272 24.4196C31.972 24.2791 31.9312 24.1333 31.8837 23.9899C32.0393 24.0742 32.1574 24.1804 32.219 24.3138C32.5601 25.0502 32.9793 25.7659 33.2014 26.539C33.7217 28.3517 34.145 30.1931 34.6101 32.0221C34.7113 32.4198 34.8233 32.8144 34.9306 33.2102C34.964 33.2166 34.9971 33.2229 35.0301 33.2293C35.1047 33.0544 35.2232 32.8851 35.2458 32.7034C35.3268 32.05 35.3981 31.3939 35.4316 30.7366C35.515 29.0861 35.2796 27.5026 34.4219 26.057C33.7342 24.8977 33.0558 23.7324 32.375 22.5687C32.2775 22.4017 32.19 22.2288 32.0977 22.0587C32.1223 22.0311 32.1469 22.0036 32.1711 21.9756C32.2811 22.0451 32.4141 22.0942 32.4956 22.1889C32.6757 22.3989 32.8386 22.6262 32.9934 22.8566C33.4154 23.4844 33.7959 24.1449 34.2558 24.7419C34.8314 25.4879 35.6908 25.7635 36.5618 26.0103C36.5336 25.8781 36.4909 25.7651 36.4211 25.6728C35.8097 24.8677 35.2171 24.0467 34.5722 23.2699C34.0619 22.6549 33.4827 22.0998 32.9426 21.51C32.8079 21.363 32.7072 21.1837 32.5911 21.0192C32.6173 20.9952 32.6431 20.9716 32.6689 20.9473C33.5923 21.7292 34.4263 22.6425 35.5678 23.1006C35.5936 23.069 35.6194 23.0379 35.6452 23.0067C34.5561 21.9572 33.4666 20.9081 32.3775 19.8587C32.4137 19.8195 32.4504 19.78 32.4867 19.7408C32.554 19.7109 32.6217 19.6809 32.7285 19.6338C32.0195 19.03 31.2174 18.7277 30.2875 18.4961C30.6128 18.2529 31.0292 18.4062 31.1114 18.0927C30.6224 17.9454 30.1549 17.806 29.6881 17.663C29.2983 17.5444 28.9138 17.4046 28.52 17.3044C28.0754 17.1914 27.6239 17.1662 27.1939 17.3783C26.8653 17.5408 26.5542 17.7637 26.1543 17.6119C26.1027 17.5923 26.0217 17.6231 25.9645 17.6514C25.4856 17.8863 25.1752 18.2872 24.958 18.7616C24.9104 18.8647 24.9326 19.0368 24.9862 19.1446C25.1446 19.4621 25.0394 19.6993 24.7838 19.8658C24.5267 20.0336 24.2449 20.1658 23.964 20.2912C23.779 20.3738 23.6589 20.4757 23.6605 20.6122C23.9926 20.6394 24.3034 20.6126 24.5799 20.6985C25.1083 20.8634 25.2881 20.847 25.6702 20.4429C25.7984 20.3071 25.9286 20.1737 26.1043 19.9912C26.064 20.5292 26.064 20.5292 26.2474 20.6226C26.6912 20.8478 26.7077 21.0899 26.3764 21.4788C26.1737 21.7172 25.9733 22.0012 25.8967 22.2983C25.6738 23.1597 25.2059 23.5331 24.3288 23.4716C24.0736 23.4536 24.0248 23.3318 24.1018 23.1186C24.1776 22.9089 24.2885 22.7096 24.3409 22.4948C24.4586 22.0112 24.1405 21.6202 23.6262 21.611C23.6633 21.7208 23.7032 21.8219 23.7318 21.9269C23.8056 22.1969 23.777 22.4716 23.544 22.6246C23.1752 22.8666 23.0055 23.2172 22.8563 23.6098C22.7221 23.9648 22.527 24.0375 22.1719 23.9416C22.0925 23.9197 22.0127 23.8997 21.9236 23.8761C21.8801 24.1217 21.8656 24.3494 21.7958 24.5582C21.7249 24.7707 21.772 24.8985 21.9304 25.0478C22.3388 25.4344 22.6068 25.9076 22.6137 26.4895C22.6173 26.7894 22.5746 27.0913 22.5395 27.3904C22.4613 28.0557 22.3686 28.7111 22.583 29.3804C22.7253 29.8257 22.6713 30.2869 22.3807 30.6931C22.3235 30.7729 22.3009 30.8999 22.3069 31.0026C22.3412 31.5465 22.4565 32.074 22.7906 32.5121C23.0425 32.8428 23.1328 33.1954 23.1171 33.6051C23.107 33.8731 23.159 34.1434 23.1832 34.413C23.3763 34.1838 23.463 33.937 23.6093 33.7341C23.9152 33.3088 24.0329 32.8308 24.0736 32.322C24.1135 31.82 24.6367 31.2853 25.1369 31.2338C25.2623 32.0325 25.3877 32.8312 25.5041 33.5744C25.8448 33.5744 26.1519 33.5724 26.4586 33.5748C26.7456 33.5768 26.9089 33.7605 26.983 34.0081C27.0612 34.2708 26.7876 34.2517 26.663 34.3499C26.611 34.391 26.5497 34.4194 26.4937 34.4545C25.85 34.8603 25.4663 35.4601 25.2413 36.1853C25.7319 35.8199 26.1837 35.415 26.6537 35.0328C26.9984 34.7525 27.1826 34.3899 27.3027 33.9705C27.3579 33.778 27.3188 33.6718 27.1616 33.5496C26.8573 33.312 26.5497 33.0676 26.295 32.7797C26.1293 32.5928 26.0548 32.3232 25.9395 32.0908C25.9846 32.06 26.0302 32.0289 26.0753 31.9981C26.5264 32.4274 26.9774 32.8571 27.4454 33.3024ZM-0.0126653 14.8863C-0.0126653 10.386 -0.00903758 5.8857 -0.0207269 1.38541C-0.021533 1.04476 0.0723844 0.924558 0.405731 0.897402C2.26151 0.746447 4.11406 0.546372 5.97105 0.418979C10.7338 0.0927093 15.5047 -0.0658331 20.2767 0.0256183C24.1306 0.0994983 27.984 0.281602 31.835 0.4677C33.7815 0.561947 35.7227 0.777996 37.6672 0.920964C37.9542 0.942129 38.0033 1.05515 38.0005 1.31233C37.9884 2.36462 37.9953 3.41691 37.9953 4.4692C37.9953 12.2046 38.0046 19.9405 37.9896 27.6759C37.9856 29.842 37.5325 31.9442 36.8848 33.9964C34.7271 40.8337 30.159 45.3045 23.6041 47.7561C22.2155 48.2752 20.754 48.6007 19.3118 48.9577C18.9377 49.0504 18.5004 48.9753 18.1102 48.8914C13.5167 47.903 9.46494 45.852 6.12905 42.4583C3.21479 39.4935 1.42996 35.8981 0.531895 31.8312C0.164286 30.1671 -0.03685 28.489 -0.0227423 26.775C0.0086979 22.8122 -0.0126653 18.849 -0.0126653 14.8863Z" fill="white"/>
</g>
<path fill-rule="evenodd" clip-rule="evenodd" d="M20.5234 8.66992C20.5596 9.28181 20.9117 9.72992 21.2912 9.72855C21.6193 9.72719 21.8416 9.42784 21.8735 8.8801C21.4275 8.8105 20.981 8.74089 20.5234 8.66992ZM20.8694 8.50615C21.1934 8.42654 21.4485 8.35466 21.7056 8.30279C21.9173 8.25957 21.9125 8.09716 21.8368 7.87561C21.6538 7.34152 21.1038 7.19094 20.7562 7.6304C20.6296 7.79099 20.5858 8.08988 20.5039 8.32599C20.6421 8.39378 20.7802 8.46202 20.8694 8.50615ZM21.9999 7C21.9999 7.86346 22.0005 8.75104 21.9989 9.63907C21.9989 9.76236 21.988 9.8861 21.9855 9.93569C21.8214 9.93569 21.682 9.90976 21.549 9.94115C21.172 10.0289 20.809 10.0544 20.4592 9.75735C19.9888 9.35792 19.8525 8.50538 20.1784 7.86528C20.5334 7.16878 21.0453 7.0273 21.5966 7.03003C21.7181 7.03048 21.8397 7.01274 21.9999 7Z" fill="white"/>
<path fill-rule="evenodd" clip-rule="evenodd" d="M21.6806 7C21.3911 6.32237 21.1312 5.69985 20.859 5.08332C20.6885 4.69799 20.5325 4.28311 20 4.26873C20.592 4.18887 21.1552 4.27313 21.757 4.4061C21.2123 4.66085 21.4876 4.99188 21.6195 5.30294C21.6837 5.45468 21.7582 5.60122 21.9071 5.75935C22.0126 5.37921 22.154 5.00386 22.2064 4.61573C22.2261 4.46839 22.0414 4.2907 21.9224 4.07866C22.2375 4.05431 22.5825 4.02715 22.9275 4C22.9516 4.04233 22.976 4.08425 23 4.12618C22.436 4.26594 22.4344 4.76428 22.2942 5.17157C22.0894 5.76694 21.8929 6.3655 21.6806 7Z" fill="white"/>
<path fill-rule="evenodd" clip-rule="evenodd" d="M26.0051 11.4561C26.2212 11.2607 26.3619 11.1336 26.5095 11C26.8212 11.1939 26.9962 11.4177 26.9639 11.7948C26.9364 12.1148 26.9834 12.4416 27 12.8263C26.7493 13.0831 26.7019 13.0766 26.3954 12.6614C26.2392 12.7275 26.0815 12.7976 25.9208 12.8608C25.5872 12.9919 25.3365 12.8346 25.3181 12.4772C25.3094 12.307 25.3245 12.136 25.3252 11.965C25.3267 11.6034 25.3215 11.5948 25 11.3789C25.1442 11.2493 25.2823 11.1253 25.4178 11.0032C25.684 11.1408 25.8127 11.3218 25.7826 11.5987C25.7676 11.7384 25.7664 11.8796 25.7638 12.02C25.7566 12.368 25.8259 12.4391 26.1462 12.4578C26.4918 12.4776 26.4892 12.2499 26.4884 12.0186C26.4873 11.7449 26.5182 11.4504 26.0051 11.4561Z" fill="white"/>
<path fill-rule="evenodd" clip-rule="evenodd" d="M24.9331 9.39974C24.7662 9.57916 24.6211 9.73516 24.4629 9.90534C24.2809 9.73978 24.1365 9.60851 23.9992 9.48384C23.8306 9.65633 23.6626 9.82817 23.495 10C23.4852 9.98483 23.4755 9.96933 23.466 9.95416C23.556 9.71933 23.6675 9.49077 23.7282 9.24802C23.7637 9.10554 23.7461 8.93305 23.7044 8.78892C23.6167 8.48714 23.4634 8.43602 23.1914 8.58344C23.1604 8.60026 23.1275 8.61478 23.0939 8.62665C23.0789 8.63193 23.0603 8.62764 23 8.62764C23.0349 8.56234 23.0489 8.50429 23.0851 8.47394C23.1673 8.40435 23.2619 8.35026 23.3486 8.28628C23.7337 8.00231 23.7334 8.00198 24.0902 8.32124C24.2056 8.21438 24.3227 8.10554 24.4371 8C24.6266 8.13522 24.8069 8.26418 25 8.40237C24.774 8.73252 24.4939 8.61346 24.2242 8.5089C24.0853 8.83377 24.187 8.96405 24.9331 9.39974Z" fill="white"/>
<path fill-rule="evenodd" clip-rule="evenodd" d="M21.9637 11.6856C21.7583 11.7124 21.4934 11.5664 21.4981 11.9824C21.4989 12.0758 21.6468 12.2572 21.7008 12.2428C21.9101 12.1883 22.0906 12.0581 21.9637 11.6856ZM22.0038 11.263C22.0304 10.8379 21.9213 10.6062 21.6909 10.588C21.6085 10.5813 21.4546 10.8379 21.4336 10.9949C21.3907 11.3185 21.5902 11.4521 21.8178 11.4425C21.9007 11.4386 21.9796 11.2879 22.0038 11.263ZM23 11.9009C22.7942 12.202 22.6701 12.4768 22.4813 12.6214C22.3786 12.7003 22.1652 12.5582 22.0015 12.5156C21.9987 12.4691 21.9959 12.4222 21.9927 12.3758C21.7608 12.5845 21.5288 12.7932 21.2988 13C20.9744 12.6778 20.9062 12.2465 21.1334 11.7999C21.2476 11.5754 21.3059 11.3801 21.2484 11.1039C21.1731 10.742 21.6977 10.0077 22.0015 10.0001C22.2065 9.99479 22.4884 10.3519 22.4968 10.641C22.5035 10.8679 22.5043 11.0963 22.494 11.3232C22.4777 11.6989 22.5154 12.0072 23 11.9009Z" fill="white"/>
<path fill-rule="evenodd" clip-rule="evenodd" d="M28.1255 5.96104C28.1952 5.56482 28.0706 5.36141 27.7063 5.32894C27.5681 5.31635 27.4077 5.45251 27.2578 5.52109C27.267 5.55355 27.2761 5.58602 27.2857 5.61849C27.552 5.72715 27.8187 5.83581 28.1255 5.96104ZM27.5861 5.94141C27.4614 6.19451 27.5586 6.56091 27.7843 6.58808C27.8968 6.60166 28.1068 6.52745 28.1421 6.4549C28.289 6.14879 28.1413 6.02555 27.5861 5.94141ZM27.2873 5.77192C26.9909 5.63079 27.096 5.48536 27.2611 5.33263C27.5919 5.02619 27.8883 4.93542 28.2452 5.04408C28.5437 5.13518 28.7638 5.2624 28.6762 5.5589C28.6448 5.66458 28.6679 5.7802 28.6679 5.89118C28.667 6.27117 28.6675 6.27117 29 6.55541C28.8418 6.6929 28.6797 6.83336 28.4879 7C28.369 6.88836 28.2748 6.7999 28.1415 6.67501C27.9066 6.77241 27.6516 6.87776 27.3949 6.98443C26.9077 6.64188 26.8707 6.33014 27.2873 5.77192Z" fill="white"/>
<path fill-rule="evenodd" clip-rule="evenodd" d="M28.1949 9.6694C28.4705 9.40121 28.5554 9.09694 28.3988 8.83431C28.2907 8.65202 27.9887 8.4907 27.7284 8.42546C27.5481 8.38021 27.3875 8.77366 27.4803 9.03366C27.5853 9.32842 27.8737 9.49399 28.1949 9.6694ZM29 8.86918C28.9764 9.40492 28.5278 9.72427 28.0128 9.98361C27.9073 10.0371 27.6216 9.94951 27.4732 9.86853C27.0365 9.62984 26.875 9.13016 27.1035 8.72983C27.201 8.55901 27.3498 8.3895 27.5288 8.26425C28.127 7.84523 28.4854 7.91867 28.8849 8.52655C28.9527 8.62917 28.9632 8.75409 29 8.86918Z" fill="white"/>
<path fill-rule="evenodd" clip-rule="evenodd" d="M27 4.91366C26.8213 4.94603 26.6436 4.9824 26.4645 5.00918C26.2702 5.03836 26.074 5.05834 25.8221 5.08951C25.8611 5.4704 25.8767 5.83731 25.9505 6.19582C25.971 6.29493 26.1662 6.36808 26.3312 6.48998C26.2272 6.62706 26.114 6.81651 25.9509 6.96879C25.8982 7.01755 25.6449 7.00636 25.6039 6.9548C25.4672 6.78294 25.3446 6.5879 25.2919 6.38766C25.2182 6.10589 25.2285 5.80893 25.1709 5.52276C25.1308 5.32173 25.0381 5.12828 25 5.05474C25.3793 4.74459 25.7586 4.43405 26.1379 4.1239C26.1076 4.08233 26.0774 4.04117 26.0476 4C26.0139 4.10591 25.9783 4.21183 25.947 4.31814C25.8562 4.62669 25.9392 4.72821 26.32 4.74899C26.5367 4.76138 26.7549 4.75139 26.9727 4.75139C26.9814 4.80535 26.9907 4.8597 27 4.91366Z" fill="white"/>
<path fill-rule="evenodd" clip-rule="evenodd" d="M27.9962 11.317C28.3714 10.8318 28.6507 11.2632 29 11.4526C28.8705 11.57 28.7589 11.7092 28.6126 11.7863C28.5444 11.8223 28.4069 11.7448 28.3063 11.7052C28.2107 11.6674 28.1219 11.6122 28.0305 11.5646C28.0038 11.6663 27.9577 11.7677 27.9539 11.8702C27.9432 12.165 27.9436 12.4609 27.9512 12.7557C27.9562 12.949 27.856 12.993 27.6815 12.9996C27.4876 13.0065 27.4217 12.9316 27.4324 12.7488C27.4438 12.5459 27.432 12.3417 27.4381 12.1385C27.4549 11.5933 27.4564 11.5933 27 11.3854C27.4286 10.8845 27.4503 10.8827 27.9962 11.317Z" fill="white"/>
<path fill-rule="evenodd" clip-rule="evenodd" d="M26.9523 8.46128C26.4968 8.67782 26.3615 8.66804 25.8816 8.39551C25.4952 8.5935 25.392 8.81173 25.5653 9.06504C25.814 9.4283 26.287 9.54399 27 9.41683C26.8963 9.66171 26.3084 10.0122 26.0223 9.99968C25.6578 9.98382 25.1341 9.59526 25.0299 9.2637C24.864 8.73752 25.4081 8.12668 26.161 8.0029C26.2238 7.99244 26.3211 8.01133 26.3683 8.0427C26.5688 8.17627 26.7571 8.31962 26.9523 8.46128Z" fill="white"/>
<path fill-rule="evenodd" clip-rule="evenodd" d="M21 12.3193C20.7817 12.5936 20.6239 12.7917 20.4578 13C20.1888 12.8731 20.0574 12.6841 20.0562 12.3612C20.0543 11.6757 20.0269 10.9902 20.001 10.3052C19.9934 10.1063 20.025 9.99248 20.2494 10.0004C20.4411 10.0067 20.5611 10.0241 20.5538 10.283C20.5378 10.825 20.5535 11.3678 20.5474 11.9101C20.5447 12.1868 20.534 12.4541 21 12.3193Z" fill="white"/>
<path fill-rule="evenodd" clip-rule="evenodd" d="M24.6662 10C24.6406 10.2016 24.623 10.3271 24.6093 10.4539C24.5888 10.6422 24.5742 10.8219 24.7617 10.8395C24.795 10.8425 24.8253 10.9216 24.8569 10.9654C24.817 11.0097 24.778 11.0909 24.7379 11.0922C24.5722 11.0957 24.56 11.2474 24.565 11.4318C24.5695 11.5874 24.571 11.7434 24.5733 11.899C24.582 12.432 24.5903 12.4441 25 12.405C24.8712 12.6143 24.7849 12.8013 24.6691 12.9307C24.5147 13.1035 24.2568 12.9358 24.2184 12.6207C24.1803 12.3065 24.1874 11.9786 24.1839 11.6566C24.1812 11.369 24.2821 11.0415 24 10.9091C24.2249 10.6022 24.4225 10.3323 24.6662 10Z" fill="white"/>
<path fill-rule="evenodd" clip-rule="evenodd" d="M25 6.54116C24.8918 6.65752 24.8365 6.71007 24.7913 6.76671C24.6606 6.9305 24.4505 7.06631 24.2212 6.96531C24.026 6.87932 23.8731 6.6971 23.7918 6.53366C23.7154 6.37908 23.7332 6.19277 23.7505 6.02249C23.7904 5.62428 23.688 5.50963 23 5.4523C23.249 5.29602 23.4534 5.14963 23.6832 5.02849C23.8937 4.91725 24.3163 5.151 24.3433 5.39634C24.3625 5.56729 24.3678 5.74166 24.3447 5.91194C24.3 6.24839 24.3937 6.50704 25 6.54116Z" fill="white"/>
<path fill-rule="evenodd" clip-rule="evenodd" d="M24.6955 3C24.82 3.28213 24.9714 3.51515 24.9998 3.75601C25.0086 3.83333 24.6911 3.99948 24.5222 4C24.3657 4.00052 24.137 3.85789 24.0642 3.73772C23.872 3.42058 24.1196 3.2163 24.6955 3Z" fill="white"/>
<path fill-rule="evenodd" clip-rule="evenodd" d="M29.0645 8.86048C29.3766 8.89523 29.6886 8.92997 30 8.96471C29.978 9.02302 29.956 9.08172 29.9333 9.14043C29.6227 9.10369 29.3114 9.06655 29 9.03021C29.0212 8.9735 29.0432 8.91679 29.0645 8.86048Z" fill="white"/>
<path fill-rule="evenodd" clip-rule="evenodd" d="M30 10.1385C29.5977 10.093 29.3308 10.0626 29 10.0251C29.3704 9.78228 29.6175 9.80425 30 10.1385Z" fill="white"/>
<path fill-rule="evenodd" clip-rule="evenodd" d="M16.3355 5.61132C15.9534 5.30508 15.8346 5.28397 15.6094 5.47291C15.8098 5.84144 16.0339 5.88989 16.3355 5.61132ZM15.5762 6.52722C15.8007 6.60578 15.9928 6.70024 16.1955 6.73104C16.274 6.74281 16.4094 6.62619 16.4553 6.5383C16.479 6.49366 16.3801 6.35628 16.303 6.30749C16.0063 6.1189 15.9492 6.13862 15.5762 6.52722ZM17 5.37142C16.8274 5.51918 16.6853 5.64099 16.5337 5.77075C16.6003 5.81747 16.6582 5.85622 16.7135 5.89809C17.0368 6.14448 17.0342 6.42096 16.7067 6.66734C16.1412 7.09367 15.523 7.11512 15 6.70333C15.17 6.55142 15.3373 6.40124 15.5027 6.25348C15.5001 6.22995 15.5054 6.20607 15.4952 6.195C15.1677 5.82889 15.1376 5.68251 15.3422 5.44063C15.6832 5.03749 16.2386 4.88316 16.6202 5.09493C16.7421 5.16276 16.8466 5.25861 17 5.37142Z" fill="white"/>
<path fill-rule="evenodd" clip-rule="evenodd" d="M16.9376 12.1914C16.751 12.2024 16.5708 12.213 16.3906 12.2239C16.4225 12.3255 16.4193 12.4778 16.4939 12.5179C16.6143 12.5822 16.7857 12.5726 16.9663 12.5986C16.954 12.4251 16.9476 12.331 16.9376 12.1914ZM16.9519 12.0093C17.0125 11.6904 16.8606 11.4129 16.6023 11.4221C16.5281 11.4248 16.4149 11.5634 16.399 11.651C16.3583 11.8786 16.6023 12.0257 16.9519 12.0093ZM18 12.64C17.8461 12.7512 17.6922 12.8624 17.5072 12.9962C17.5419 12.9962 17.5116 13.0041 17.5013 12.9948C17.1548 12.6841 16.8163 12.7173 16.4551 12.9859C16.4037 13.0239 16.2088 12.9794 16.141 12.9195C15.946 12.7488 15.9672 12.4292 16.1195 12.1684C16.1808 12.063 16.21 11.9238 16.1936 11.8064C16.145 11.4621 16.5317 11.0187 16.9212 11.0002C17.1217 10.9909 17.5148 11.3475 17.5359 11.5655C17.5587 11.8036 17.5798 12.0425 17.5878 12.2813C17.5953 12.5048 17.6037 12.7125 18 12.64Z" fill="white"/>
<path fill-rule="evenodd" clip-rule="evenodd" d="M10.8181 6.04677C10.7483 5.83767 10.7313 5.58887 10.5924 5.43196C10.4836 5.30836 10.2186 5.23599 10.034 5.25201C9.73313 5.27794 9.59069 5.52418 9.53471 5.78003C9.46419 6.10248 9.50884 6.42846 9.81746 6.62378C9.95672 6.71184 10.2111 6.73298 10.3731 6.67982C10.6572 6.58696 10.7912 6.34968 10.8181 6.04677ZM10.9187 5C10.9187 5.33686 10.9085 5.67404 10.9219 6.00994C10.9347 6.33399 10.9715 6.65677 10.9988 6.9901C11.0062 6.9869 10.9765 7.00227 10.9747 6.99971C10.7961 6.75731 10.5658 6.82071 10.3185 6.88572C9.86246 7.00547 9.45286 6.88764 9.1825 6.54149C8.94829 6.24241 8.94049 5.87705 9.15344 5.55076C9.40254 5.16811 9.75935 4.9683 10.2717 5.04259C10.4652 5.07077 10.6976 5.24048 10.9187 5Z" fill="white"/>
<path fill-rule="evenodd" clip-rule="evenodd" d="M12.3072 12.9884C12.2855 12.8134 12.252 12.6383 12.246 12.4626C12.2375 12.2235 12.274 11.9817 12.2422 11.7455C12.2303 11.6566 12.0813 11.5794 11.9947 11.4968C11.917 11.5853 11.7778 11.6712 11.7714 11.7633C11.7455 12.1382 11.7608 12.5148 11.7608 12.9036C11.5893 12.9036 11.467 12.9036 11.3426 12.9036C11.1724 12.3965 11.5167 11.831 11 11.3673C11.1592 11.2497 11.3176 11.1328 11.4971 11C11.6071 11.1308 11.7005 11.2415 11.8164 11.3792C11.9565 11.2996 12.0962 11.2362 12.2108 11.1516C12.398 11.0135 12.539 11.0727 12.6188 11.22C12.6901 11.3511 12.7202 11.5007 12.7402 11.6448C12.7716 11.8737 12.7665 12.1062 12.8043 12.3341C12.8183 12.42 12.9091 12.4976 13 12.6304C12.8421 12.7325 12.6345 12.8662 12.4264 13C12.387 12.996 12.3471 12.9924 12.3072 12.9884Z" fill="white"/>
<path fill-rule="evenodd" clip-rule="evenodd" d="M13.0739 10C13.0528 9.68465 13.0264 9.2858 13 8.88742C13.0391 8.87949 13.0783 8.87203 13.1174 8.8641C13.1548 8.92241 13.2041 8.97559 13.2274 9.04043C13.4213 9.56803 13.7243 9.79288 14.2213 9.69911C14.3669 9.67159 14.5846 9.50365 14.5964 9.3805C14.6123 9.22003 14.4944 8.97512 14.3642 8.88276C14.1382 8.72182 13.8558 8.65651 13.6016 8.53895C13.3795 8.43679 13.0998 8.32437 13.1495 8.01322C13.1882 7.77064 13.3202 7.48375 13.4965 7.34474C13.6913 7.19173 13.982 7.17727 14.2332 7.11569C14.4179 7.06951 14.607 7.04478 14.8506 7C14.8735 7.22998 14.9012 7.50941 14.9359 7.85881C14.6954 7.67501 14.5533 7.52154 14.3818 7.4483C14.2239 7.38112 14.0238 7.3522 13.8637 7.39698C13.7371 7.43197 13.6421 7.60364 13.5335 7.71466C13.6386 7.80749 13.7314 7.93625 13.8519 7.98383C14.0529 8.06313 14.2745 8.07759 14.4816 8.14244C14.8656 8.26232 15.0402 8.5842 14.9922 9.04883C14.9403 9.54937 14.6774 9.89691 14.3075 9.92629C14.1536 9.93796 13.9957 9.88758 13.8413 9.89784C13.6135 9.91277 13.3875 9.95662 13.0739 10Z" fill="white"/>
<path fill-rule="evenodd" clip-rule="evenodd" d="M10.4613 9.17065C10.4514 9.40832 10.6738 9.48744 10.8885 9.49373C10.9516 9.49538 11.0258 9.26698 11.1153 9.10742C10.8299 9.1349 10.6563 9.15178 10.4613 9.17065ZM11.1862 8.7522C10.9809 8.55921 10.8466 8.43276 10.712 8.30664C10.5881 8.42084 10.3577 8.54101 10.3675 8.64793C10.3791 8.77206 10.5836 8.90546 10.7455 8.98921C10.788 9.01139 10.9822 8.86508 11.1862 8.7522ZM12 9.50346C11.7079 9.70473 11.5124 9.83978 11.2797 10C11.1893 9.88282 11.1137 9.78483 11.0207 9.665C10.937 9.69413 10.8292 9.71466 10.75 9.76266C10.5787 9.86726 10.4377 10.0036 10.2064 9.81661C9.98454 9.6362 9.92817 9.40449 10.1031 9.21183C10.1577 9.15159 10.2275 9.09895 10.2879 9.045C10.0821 8.55243 10.1349 8.36077 10.6055 8.12938C10.7634 8.05159 11.069 7.96255 11.1513 8.01651C11.3455 8.14263 11.5065 8.34058 11.5669 8.53025C11.6336 8.73913 11.5853 8.97217 11.5634 9.1933C11.5455 9.37536 11.5951 9.50214 12 9.50346Z" fill="white"/>
<path fill-rule="evenodd" clip-rule="evenodd" d="M13.5255 4.935C13.5635 4.94673 13.6012 4.95881 13.6392 4.9702C13.8011 4.83318 13.963 4.69616 14.1328 4.55258C14.0002 4.45111 13.8944 4.37035 13.689 4.21297C13.6229 4.5053 13.574 4.72032 13.5255 4.935ZM15 5.55418C14.488 6.02425 14.1939 6.08983 13.6919 5.90277C13.2188 5.72605 12.9695 5.40922 13.003 5.02646C13.0452 4.5481 13.4213 4.1184 13.8844 4.01969C14.1881 3.95515 14.3491 4.0404 14.6026 4.40797C14.3516 4.61057 14.1057 4.82421 13.8404 5.01818C13.6576 5.15209 13.6802 5.28911 13.8509 5.36815C14.0684 5.46858 14.319 5.52346 14.5624 5.57626C14.6687 5.59904 14.7917 5.56695 15 5.55418Z" fill="white"/>
<path fill-rule="evenodd" clip-rule="evenodd" d="M10.381 11.1662C10.213 10.9398 10.0682 10.7449 9.92402 10.5508C9.32688 10.9103 9.22466 11.2644 9.5961 11.7147C9.85469 11.534 10.1138 11.3529 10.381 11.1662ZM10.2384 13C9.49298 12.7727 8.99249 12.1924 9.00009 11.5876C9.00818 10.9127 9.60229 10.2439 10.4059 10C10.5926 10.2849 10.7789 10.5688 11 10.9058C10.8016 11.0621 10.586 11.2331 10.369 11.4027C10.1584 11.5668 9.9464 11.7296 9.73588 11.8927C10.0355 12.2376 10.1473 12.2592 10.878 12.0896C10.6387 12.4302 10.4363 12.7174 10.2384 13Z" fill="white"/>
<path fill-rule="evenodd" clip-rule="evenodd" d="M11 5.41031C11.3464 4.97844 11.3939 4.9667 11.8522 5.12757C11.9113 5.14838 12.0101 5.17337 12.0403 5.14649C12.3433 4.87814 12.571 5.01818 12.7925 5.24869C12.8186 5.27556 12.8719 5.27934 13 5.32476C12.8091 5.46027 12.6731 5.62946 12.5197 5.64497C12.3714 5.65974 12.2048 5.51591 11.9952 5.41787C11.9762 5.56322 11.949 5.69077 11.9456 5.81833C11.9386 6.12567 11.9337 6.43339 11.9456 6.74035C11.9535 6.94057 11.851 7.00038 11.6613 7C11.4745 7 11.4034 6.92014 11.4121 6.74489C11.4253 6.46972 11.4121 6.1938 11.4274 5.91901C11.4427 5.64573 11.403 5.42128 11 5.41031Z" fill="white"/>
<path fill-rule="evenodd" clip-rule="evenodd" d="M10 8.31835C9.76278 8.47055 9.61707 8.56399 9.47484 8.65511C9.43157 8.63398 9.41069 8.6221 9.38731 8.61318C9.1869 8.53857 8.98648 8.46494 8.78606 8.39065C8.68262 8.56201 8.50707 8.73006 8.49066 8.90538C8.46033 9.22465 8.82187 9.47788 9.32565 9.56009C9.46788 9.58287 9.61608 9.59047 9.79262 9.60862C9.61409 9.81399 9.51313 10.0401 9.0571 9.99392C8.60604 9.94803 8.11619 9.66541 8.02518 9.36562C7.85709 8.81293 8.55581 8.06842 9.3709 8.00073C9.54596 7.9862 9.7603 8.19124 10 8.31835Z" fill="white"/>
<path fill-rule="evenodd" clip-rule="evenodd" d="M12.8787 9.45887C12.8053 9.60882 12.7725 9.71498 12.7164 9.78044C12.6367 9.87421 12.5161 10.0286 12.4556 9.99541C12.3418 9.93304 12.1991 9.77381 12.1758 9.62076C12.1232 9.27664 12.1459 8.90995 12.1178 8.55521C12.1046 8.38491 12.0454 8.22125 12 8.02486C12.1682 7.7462 12.3768 7.39986 12.6178 7C12.587 7.20214 12.5561 7.35474 12.541 7.51088C12.5019 7.9103 12.5343 7.95896 12.8084 7.96294C12.8655 7.96382 12.9225 7.98107 12.9792 7.9908C12.9861 8.02486 12.9931 8.05848 13 8.0921C12.9301 8.13146 12.8601 8.204 12.7899 8.20445C12.5211 8.20666 12.4184 8.37739 12.482 8.75602C12.494 8.82724 12.4887 8.9042 12.4956 8.97763C12.523 9.26646 12.5419 9.56857 12.8787 9.45887Z" fill="white"/>
<path fill-rule="evenodd" clip-rule="evenodd" d="M13.5485 10.0079C13.5301 10.3227 13.5116 10.6375 13.4922 10.9686C13.5788 10.9909 13.644 10.996 13.7026 11.0262C13.7466 11.049 13.7821 11.1039 13.8213 11.1443C13.7855 11.1913 13.7555 11.2597 13.7132 11.2815C13.499 11.3936 13.4148 11.7126 13.511 12.079C13.5713 12.3087 13.6593 12.3366 14 12.1655C13.8366 12.4821 13.7302 12.7462 13.5833 12.9546C13.481 13.0996 13.204 12.8741 13.1611 12.6054C13.1249 12.3789 13.1362 12.1385 13.1106 11.9079C13.0847 11.6735 13.0362 11.4443 13.0052 11.2108C12.9963 11.1439 12.997 11.0551 13.0212 11.0011C13.1747 10.6635 13.3357 10.3329 13.4939 10C13.512 10.0028 13.5304 10.0051 13.5485 10.0079Z" fill="white"/>
<path fill-rule="evenodd" clip-rule="evenodd" d="M16 9.27131C15.9485 9.67628 15.7418 10.016 15.5957 9.99942C15.3021 9.96544 15.0106 9.54348 15.0002 9.1358C14.9898 8.73198 15.3593 8.07838 15.6719 8.00271C15.7598 7.98148 15.8717 8.08996 15.9659 8.15405C15.987 8.16872 15.9981 8.27874 15.9839 8.2911C15.9121 8.35441 15.8344 8.42892 15.7516 8.44475C15.5907 8.47602 15.3523 8.35673 15.3201 8.64241C15.297 8.84355 15.3767 9.10955 15.4822 9.27517C15.5992 9.45932 15.7949 9.59482 16 9.27131Z" fill="white"/>
<path fill-rule="evenodd" clip-rule="evenodd" d="M14 11.4546C14.0781 11.3862 14.1543 11.3143 14.2346 11.251C14.3443 11.1641 14.4568 11.0834 14.5681 11C14.651 11.1992 14.7534 11.3902 14.8097 11.6009C14.8463 11.7393 14.8049 11.9089 14.8201 12.0607C14.8397 12.252 14.8811 12.439 14.9131 12.628C14.9421 12.6391 14.9712 12.6505 15 12.6616C14.8972 12.7743 14.7942 12.8869 14.6908 13C14.4992 12.9095 14.4211 12.7426 14.4388 12.4873C14.4496 12.3343 14.4445 12.1781 14.4369 12.0243C14.4164 11.612 14.3693 11.5554 14.0601 11.5483C14.0402 11.5171 14.0199 11.4859 14 11.4546Z" fill="white"/>
<path fill-rule="evenodd" clip-rule="evenodd" d="M17.5219 10C17.4489 9.77271 17.3731 9.60317 17.3421 9.42126C17.3131 9.25061 17.3198 9.06607 17.3305 8.88904C17.3475 8.60661 17.2617 8.46971 17 8.45658C17.1284 8.30692 17.2517 8.14902 17.3889 8.01362C17.4197 7.98324 17.5316 8.00762 17.5505 8.04812C17.6071 8.1689 17.6576 8.30692 17.6707 8.4442C17.6905 8.65087 17.6835 8.86316 17.6744 9.07207C17.6649 9.29036 17.7069 9.44714 18 9.46402C17.8247 9.66018 17.7057 9.79371 17.5219 10Z" fill="white"/>
<path fill-rule="evenodd" clip-rule="evenodd" d="M17.5007 7C17.8706 7.23751 18.2114 7.46304 17.8386 7.8351C17.6376 8.03503 17.3463 8.07044 17.149 7.84491C16.8497 7.50117 17.0186 7.2228 17.5007 7Z" fill="white"/>
<path fill-rule="evenodd" clip-rule="evenodd" d="M14.5003 10C14.6643 10.1333 14.8185 10.258 15 10.4056C14.8478 10.5961 14.6992 10.7815 14.5249 11C14.3501 10.8444 14.1897 10.7014 14 10.532C14.1835 10.337 14.3404 10.1705 14.5003 10Z" fill="white"/>
<path fill-rule="evenodd" clip-rule="evenodd" d="M19.1309 17.3008C19.1309 17.4494 19.1309 17.5569 19.1309 17.6942C19.266 17.6295 19.3769 17.5762 19.5264 17.5043C19.3755 17.4266 19.2702 17.3724 19.1309 17.3008ZM18.4639 17.7781C18.4436 17.6279 18.4253 17.4938 18.4074 17.361C18.2843 17.361 18.1586 17.361 18 17.361C18.2411 17.0292 18.6864 16.9131 19.0707 17.0673C19.3838 17.1929 19.6842 17.3459 20 17.4916C19.6971 17.6358 19.4087 17.7872 19.1083 17.9131C18.7233 18.074 18.3997 18.0102 18.1741 17.7323C18.286 17.75 18.3727 17.7636 18.4639 17.7781Z" fill="white"/>
<path fill-rule="evenodd" clip-rule="evenodd" d="M46 32.0646V18H51.5541V31.9241C51.5541 35.9325 53.6099 38.0073 56.9998 38.0073C60.3905 38.0073 62.4459 36.0029 62.4459 32.0999V18H68V31.8889C68 39.3435 63.7081 43 56.9279 43C50.1478 43 46 39.3083 46 32.0646Z" fill="white"/>
<path fill-rule="evenodd" clip-rule="evenodd" d="M70 31.0718V31.0002C70 23.8535 75.3404 18 82.9957 18C87.6953 18 90.5079 19.5802 92.8225 21.8784L89.3333 25.9366C87.4103 24.1769 85.4521 23.0996 82.96 23.0996C78.7587 23.0996 75.7324 26.6186 75.7324 30.9282V31.0002C75.7324 35.3095 78.6873 38.9008 82.96 38.9008C85.8084 38.9008 87.553 37.7515 89.5108 35.9559L93 39.5112C90.4366 42.2763 87.5887 44 82.7817 44C75.4474 44 70 38.29 70 31.0718Z" fill="white"/>
<path fill-rule="evenodd" clip-rule="evenodd" d="M95 17H100.263V26.6166C101.474 25.0137 103.033 23.5535 105.699 23.5535C109.681 23.5535 112 26.2602 112 30.6411V43H106.738V32.351C106.738 29.7863 105.56 28.4685 103.552 28.4685C101.544 28.4685 100.263 29.7863 100.263 32.351V43H95V17Z" fill="white"/>
<path fill-rule="evenodd" clip-rule="evenodd" d="M114.15 43.0006H119.851V23.9102H114.15V43.0006ZM114 21.8083H120V17H114V21.8083Z" fill="white"/>
<path fill-rule="evenodd" clip-rule="evenodd" d="M121 34.0718V34C121 28.516 125.229 24 131.157 24C134.808 24 137.084 25.2185 138.892 27.2257L135.53 30.8098C134.301 29.5199 133.072 28.6952 131.121 28.6952C128.373 28.6952 126.422 31.0966 126.422 33.9286V34C126.422 36.9393 128.337 39.3048 131.337 39.3048C133.181 39.3048 134.446 38.5164 135.783 37.2617L139 40.4874C137.121 42.5306 134.952 44 131.084 44C125.265 44 121 39.5558 121 34.0718Z" fill="white"/>
<path fill-rule="evenodd" clip-rule="evenodd" d="M152.034 36.7887V35.8107C151.138 35.3759 149.965 35.0859 148.689 35.0859C146.448 35.0859 145.068 36.0281 145.068 37.7671V37.8397C145.068 39.3251 146.241 40.1946 147.931 40.1946C150.379 40.1946 152.034 38.7814 152.034 36.7887ZM140 38.0581V37.9855C140 33.7463 143.069 31.7899 147.448 31.7899C149.31 31.7899 150.655 32.1162 151.966 32.5868V32.2609C151.966 29.9782 150.621 28.7102 148 28.7102C146 28.7102 144.587 29.1087 142.896 29.7608L141.586 25.558C143.621 24.6158 145.621 24 148.759 24C151.621 24 153.69 24.7973 155 26.1738C156.38 27.6233 157 29.7608 157 32.3694V43.6374H151.931V41.5362C150.655 43.0216 148.897 44 146.345 44C142.862 44 140 41.8984 140 38.0581Z" fill="white"/>
<path fill-rule="evenodd" clip-rule="evenodd" d="M173.672 32.8982V32.8279C173.672 30.2502 171.647 28.4492 169.019 28.4492C166.39 28.4492 164.4 30.2502 164.4 32.8279V32.8982C164.4 35.5117 166.39 37.2769 169.019 37.2769C171.647 37.2769 173.672 35.4763 173.672 32.8982ZM159.959 47.0225L161.806 42.9972C163.76 44.0919 165.714 44.7275 168.236 44.7275C171.931 44.7275 173.671 42.9619 173.671 39.5721V38.654C172.072 40.5607 170.332 41.7261 167.455 41.7261C163.014 41.7261 159 38.5124 159 32.898V32.8277C159 27.1779 163.085 24 167.455 24C170.403 24 172.144 25.2358 173.6 26.8249V24.353H179V39.0073C179 42.397 178.183 44.8686 176.584 46.4577C174.808 48.2229 172.072 49 168.378 49C165.288 49 162.375 48.2937 159.959 47.0225Z" fill="white"/>
<path fill-rule="evenodd" clip-rule="evenodd" d="M196.569 34.0718V34C196.569 31.1685 194.506 28.6952 191.465 28.6952C188.315 28.6952 186.432 31.0966 186.432 33.9286V34C186.432 36.8316 188.496 39.3048 191.537 39.3048C194.687 39.3048 196.569 36.9034 196.569 34.0718ZM181 34.0718V34C181 28.4801 185.49 24 191.536 24C197.546 24 202 28.4083 202 33.9286V34C202 39.5199 197.51 44 191.464 44C185.453 44 181 39.5917 181 34.0718Z" fill="white"/>
<path fill-rule="evenodd" clip-rule="evenodd" d="M249.654 32.4592C249.329 30.0223 247.885 28.373 245.573 28.373C243.297 28.373 241.816 29.9859 241.383 32.4592H249.654ZM236 34.0719V34C236 28.5161 239.937 24 245.572 24C252.038 24 255 28.9816 255 34.4304C255 34.8603 254.964 35.3622 254.928 35.864H241.454C241.996 38.3369 243.73 39.6276 246.186 39.6276C248.029 39.6276 249.365 39.0539 250.882 37.6558L254.024 40.4161C252.219 42.6382 249.618 44 246.114 44C240.299 44 236 39.9502 236 34.0719Z" fill="white"/>
<path fill-rule="evenodd" clip-rule="evenodd" d="M270.672 33.2685V33.1984C270.672 30.0711 268.577 27.998 266.054 27.998C263.532 27.998 261.4 30.0359 261.4 33.1984V33.2685C261.4 36.3955 263.532 38.4685 266.054 38.4685C268.577 38.4685 270.672 36.3955 270.672 33.2685ZM256 33.2677V33.1976C256 26.9081 260.157 23.4649 264.668 23.4649C267.545 23.4649 269.322 24.765 270.6 26.2756V17H276V42.649H270.6V39.9431C269.286 41.7003 267.475 43 264.668 43C260.227 43 256 39.5572 256 33.2677Z" fill="white"/>
<path fill-rule="evenodd" clip-rule="evenodd" d="M278.15 43.0007H283.85V23.9102H278.15V43.0007ZM278 21.8081H284V17H278V21.8081Z" fill="white"/>
<path fill-rule="evenodd" clip-rule="evenodd" d="M285 34.0719V34C285 28.5161 289.229 24 295.157 24C298.807 24 301.084 25.2185 302.891 27.2258L299.53 30.8101C298.301 29.5198 297.072 28.6954 295.12 28.6954C292.374 28.6954 290.422 31.0968 290.422 33.9285V34C290.422 36.9388 292.337 39.3046 295.337 39.3046C297.181 39.3046 298.446 38.5161 299.783 37.2617L303 40.4875C301.12 42.5304 298.952 44 295.084 44C289.265 44 285 39.5553 285 34.0719Z" fill="white"/>
<path fill-rule="evenodd" clip-rule="evenodd" d="M304.15 43.0007H309.85V23.9102H304.15V43.0007ZM304 21.8081H310V17H304V21.8081Z" fill="white"/>
<path fill-rule="evenodd" clip-rule="evenodd" d="M313 24.3481H318.263V26.9927C319.475 25.4264 321.033 24 323.699 24C327.68 24 330 26.6446 330 30.9246V43H324.737V32.5951C324.737 30.0897 323.561 28.802 321.552 28.802C319.544 28.802 318.263 30.0897 318.263 32.5951V43H313V24.3481Z" fill="white"/>
<path fill-rule="evenodd" clip-rule="evenodd" d="M344.654 32.4592C344.329 30.0219 342.884 28.373 340.573 28.373C338.297 28.373 336.816 29.9859 336.383 32.4592H344.654ZM331 34.0719V34C331 28.5161 334.938 24 340.572 24C347.038 24 350 28.9816 350 34.43C350 34.8603 349.963 35.3622 349.928 35.864H336.454C336.997 38.3369 338.73 39.6272 341.187 39.6272C343.028 39.6272 344.365 39.0535 345.882 37.6558L349.024 40.4161C347.219 42.6382 344.618 44 341.114 44C335.299 44 331 39.9502 331 34.0719Z" fill="white"/>
<path fill-rule="evenodd" clip-rule="evenodd" d="M206 18H212.025L220.5 28.5717L228.975 18H235V43H229.447V26.6786L220.5 37.357H220.355L211.48 26.7856V43H206V18Z" fill="white"/>
<path fill-rule="evenodd" clip-rule="evenodd" d="M51.6037 5.67562L50.4757 3.09961L49.3477 5.67562H51.6037ZM49.6388 1H51.3612L55 9H53.0472L52.2709 7.21836H48.6806L47.9043 9H46L49.6388 1Z" fill="white"/>
<path fill-rule="evenodd" clip-rule="evenodd" d="M58.5707 2.62255H56V1H63V2.62255H60.4289V9H58.5707V2.62255Z" fill="white"/>
<path fill-rule="evenodd" clip-rule="evenodd" d="M76.5708 2.62255H74V1H81V2.62255H78.4292V9H76.5708V2.62255Z" fill="white"/>
<path fill-rule="evenodd" clip-rule="evenodd" d="M84 1H85.8207V4.16548H89.179V1H91V9H89.179V5.78842H85.8207V9H84V1Z" fill="white"/>
<path fill-rule="evenodd" clip-rule="evenodd" d="M95 1H100.944V2.56579H96.7224V4.18834H100.437V5.75413H96.7224V7.43421H101V9H95V1Z" fill="white"/>
<path fill-rule="evenodd" clip-rule="evenodd" d="M112 1H118V2.5997H113.734V4.30263H117.494V5.90271H113.734V9H112V1Z" fill="white"/>
<path fill-rule="evenodd" clip-rule="evenodd" d="M127.052 5.52488V5.50002C127.052 4.0083 125.988 2.76562 124.488 2.76562C122.988 2.76562 121.947 3.98386 121.947 5.47516V5.50002C121.947 6.99173 123.012 8.23482 124.512 8.23482C126.011 8.23482 127.052 7.01659 127.052 5.52488ZM120 5.52486V5.5C120 3.02666 121.899 1 124.512 1C127.125 1 129 3.00138 129 5.47514V5.5C129 7.97376 127.101 10 124.488 10C121.875 10 120 7.99862 120 5.52486Z" fill="white"/>
<path fill-rule="evenodd" clip-rule="evenodd" d="M135.586 4.88476C136.454 4.88476 136.952 4.4276 136.952 3.75328V3.73042C136.952 2.9761 136.419 2.58789 135.552 2.58789H133.781V4.88476H135.586ZM132 1H135.702C136.732 1 137.531 1.28573 138.063 1.81147C138.514 2.2572 138.757 2.88542 138.757 3.63974V3.6626C138.757 4.95409 138.051 5.76556 137.021 6.14272L139 9H136.918L135.182 6.43988H133.782V9H132V1Z" fill="white"/>
<path fill-rule="evenodd" clip-rule="evenodd" d="M143 1H148.944V2.56579H144.722V4.18834H148.437V5.75413H144.722V7.43421H149V9H143V1Z" fill="white"/>
<path fill-rule="evenodd" clip-rule="evenodd" d="M153 1H159V2.5997H154.734V4.30263H158.493V5.90271H154.734V9H153V1Z" fill="white"/>
<path fill-rule="evenodd" clip-rule="evenodd" d="M165.586 4.88476C166.454 4.88476 166.951 4.4276 166.951 3.75328V3.73042C166.951 2.9761 166.419 2.58789 165.551 2.58789H163.781V4.88476H165.586ZM162 1H165.702C166.732 1 167.531 1.28573 168.063 1.81147C168.514 2.2572 168.757 2.88542 168.757 3.63974V3.6626C168.757 4.95409 168.051 5.76556 167.021 6.14272L169 9H166.917L165.182 6.43988H163.782V9H162V1Z" fill="white"/>
<path fill-rule="evenodd" clip-rule="evenodd" d="M179.052 5.52488V5.50002C179.052 4.0083 177.987 2.76562 176.488 2.76562C174.988 2.76562 173.947 3.98386 173.947 5.47516V5.50002C173.947 6.99173 175.011 8.23482 176.511 8.23482C178.012 8.23482 179.052 7.01659 179.052 5.52488ZM172 5.52486V5.5C172 3.02666 173.899 1 176.512 1C179.125 1 181 3.00138 181 5.47514V5.5C181 7.97376 179.101 10 176.488 10C173.875 10 172 7.99862 172 5.52486Z" fill="white"/>
<path fill-rule="evenodd" clip-rule="evenodd" d="M184 1H185.598L189.289 5.92557V1H191V9H189.526L185.711 3.91404V9H184V1Z" fill="white"/>
<path fill-rule="evenodd" clip-rule="evenodd" d="M197.571 2.62255H195V1H202V2.62255H199.429V9H197.571V2.62255Z" fill="white"/>
</svg>
