<svg width="222" height="32" viewBox="0 0 222 32" fill="none" xmlns="http://www.w3.org/2000/svg">
<mask id="mask0_326_4267" style="mask-type:luminance" maskUnits="userSpaceOnUse" x="0" y="0" width="25" height="32">
<path fill-rule="evenodd" clip-rule="evenodd" d="M0 0H24.1029V31.08H0V0Z" fill="white"/>
</mask>
<g mask="url(#mask0_326_4267)">
<path fill-rule="evenodd" clip-rule="evenodd" d="M18.5285 22.0012C18.4232 21.9488 18.3605 21.9176 18.2892 21.8822C18.235 22.0113 18.1913 22.1155 18.1476 22.2196C18.1593 22.2289 18.1711 22.2383 18.1829 22.2477C18.2864 22.174 18.3899 22.1 18.5285 22.0012ZM6.20614 20.419C6.09033 20.5221 5.97707 20.6062 5.88733 20.7108C5.84744 20.7574 5.81957 20.8699 5.84693 20.9104C5.99241 21.1262 6.15706 21.3286 6.31506 21.5358C6.32605 21.5237 6.3373 21.5118 6.34881 21.4999C6.30253 21.149 6.256 20.7985 6.20614 20.419ZM18.4769 20.9386C18.4427 21.1762 18.4064 21.3768 18.3872 21.5794C18.3754 21.7056 18.6408 21.8616 18.7423 21.7866C18.8681 21.6939 18.9788 21.5804 19.1082 21.4652C18.8898 21.2828 18.7017 21.126 18.4769 20.9386ZM3.90106 22.354C4.06417 22.9148 4.20146 23.4389 4.52079 23.9599C4.56247 23.8867 4.58778 23.8522 4.60363 23.8137C4.76112 23.4313 4.71459 23.0505 4.5865 22.6729C4.57499 22.6392 4.53153 22.6083 4.49574 22.5931C4.31063 22.5151 4.12349 22.4429 3.90106 22.354ZM4.05098 4.74718C4.49507 4.74718 4.49507 4.74718 4.49507 4.32543C4.49533 3.86796 4.49507 3.86796 4.04459 3.86796C3.61072 3.86796 3.61072 3.86796 3.61072 4.3001C3.61072 4.74718 3.61072 4.74718 4.05098 4.74718ZM20.6795 22.3788C20.4152 22.5579 20.1565 22.7321 19.8993 22.9089C19.8724 22.9277 19.841 22.9609 19.8379 22.9903C19.8057 23.3109 19.774 23.6319 19.7545 23.9533C19.7517 24.0042 19.8105 24.0584 19.8407 24.1111C19.8941 24.0736 19.9639 24.0478 19.9987 23.9969C20.3362 23.5035 20.5558 22.9581 20.6795 22.3788ZM4.48155 7.91538C4.48155 7.61902 4.48155 7.34089 4.48155 7.05593C4.18753 7.05593 3.90758 7.05593 3.62839 7.05593C3.62839 7.35153 3.62839 7.62966 3.62839 7.91538C3.91576 7.91538 4.18549 7.91538 4.48155 7.91538ZM11.6505 12.6637C11.4974 12.4127 11.2946 12.3179 10.9221 12.3253C10.692 12.3296 10.4622 12.3557 10.2321 12.3569C9.84525 12.359 9.72687 12.265 9.61412 11.8828C9.45996 11.9957 9.36587 12.1366 9.38505 12.3278C9.4032 12.5102 9.59367 12.7088 9.7982 12.7293C9.9966 12.7491 10.2024 12.7399 10.4003 12.7116C10.8124 12.652 11.2195 12.5307 11.6505 12.6637ZM2.51398 5.00134C2.96446 5.00261 3.27689 4.6837 3.27689 4.22218C3.27714 3.75991 2.96702 3.44125 2.51756 3.44201C2.06656 3.44277 1.75797 3.75737 1.75413 4.22016C1.7503 4.67813 2.064 5.00033 2.51398 5.00134ZM2.5088 8.18749C2.96184 8.18952 3.2735 7.87872 3.2781 7.42024C3.2827 6.95213 2.96619 6.62157 2.51391 6.62233C2.05422 6.62284 1.73029 6.9453 1.72927 7.40352C1.7285 7.86453 2.04732 8.18547 2.5088 8.18749ZM19.8622 3.75145C19.8622 4.16838 19.8707 4.55036 19.8589 4.93158C19.8528 5.1246 19.9274 5.18691 20.0936 5.12257C20.4894 4.96933 20.8882 4.82064 21.2722 4.63978C21.5936 4.4883 21.9032 4.33708 22.2711 4.49008C22.1824 3.95231 21.6979 3.6524 21.182 3.81097C20.8882 3.90115 20.5962 3.94168 20.2961 3.87759C20.1616 3.84871 20.0312 3.80135 19.8622 3.75145ZM19.8641 8.03755C19.8997 8.04261 19.9265 8.05097 19.9526 8.04894C20.0081 8.04489 20.0638 8.03729 20.1188 8.02767C20.579 7.94762 21.009 7.78374 21.4017 7.52917C21.6392 7.37541 21.8821 7.35464 22.1427 7.44279C22.1833 7.45647 22.227 7.46179 22.2766 7.47268C22.1761 6.95113 21.8683 6.69175 21.4181 6.74798C20.8991 6.81257 20.3819 6.89186 19.8485 6.71784C19.8485 7.13047 19.8483 7.52005 19.8493 7.90963C19.8493 7.95066 19.8585 7.9917 19.8641 8.03755ZM11.2584 22.114C11.2392 21.8045 11.1924 21.5003 11.2098 21.2001C11.2275 20.8987 11.2791 20.5914 11.3699 20.3044C11.5363 19.7783 11.7421 19.2654 11.9329 18.7471C11.971 18.6435 12.0147 18.5422 12.0788 18.3831C12.447 19.0997 12.5644 19.8275 12.6728 20.6137C12.9044 20.3009 13.1059 20.0286 13.3071 19.7563C13.3273 19.7619 13.3472 19.7674 13.3674 19.7727C13.4589 20.1421 13.5505 20.5111 13.6497 20.9108C14.0544 20.16 13.879 19.4498 13.629 18.7395C13.6492 18.7307 13.6691 18.7218 13.6893 18.7127C13.7895 18.8568 13.89 19.0007 13.9905 19.1448C14.0071 19.1397 14.024 19.1349 14.0408 19.1301C14.0408 19.0194 14.0513 18.9075 14.0385 18.7983C14.0107 18.5561 13.937 18.3388 13.768 18.146C13.6044 17.9596 13.5267 17.7223 13.5714 17.4548C13.6778 17.6275 13.7839 17.8005 13.8903 17.9735C13.9092 17.9664 13.9278 17.9593 13.9468 17.9523C13.9687 17.8008 13.9797 17.6463 14.0148 17.4978C14.1723 16.8296 13.9736 16.2898 13.4794 15.8336C13.2851 15.654 13.2104 15.4007 13.2401 15.1125C13.3383 15.2455 13.4362 15.3782 13.5638 15.5515C13.6607 15.0357 13.5114 14.6294 13.2905 14.2366C13.3101 14.2269 13.3301 14.2171 13.3498 14.2074C13.4745 14.3473 13.5993 14.4871 13.7394 14.6441C13.9028 14.2361 14.0283 13.8657 13.801 13.4511C13.971 13.5666 14.1111 13.6618 14.2513 13.7568C14.274 13.7358 14.297 13.7148 14.3198 13.6937C13.8038 13.3943 14.0567 12.8064 13.7854 12.4054C13.9682 12.4708 14.1344 12.5764 14.2855 12.3216C14.0245 12.3302 13.8862 12.1967 13.8614 11.988C13.8353 11.7686 13.7438 11.6194 13.539 11.5242C13.7113 11.4553 13.8731 11.4102 14.014 11.3284C14.1705 11.238 14.2234 11.0842 14.1723 10.8656C13.9971 11.0591 13.8138 11.1491 13.5781 11.0923C13.6356 10.988 13.6852 10.898 13.7348 10.8079C13.4283 10.8714 13.1654 10.8398 12.9077 10.7263C12.7477 10.6559 12.5866 10.587 12.4235 10.5242C12.1466 10.4178 11.8733 10.4279 11.6171 10.5855C11.4936 10.6617 11.3822 10.7577 11.2653 10.8448C11.2847 10.8897 11.2589 10.8631 11.2282 10.8545C11.1477 10.8317 11.0651 10.8167 10.9833 10.7985C10.98 10.8838 10.9598 10.9735 10.9782 11.0541C11.0002 11.1523 11.0546 11.243 11.1081 11.3669C10.7292 11.3879 10.8238 10.9973 10.6203 10.8849C10.3516 11.0156 10.1503 11.2139 10.0995 11.5247C10.069 11.7106 10.1596 11.8606 10.3153 11.971C10.5827 11.5379 10.8644 11.5404 11.1063 11.9563C11.1359 12.0072 11.2193 12.0316 11.2824 12.0559C11.443 12.1174 11.6639 12.1243 11.7562 12.2393C11.9505 12.4819 12.1806 12.6329 12.4503 12.7664C12.6825 12.8814 12.7242 13.1311 12.594 13.3358C12.5375 13.2712 12.4851 13.2059 12.4268 13.1463C12.1798 12.8928 11.918 12.8548 11.6064 13.007C11.4356 13.0906 11.2548 13.1532 11.0679 13.2294C11.1544 13.4265 11.3333 13.4432 11.5412 13.4103C11.7005 13.3852 11.859 13.4014 11.9362 13.5729C12.0139 13.7464 11.8966 13.85 11.7774 13.9463C11.7697 13.9526 11.7713 13.9706 11.7641 14.003C12.1172 14.1352 12.2657 13.8199 12.514 13.619C12.4981 14.3809 11.9224 14.3589 11.4341 14.4992C11.5264 14.5795 11.5941 14.6386 11.6631 14.6986C10.881 15.0028 10.5392 15.5198 10.7031 16.1842C10.857 16.0887 11.004 15.997 11.151 15.9056C11.1659 15.921 11.1807 15.9365 11.1955 15.9519C11.1587 16.0115 11.1278 16.076 11.084 16.13C10.8136 16.4636 10.6077 16.8316 10.5188 17.2572C10.4428 17.6209 10.4403 17.9786 10.6617 18.3568C10.7668 18.1901 10.8496 18.0584 10.9324 17.9267C10.956 17.9264 10.9792 17.9262 11.0025 17.9259C11.0145 18.0328 11.0572 18.1481 11.0311 18.2446C10.9953 18.3773 10.8928 18.49 10.846 18.6215C10.7742 18.8226 10.7026 19.0293 10.675 19.2393C10.6545 19.3933 10.7468 19.521 10.9565 19.563C11.0117 19.3768 11.0656 19.1947 11.1206 19.0085C11.3269 19.1909 11.328 19.3994 11.1664 19.5914C11.0746 19.7006 10.9802 19.8419 10.9659 19.9774C10.9294 20.3272 10.9071 20.6844 10.9345 21.0342C10.9639 21.4114 11.0741 21.7774 11.2584 22.114ZM4.87411 2.13224C4.86874 2.19404 4.85851 2.25585 4.85851 2.31765C4.85774 4.66754 4.85953 7.01769 4.85468 9.36758C4.85442 9.54464 4.90811 9.59504 5.0812 9.59656C5.8349 9.6034 6.56867 9.46282 7.30167 9.31058C7.86976 9.19255 8.43555 9.06387 9.00518 8.9552C9.93709 8.77814 10.8069 9.01853 11.6552 9.38556C11.7206 9.41393 11.7866 9.44129 11.873 9.47802C11.873 8.68999 11.873 7.93794 11.873 7.18563C11.873 5.5883 11.8697 3.99072 11.8779 2.39339C11.8789 2.21405 11.8203 2.11527 11.6662 2.05473C11.4841 1.98279 11.3075 1.89464 11.1216 1.83537C9.99589 1.47669 8.88246 1.57624 7.79025 1.97367C7.32672 2.14212 6.8563 2.21456 6.37206 2.20392C5.87786 2.19303 5.38416 2.15757 4.87411 2.13224ZM19.5386 9.64919C19.5386 7.12199 19.5386 4.6571 19.5386 2.19043C19.4919 2.18739 19.4637 2.18309 19.4361 2.18435C19.3806 2.18714 19.3249 2.19322 19.2692 2.19753C18.0448 2.29175 16.8426 2.20208 15.6714 1.79275C15.4111 1.70156 15.1284 1.6514 14.853 1.63469C14.006 1.58301 13.2078 1.81327 12.4234 2.11115C12.2646 2.17144 12.2217 2.2606 12.2219 2.42702C12.2276 4.69129 12.2258 6.95557 12.2263 9.21984C12.2263 9.2938 12.2327 9.36802 12.2373 9.46124C12.2956 9.43439 12.327 9.42197 12.3567 9.40576C13.1651 8.96426 14.0293 8.80417 14.9313 8.94754C16.0071 9.11852 17.0748 9.34117 18.1496 9.51798C18.6014 9.59219 19.0623 9.60613 19.5386 9.64919ZM5.27059 20.8071C5.29002 20.8218 5.30945 20.8368 5.32914 20.8517C5.58097 20.5992 5.83945 20.353 6.08055 20.0903C6.14804 20.0166 6.17693 19.897 6.2002 19.7929C6.2452 19.59 6.27383 19.3831 6.31806 19.1282C6.46072 19.2389 6.56734 19.3215 6.69415 19.4198C7.07202 18.8334 7.44606 18.2531 7.82036 17.6728C7.83877 17.6834 7.85743 17.694 7.87584 17.7044C7.86562 17.7503 7.86152 17.7984 7.84414 17.841C7.60944 18.4119 7.35735 18.9727 6.95135 19.4461C6.90968 19.4948 6.85343 19.5814 6.8703 19.6219C6.958 19.8322 7.06717 20.033 7.17736 20.2537C7.68818 19.5784 8.11182 18.8729 8.69142 18.2908C8.71187 18.3326 8.71315 18.3607 8.7042 18.3848C8.67659 18.4575 8.64566 18.5289 8.61523 18.6004C8.32863 19.2724 7.89655 19.8469 7.44402 20.4084C7.39365 20.4712 7.31695 20.566 7.33306 20.6212C7.4026 20.8583 7.50257 21.0858 7.59154 21.317C7.64753 20.5617 7.86229 20.0941 8.32326 19.8213C8.32045 20.3773 8.74128 20.6283 9.06674 20.9763C9.18537 20.5092 9.10407 20.1382 8.8461 19.8076C8.75278 19.688 8.66918 19.553 8.61549 19.4117C8.57023 19.2924 8.62904 19.2083 8.77733 19.222C9.40269 19.2795 9.92962 19.5191 10.2648 20.0824C10.3975 20.3056 10.4898 20.5536 10.6013 20.7899C10.6368 20.8654 10.6751 20.9396 10.7122 21.0146C10.6595 20.6283 10.6094 20.26 10.7301 19.8861C10.7447 19.8413 10.6907 19.7597 10.6493 19.7126C10.4872 19.5297 10.3786 19.3167 10.4098 19.075C10.4532 18.7399 10.386 18.4512 10.2656 18.1323C10.0649 17.6018 10.1758 17.0567 10.4179 16.5451C10.4479 16.4817 10.4852 16.3883 10.4606 16.3379C10.3397 16.0881 10.3446 15.8376 10.4494 15.5957C10.6406 15.1547 10.362 14.547 10.0401 14.3322C9.64174 14.067 9.2094 13.8329 9.07134 13.2909C8.95118 13.5285 8.84738 13.7534 8.78448 13.9892C8.71315 14.257 8.77707 14.3748 9.00819 14.524C9.07901 14.5695 9.15546 14.6065 9.22219 14.6579C9.31474 14.7291 9.37942 15.0285 9.30911 15.1086C9.18946 15.2446 9.07134 15.1319 8.9793 15.0635C8.76761 14.9064 8.54799 14.889 8.30357 14.9558C8.0952 15.0128 7.88351 15.0703 7.67003 15.0893C7.56981 15.0982 7.40746 15.044 7.37039 14.9693C7.3213 14.8695 7.33511 14.7089 7.37908 14.5974C7.44019 14.4424 7.44607 14.3135 7.35019 14.1817C7.21239 13.9928 7.18068 13.7488 7.30749 13.5943C7.43482 13.4391 7.57901 13.2911 7.74008 13.1749C7.79352 13.1364 7.92416 13.1984 8.01646 13.2263C8.34269 13.3246 8.537 13.2227 8.64157 12.8891C8.57995 12.8765 8.51808 12.8668 8.45749 12.8509C8.14838 12.7698 8.11412 12.6824 8.12333 12.3569C8.13176 12.0631 8.11898 11.7579 8.0474 11.4755C7.94232 11.059 7.59538 10.8627 7.1748 10.9288C7.03086 10.9514 6.88973 10.9972 6.74963 11.0408C6.50291 11.118 6.2613 11.2156 6.01126 11.2789C5.69679 11.3587 5.37567 11.4149 5.15222 11.0671C4.97351 11.4471 5.07731 11.6219 5.4695 11.6355C5.5802 11.6393 5.69142 11.6363 5.80212 11.6363C5.80391 11.6588 5.8057 11.6816 5.80749 11.7042C5.70292 11.7313 5.59785 11.7561 5.49404 11.786C5.35905 11.8245 5.20846 11.8397 5.09341 11.9119C3.9222 12.647 2.75687 13.3914 1.59026 14.1336C1.53938 14.1658 1.4908 14.2018 1.398 14.2656C2.33988 14.5366 3.09614 14.1207 3.88513 13.7757C3.85419 13.915 3.82224 14.0515 3.74068 14.1425C3.55813 14.3456 3.37201 14.5587 3.14932 14.7094C2.62673 15.063 2.08267 15.3837 1.54552 15.715C1.40976 15.7986 1.26761 15.8713 1.09094 15.9701C1.99882 16.235 2.72184 15.8452 3.45919 15.4657C2.74536 16.3992 1.81678 17.1076 1.0168 17.9853C1.29982 18.0641 1.52737 17.9899 1.72525 17.8612C1.98296 17.6935 2.23122 17.5053 2.46004 17.2991C2.71545 17.0689 2.94197 16.8057 3.1869 16.563C3.25849 16.4919 3.34976 16.4412 3.43183 16.3809C3.44973 16.3994 3.46762 16.4182 3.48552 16.4369C3.45714 16.4957 3.43694 16.561 3.39859 16.6127C2.86041 17.3404 2.46439 18.1464 2.18187 19.0044C2.01441 19.513 1.90703 20.0429 1.79249 20.568C1.74826 20.7714 1.75056 20.9895 1.9326 21.2068C2.50836 19.7977 3.0716 18.419 3.63483 17.0405C3.65656 17.0486 3.67829 17.0567 3.70003 17.0646C3.64352 17.8382 3.57501 18.611 3.53333 19.3853C3.49089 20.1726 3.57143 20.9508 3.75551 21.7005C3.93831 21.6521 4.1004 21.6091 4.27349 21.563C4.25227 21.5199 4.24153 21.4766 4.21545 21.448C3.97231 21.1828 3.95595 20.8631 3.99635 20.5295C4.01169 20.4026 4.0347 20.277 4.04876 20.1501C4.07611 19.8998 4.05898 19.669 3.81508 19.5153C3.76701 19.4851 3.72431 19.3912 3.73403 19.3367C3.74247 19.2886 3.82479 19.2496 3.88027 19.2164C3.91504 19.1956 3.96055 19.1832 4.00095 19.1842C4.18937 19.1888 4.21136 19.07 4.23948 18.9134C4.3057 18.5449 4.39544 18.1804 4.48544 17.8169C4.50487 17.7384 4.5652 17.6702 4.60688 17.5973C4.62503 17.6041 4.64293 17.6112 4.66108 17.618C4.65622 17.7059 4.65878 17.7949 4.64497 17.8812C4.58847 18.231 4.522 18.5793 4.47163 18.9302C4.46064 19.0061 4.50078 19.0895 4.5174 19.1693C5.04356 18.512 5.40584 17.7878 5.9499 17.1915C5.94044 17.3113 5.90592 17.4164 5.86553 17.519C5.6298 18.1176 5.27391 18.6434 4.90805 19.1645C4.86945 19.2194 4.84414 19.3294 4.87252 19.3788C4.95101 19.5158 5.0612 19.6341 5.1627 19.7653C5.69091 19.1067 6.21221 18.4565 6.73403 17.8062C6.75781 17.823 6.78159 17.8394 6.80536 17.8559C6.77008 17.9354 6.73838 18.0175 6.69824 18.0945C6.3334 18.7954 5.88061 19.4314 5.33988 20.0037C5.28568 20.0612 5.22687 20.1455 5.22662 20.2174C5.22508 20.414 5.25397 20.6106 5.27059 20.8071ZM14.6942 24.1474C14.81 23.9876 14.8706 23.8409 14.9793 23.7652C15.3244 23.5236 15.5282 23.1877 15.6791 22.8054C15.7519 22.6213 15.8238 22.4361 15.9104 22.2583C16.0549 21.9612 16.2694 21.7363 16.5918 21.6359C16.6133 21.6294 16.6299 21.6068 16.6595 21.5827C16.2702 21.4979 16.0104 21.7618 15.7005 21.9019C16.0776 21.3325 15.8133 20.7608 15.7678 20.1711C15.5937 20.2734 15.5042 20.4079 15.4847 20.585C15.4364 21.025 15.2787 21.4184 15.0407 21.7884C14.9617 21.9113 14.9087 22.0772 14.9095 22.2231C14.9123 22.9344 14.4442 23.368 14.0369 23.8767C13.9211 23.4757 14.054 23.1365 14.4069 22.8574C14.7016 22.6238 14.7328 22.4478 14.5301 22.1152C14.4063 22.461 14.2726 22.792 13.8035 22.8546C13.9461 22.5901 14.0719 22.371 14.1839 22.1451C14.4273 21.6547 14.5301 21.1605 14.1734 20.6597C13.9193 20.9351 13.8147 21.274 13.7708 21.638C13.7245 22.0164 13.6358 22.3834 13.399 22.6864C13.1321 23.0278 12.9733 23.4162 12.8529 23.8268C12.8363 23.8835 12.8115 23.9377 12.7688 24.0497C12.7598 23.9529 12.757 23.92 12.7537 23.8868C12.7044 23.3868 12.8685 22.9567 13.1528 22.5562C13.3921 22.2188 13.5335 21.8376 13.4637 21.4156C13.408 21.0756 13.3139 20.7425 13.229 20.3732C12.7095 20.7588 12.5044 21.277 12.3623 21.8502C12.3232 21.5404 12.2705 21.2238 12.3349 20.934C12.4523 20.4054 12.3843 19.9064 12.2388 19.4043C12.2127 19.3144 12.1736 19.2283 12.1235 19.0953C11.3186 20.5027 11.4122 21.9184 11.8325 23.3612C11.5155 23.0045 11.2105 22.6486 10.9206 22.2811C10.8495 22.1912 10.825 22.0625 10.7833 21.95C10.6289 21.5331 10.5161 21.0941 10.3111 20.7051C10.1303 20.3616 9.86339 20.0591 9.60389 19.7668C9.44716 19.59 9.22396 19.4862 8.96369 19.471C9.32572 20.0563 9.32623 20.0563 9.35589 20.7311C9.35921 20.8089 9.36075 20.8884 9.34847 20.9647C9.23035 21.6815 9.49497 22.2527 10.027 22.695C10.3829 22.9906 10.7817 23.2323 11.1517 23.5111C11.3299 23.6451 11.4991 23.7974 11.6479 23.9638C11.75 24.0783 11.8203 24.2293 11.7362 24.4263C11.4069 23.9197 10.9341 23.6327 10.4514 23.3543C10.0812 23.1411 9.71817 22.9151 9.35512 22.6897C8.97597 22.4536 8.77552 22.1461 8.87856 21.6592C8.92713 21.4287 8.92611 21.1575 8.73947 20.9556C8.55284 20.7539 8.35674 20.5617 8.154 20.3542C8.13635 20.3755 8.07908 20.4363 8.0323 20.5044C7.80782 20.8302 7.84873 21.1861 7.9083 21.5503C7.94614 21.7811 7.94818 22.0182 7.96634 22.2525C7.94409 22.2583 7.92159 22.2641 7.89909 22.27C7.85742 22.237 7.80654 22.2109 7.7751 22.1697C7.43352 21.7203 7.08019 21.278 6.96719 20.6977C6.93318 20.5242 6.89177 20.3494 6.82759 20.1858C6.74987 19.9869 6.64428 19.7992 6.53639 19.5771C6.49855 19.6435 6.48142 19.6604 6.47963 19.6787C6.42287 20.314 6.41904 20.9429 6.72763 21.5268C6.78106 21.6281 6.801 21.7274 6.70334 21.7872C6.63431 21.8292 6.52258 21.8497 6.44895 21.8239C6.14982 21.7193 5.91409 21.5217 5.73973 21.2522C5.68476 21.1668 5.63593 21.0769 5.57968 20.9817C5.33782 21.2046 5.3639 21.4589 5.42628 21.7325C5.33859 21.677 5.24322 21.6248 5.20538 21.5448C5.11871 21.3624 5.03332 21.1711 4.99599 20.9743C4.93182 20.6339 4.92517 20.282 4.8564 19.9429C4.7843 19.5875 4.54934 19.4294 4.18041 19.451C4.37523 19.7407 4.34634 20.0528 4.27501 20.3573C4.16022 20.8472 4.32308 21.235 4.65979 21.5696C4.78098 21.6899 4.9106 21.8013 5.05377 21.9328C4.32512 21.7993 4.13465 21.8249 3.95645 22.0878C4.08914 22.1387 4.21672 22.1917 4.3466 22.237C5.41529 22.6096 6.5167 22.8323 7.63755 22.96C7.91699 22.9916 8.13124 23.133 8.34907 23.329C8.01977 23.309 7.72856 23.2611 7.44222 23.2819C7.14922 23.3032 6.90327 23.4686 6.69056 23.6684C6.90685 23.8045 7.10295 23.925 7.29649 24.0499C7.54857 24.2125 7.81038 24.2531 8.09596 24.1464C8.28515 24.0758 8.47716 24.0051 8.67402 23.9651C9.68672 23.7586 10.6064 23.9215 11.3613 24.6979C11.3861 24.7235 11.4048 24.7554 11.4263 24.7845C11.3217 24.7868 11.2396 24.7554 11.1568 24.7257C10.8541 24.6171 10.557 24.4874 10.2474 24.4053C9.68238 24.2556 9.13141 24.2797 8.6032 24.5836C8.44648 24.6736 8.24578 24.7121 8.06272 24.7219C7.45756 24.7544 6.93293 24.5038 6.43105 24.1943C6.36995 24.1566 6.31012 24.1165 6.24953 24.0778C6.25567 24.1804 6.29197 24.246 6.33415 24.3075C6.67266 24.7992 7.12826 25.1569 7.61403 25.4874C8.07934 25.8043 8.52676 25.8438 9.02301 25.55C9.32802 25.3696 9.66192 25.2207 10.0009 25.1227C10.7275 24.9124 11.5017 25.2653 11.773 25.8957C11.8167 25.9973 11.8277 26.1133 11.854 26.2228C11.8366 26.2334 11.819 26.2438 11.8013 26.2544C11.5058 25.8702 11.1872 25.5125 10.6631 25.5269C10.1479 25.5414 9.82811 25.8788 9.52923 26.2645C9.56068 26.2775 9.56758 26.283 9.57346 26.2823C9.60082 26.278 9.62817 26.2732 9.65476 26.2661C10.2898 26.0905 10.8996 26.1865 11.4984 26.4335C11.6421 26.4928 11.6681 26.571 11.5756 26.6881C11.4184 26.8874 11.2616 27.0878 11.0934 27.2775C10.6708 27.7537 10.2801 27.717 9.90481 27.2025C9.77595 27.0262 9.60363 26.859 9.41469 26.7565C8.91921 26.4864 8.37361 26.491 7.78967 26.5237C8.01491 26.6833 8.22098 26.8023 8.39535 26.9581C8.79393 27.3137 9.18357 27.681 9.56426 28.0564C9.8345 28.3224 10.1387 28.3999 10.4862 28.276C10.6493 28.2178 10.8155 28.1433 10.9513 28.0377C11.2558 27.8013 11.5418 27.5402 11.8364 27.2902C11.9131 27.2251 11.9931 27.164 12.0355 27.1303C12.1902 27.4634 12.3367 27.7778 12.4822 28.0929C12.5085 28.1504 12.5382 28.2079 12.5543 28.2687C12.6205 28.5149 12.5318 28.6453 12.2823 28.6436C12.1061 28.6423 11.9302 28.6101 11.7543 28.5916C11.7423 28.6056 11.7305 28.6192 11.7185 28.6332C11.9228 28.8092 12.1127 29.0076 12.3352 29.1552C12.6024 29.3328 12.8782 29.2718 13.0912 29.039C13.3047 28.8057 13.3218 28.5772 13.1257 28.2869C13.0073 28.1119 12.8647 27.9538 12.7363 27.7859C12.5418 27.5313 12.5113 27.3079 12.6453 27.1473C12.7591 27.011 12.9278 27.0146 13.2185 27.1853C13.5089 27.3555 13.7861 27.549 14.0776 27.717C14.2021 27.7889 14.3447 27.8457 14.4856 27.8687C14.9888 27.9515 15.3863 27.7659 15.6875 27.3494C15.8504 27.124 16.0014 26.8806 16.3062 26.8112C15.8861 26.3727 15.2984 26.3575 14.8939 26.7623C14.6684 26.9882 14.4115 27.0397 14.1266 26.9067C13.9942 26.8451 13.8503 26.7803 13.7526 26.6769C13.5143 26.4246 13.2374 26.3281 12.903 26.3775C12.8959 26.3785 12.8859 26.3593 12.8772 26.3494C13.0193 26.0913 13.3374 25.9722 13.6646 25.9958C14.108 26.0275 14.5562 26.0528 14.9987 26.0231C16.0554 25.9525 16.8411 25.4023 17.4268 24.4947C17.3325 24.5401 17.2517 24.5755 17.1739 24.6168C16.8953 24.7647 16.6099 24.9015 16.3415 25.0667C15.6665 25.4821 15.022 25.4286 14.3659 24.9448C14.4434 24.8929 14.5078 24.8212 14.5853 24.8022C15.193 24.6528 15.687 24.2916 16.1814 23.9316C16.634 23.6023 17.1126 23.3227 17.6592 23.1978C18.0332 23.1124 18.4155 23.0615 18.7956 23.0068C19.4852 22.9068 20.1136 22.6927 20.5695 22.1124C20.72 21.9207 20.8957 21.7492 21.0621 21.5663C20.8589 21.4189 20.7052 21.7963 20.4674 21.6727C20.7188 21.2854 20.8806 20.8857 20.9118 20.4325C20.92 20.3165 21.0148 20.2043 21.0787 20.0959C21.1207 20.0249 21.179 19.9639 21.2398 19.8854C21.1976 19.8806 21.1749 19.8704 21.1593 19.8773C20.6589 20.0956 20.1732 20.3461 19.9121 20.8639C19.4476 21.7856 18.6824 22.3505 17.7875 22.7723C17.6579 22.8333 17.528 22.8938 17.3984 22.9546C17.3833 22.9417 17.3685 22.9285 17.3537 22.9154C18.0281 22.2682 18.1818 21.4652 18.1104 20.5283C17.8486 20.7544 17.739 20.9888 17.6697 21.2557C17.559 21.6838 17.4388 22.1372 17.0931 22.4169C16.5361 22.868 16.017 23.3579 15.4896 23.8409C15.293 24.0208 15.0453 24.1279 14.6942 24.1474ZM17.4078 21.1236C17.5262 20.8706 17.6297 20.6492 17.7366 20.4204C17.3413 20.1147 17.1138 19.7026 16.9665 19.2327C17.0882 19.2806 17.1856 19.347 17.2659 19.4305C17.4855 19.659 17.6952 19.8974 17.9153 20.1254C17.9552 20.1666 18.0316 20.2051 18.0828 20.1963C18.3515 20.1494 18.4054 20.1851 18.4635 20.461C18.4829 20.5537 18.5023 20.6689 18.5647 20.7254C18.7721 20.9136 18.9986 21.0798 19.2463 21.2771C19.3647 21.1021 19.4836 20.9463 19.5769 20.7761C19.6043 20.7264 19.5853 20.6112 19.5444 20.5684C19.3258 20.3391 19.0998 20.1162 18.8646 19.9045C18.3477 19.4394 17.9695 18.8753 17.6883 18.24C17.6558 18.1668 17.6379 18.087 17.6131 18.01C17.6277 18.0001 17.6425 17.99 17.6571 17.9801C17.7328 18.048 17.8174 18.108 17.8826 18.1851C18.4062 18.8044 18.9252 19.4278 19.4486 20.0473C19.5304 20.1443 19.626 20.2292 19.7152 20.3199C19.7369 20.3108 19.7587 20.3019 19.7807 20.293C19.8016 20.019 19.8333 19.7454 19.8379 19.4711C19.839 19.389 19.7853 19.2788 19.7211 19.2271C19.1361 18.7555 18.7516 18.1349 18.4259 17.4682C18.4003 17.4155 18.3903 17.355 18.3732 17.298C18.3947 17.2828 18.4164 17.2676 18.4379 17.2521C18.6665 17.5138 18.8989 17.7719 19.1223 18.0376C19.3437 18.3013 19.5562 18.5726 19.7727 18.8406C19.7858 18.8322 19.7991 18.8239 19.8124 18.8158C19.7214 18.1065 19.6306 17.3978 19.5396 16.6885C19.5738 16.6835 19.6083 16.6784 19.6424 16.6733C20.0714 17.7463 20.2618 18.8685 20.2419 20.0106C20.5776 19.8523 20.9056 19.7039 21.226 19.5402C21.2745 19.5157 21.3193 19.4194 21.3144 19.3606C21.2868 19.0359 21.2584 18.7101 21.2022 18.3895C21.0268 17.3856 20.6852 16.4324 20.314 15.4894C20.279 15.4002 20.2531 15.3078 20.223 15.2168C20.3217 15.2703 20.3966 15.3377 20.4357 15.4223C20.652 15.8894 20.9179 16.3433 21.0587 16.8337C21.3888 17.9834 21.6573 19.1514 21.9523 20.3115C22.0165 20.5638 22.0876 20.8141 22.1556 21.0651C22.1768 21.0692 22.1977 21.0732 22.2187 21.0773C22.266 20.9663 22.3412 20.8589 22.3555 20.7437C22.4069 20.3293 22.4521 19.9131 22.4734 19.4961C22.5263 18.4492 22.377 17.4449 21.8329 16.5279C21.3967 15.7926 20.9665 15.0535 20.5346 14.3153C20.4728 14.2095 20.4173 14.0998 20.3587 13.9919C20.3743 13.9744 20.3899 13.9569 20.4053 13.9392C20.4751 13.9833 20.5594 14.0144 20.6111 14.0745C20.7254 14.2077 20.8286 14.3518 20.9268 14.498C21.1945 14.8962 21.4359 15.3151 21.7276 15.6938C22.0927 16.167 22.6377 16.3418 23.1902 16.4983C23.1723 16.4145 23.1452 16.3428 23.101 16.2843C22.7132 15.7736 22.3373 15.2528 21.9283 14.7601C21.6046 14.3701 21.2372 14.018 20.8946 13.6438C20.8092 13.5506 20.7453 13.4369 20.6717 13.3325C20.6883 13.3173 20.7046 13.3024 20.721 13.2869C21.3067 13.7829 21.8357 14.3622 22.5598 14.6527C22.5761 14.6327 22.5925 14.613 22.6089 14.5932C21.918 13.9275 21.227 13.2621 20.5362 12.5964C20.5592 12.5716 20.5824 12.5465 20.6054 12.5217C20.6481 12.5027 20.6911 12.4837 20.7588 12.4538C20.3091 12.0708 19.8004 11.8791 19.2105 11.7322C19.4169 11.5779 19.681 11.6752 19.7331 11.4763C19.423 11.3829 19.1264 11.2945 18.8304 11.2038C18.5831 11.1285 18.3392 11.0399 18.0894 10.9763C17.8074 10.9046 17.5211 10.8887 17.2483 11.0232C17.0399 11.1263 16.8425 11.2676 16.5889 11.1714C16.5562 11.1589 16.5048 11.1784 16.4685 11.1964C16.1648 11.3454 15.9679 11.5997 15.8301 11.9006C15.7999 11.966 15.814 12.0751 15.848 12.1435C15.9485 12.3449 15.8817 12.4954 15.7196 12.601C15.5565 12.7074 15.3778 12.7912 15.1996 12.8708C15.0823 12.9232 15.0061 12.9878 15.0071 13.0744C15.2178 13.0916 15.4149 13.0747 15.5903 13.1291C15.9255 13.2337 16.0395 13.2234 16.2819 12.967C16.3632 12.8809 16.4457 12.7963 16.5572 12.6805C16.5316 13.0217 16.5316 13.0217 16.648 13.081C16.9295 13.2239 16.9399 13.3774 16.7298 13.6241C16.6012 13.7753 16.4741 13.9554 16.4255 14.1439C16.2842 14.6902 15.9873 14.9271 15.431 14.8881C15.2692 14.8767 15.2382 14.7994 15.2871 14.6641C15.3351 14.5312 15.4054 14.4048 15.4387 14.2685C15.5133 13.9617 15.3116 13.7138 14.9854 13.7079C15.0089 13.7776 15.0342 13.8417 15.0524 13.9083C15.0991 14.0795 15.081 14.2538 14.9332 14.3508C14.6993 14.5043 14.5916 14.7267 14.497 14.9757C14.4119 15.2009 14.2882 15.247 14.0629 15.1862C14.0126 15.1723 13.9619 15.1596 13.9054 15.1447C13.8778 15.3004 13.8686 15.4448 13.8244 15.5773C13.7794 15.7121 13.8093 15.7931 13.9098 15.8878C14.1688 16.133 14.3388 16.4332 14.3431 16.8023C14.3454 16.9925 14.3183 17.184 14.2961 17.3737C14.2465 17.7957 14.1877 18.2114 14.3237 18.6359C14.414 18.9184 14.3797 19.2109 14.1954 19.4685C14.1591 19.5192 14.1447 19.5997 14.1486 19.6648C14.1703 20.0098 14.2434 20.3445 14.4554 20.6223C14.6152 20.8321 14.6724 21.0557 14.6625 21.3156C14.6561 21.4856 14.6891 21.6571 14.7044 21.8281C14.8269 21.6827 14.8818 21.5261 14.9746 21.3974C15.1687 21.1277 15.2433 20.8245 15.2692 20.5018C15.2945 20.1834 15.6263 19.8442 15.9436 19.8115C16.0231 20.3181 16.1026 20.8247 16.1765 21.2961C16.3926 21.2961 16.5874 21.2949 16.7819 21.2964C16.964 21.2976 17.0675 21.4142 17.1146 21.5712C17.1642 21.7379 16.9906 21.7257 16.9116 21.788C16.8786 21.8141 16.8397 21.8321 16.8042 21.8544C16.3959 22.1118 16.1525 22.4922 16.0098 22.9522C16.321 22.7204 16.6076 22.4636 16.9057 22.2212C17.1243 22.0434 17.2411 21.8134 17.3173 21.5474C17.3523 21.4253 17.3275 21.3579 17.2278 21.2804C17.0348 21.1297 16.8397 20.9747 16.6781 20.792C16.5731 20.6735 16.5258 20.5025 16.4526 20.3551C16.4813 20.3356 16.5102 20.3158 16.5388 20.2963C16.8249 20.5686 17.111 20.8412 17.4078 21.1236ZM-0.00830406 9.44215C-0.00830406 6.58768 -0.00600306 3.73321 -0.0134174 0.878745C-0.0139287 0.662678 0.0456418 0.586434 0.257079 0.569209C1.43417 0.473461 2.60922 0.346556 3.78708 0.265753C6.80804 0.0588042 9.83412 -0.041757 12.861 0.0162493C15.3054 0.0631103 17.7496 0.178616 20.1922 0.296656C21.4269 0.356435 22.6581 0.493472 23.8915 0.584154C24.0735 0.597579 24.1047 0.669264 24.1029 0.832391C24.0953 1.49984 24.0996 2.1673 24.0996 2.83475C24.0996 7.74122 24.1055 12.648 24.096 17.5544C24.0935 18.9283 23.8061 20.2617 23.3952 21.5635C22.0266 25.9002 19.1292 28.736 14.9715 30.291C14.0907 30.6203 13.1637 30.8267 12.2489 31.0532C12.0116 31.112 11.7342 31.0643 11.4868 31.0111C8.57317 30.3842 6.0032 29.0833 3.8873 26.9307C2.03882 25.0502 0.90673 22.7697 0.337103 20.19C0.103934 19.1345 -0.0236441 18.0702 -0.0146957 16.983C0.00524631 14.4695 -0.00830406 11.9557 -0.00830406 9.44215V9.44215Z" fill="#78180E"/>
</g>
<path fill-rule="evenodd" clip-rule="evenodd" d="M13.0178 5.49958C13.0408 5.88769 13.2641 6.17192 13.5048 6.17106C13.7129 6.17019 13.8539 5.98032 13.8742 5.6329C13.5912 5.58875 13.3081 5.5446 13.0178 5.49958ZM13.2373 5.39504C13.4427 5.34454 13.6046 5.29895 13.7677 5.26605C13.9019 5.23864 13.8989 5.13562 13.8508 4.9951C13.7348 4.65633 13.3859 4.56082 13.1655 4.83956C13.0851 4.94142 13.0573 5.13101 13.0054 5.28077C13.093 5.32376 13.1807 5.36705 13.2373 5.39504ZM13.9545 4.43945C13.9545 4.98714 13.9549 5.55011 13.9539 6.11338C13.9539 6.19158 13.947 6.27006 13.9454 6.30152C13.8413 6.30152 13.7529 6.28507 13.6685 6.30498C13.4294 6.36067 13.1992 6.37683 12.9773 6.1884C12.6789 5.93505 12.5925 5.39429 12.7992 4.98829C13.0243 4.54651 13.3491 4.45677 13.6988 4.4585C13.7758 4.45879 13.8529 4.44753 13.9545 4.43945V4.43945Z" fill="#78180E"/>
<path fill-rule="evenodd" clip-rule="evenodd" d="M13.7515 4.43997C13.5679 4.01016 13.403 3.6153 13.2304 3.22425C13.1222 2.97983 13.0233 2.71668 12.6855 2.70756C13.061 2.65691 13.4183 2.71035 13.8 2.79469C13.4545 2.95628 13.6291 3.16625 13.7128 3.36355C13.7535 3.45979 13.8007 3.55274 13.8952 3.65304C13.9621 3.41192 14.0518 3.17384 14.085 2.92766C14.0975 2.8342 13.9803 2.72149 13.9049 2.587C14.1048 2.57155 14.3236 2.55433 14.5424 2.53711C14.5577 2.56396 14.5732 2.59055 14.5884 2.61714C14.2307 2.70579 14.2297 3.02188 14.1407 3.28022C14.0108 3.65785 13.8862 4.03751 13.7515 4.43997" fill="#78180E"/>
<path fill-rule="evenodd" clip-rule="evenodd" d="M16.4949 7.26392C16.632 7.14 16.7213 7.05935 16.8149 6.97461C17.0126 7.09762 17.1236 7.23955 17.1031 7.47875C17.0856 7.68172 17.1155 7.88903 17.126 8.13301C16.967 8.29589 16.9369 8.29179 16.7425 8.02844C16.6434 8.07036 16.5434 8.11478 16.4414 8.15488C16.2299 8.23802 16.0709 8.13825 16.0592 7.91158C16.0537 7.8036 16.0632 7.69516 16.0637 7.58673C16.0647 7.35732 16.0613 7.35186 15.8574 7.21495C15.9489 7.13271 16.0365 7.05411 16.1225 6.97666C16.2913 7.06391 16.3729 7.17872 16.3538 7.35436C16.3443 7.44298 16.3436 7.53251 16.3419 7.62158C16.3373 7.84232 16.3813 7.88743 16.5845 7.89928C16.8037 7.91181 16.802 7.76738 16.8015 7.62067C16.8008 7.44708 16.8204 7.26028 16.4949 7.26392" fill="#78180E"/>
<path fill-rule="evenodd" clip-rule="evenodd" d="M15.8145 5.9601C15.7086 6.0739 15.6166 6.17285 15.5163 6.2808C15.4009 6.17578 15.3092 6.09252 15.2221 6.01344C15.1152 6.12285 15.0087 6.23185 14.9024 6.34084C14.8962 6.33121 14.89 6.32138 14.884 6.31176C14.941 6.16281 15.0118 6.01784 15.0503 5.86387C15.0728 5.77349 15.0616 5.66408 15.0352 5.57267C14.9795 5.38125 14.8823 5.34882 14.7098 5.44234C14.6901 5.453 14.6693 5.46221 14.6479 5.46974C14.6384 5.47309 14.6266 5.47037 14.5884 5.47037C14.6105 5.42895 14.6194 5.39213 14.6424 5.37288C14.6945 5.32874 14.7545 5.29443 14.8095 5.25385C15.0538 5.07373 15.0536 5.07352 15.2799 5.27602C15.3531 5.20824 15.4273 5.13921 15.4999 5.07227C15.6201 5.15804 15.7345 5.23983 15.857 5.32749C15.7136 5.53689 15.5359 5.46137 15.3649 5.39506C15.2768 5.60112 15.3413 5.68375 15.8145 5.9601" fill="#78180E"/>
<path fill-rule="evenodd" clip-rule="evenodd" d="M13.9311 7.41031C13.8008 7.42732 13.6328 7.33471 13.6358 7.59856C13.6363 7.65777 13.7301 7.77284 13.7643 7.76373C13.8971 7.72912 14.0116 7.64653 13.9311 7.41031ZM13.9568 7.1426C13.9736 6.87298 13.9044 6.72603 13.7583 6.71449C13.706 6.71024 13.6084 6.87298 13.5951 6.97257C13.5679 7.17782 13.6944 7.26253 13.8388 7.25646C13.8914 7.25403 13.9414 7.15839 13.9568 7.1426ZM14.5889 7.54753C14.4583 7.73851 14.3796 7.91279 14.2599 8.00449C14.1947 8.05458 14.0594 7.96441 13.9555 7.93739C13.9538 7.90793 13.952 7.87818 13.95 7.84873C13.8028 7.98111 13.6557 8.11349 13.5098 8.24465C13.3041 8.04031 13.2608 7.76675 13.4049 7.48346C13.4774 7.34106 13.5143 7.21719 13.4779 7.04199C13.4301 6.81245 13.7629 6.34669 13.9555 6.34183C14.0856 6.33849 14.2644 6.565 14.2697 6.74839C14.274 6.89231 14.2745 7.03714 14.2679 7.18105C14.2576 7.4194 14.2815 7.61493 14.5889 7.54753V7.54753Z" fill="#78180E"/>
<path fill-rule="evenodd" clip-rule="evenodd" d="M17.8396 3.77957C17.8839 3.52825 17.8048 3.39923 17.5737 3.37864C17.4861 3.37066 17.3844 3.45702 17.2893 3.50052C17.2951 3.52111 17.3009 3.5417 17.307 3.5623C17.4759 3.63122 17.645 3.70014 17.8396 3.77957ZM17.4979 3.76778C17.4188 3.92832 17.4805 4.16073 17.6236 4.17796C17.695 4.18658 17.8282 4.13951 17.8506 4.09349C17.9437 3.89933 17.85 3.82116 17.4979 3.76778ZM17.3082 3.65954C17.1202 3.57002 17.1869 3.47778 17.2916 3.38091C17.5014 3.18653 17.6894 3.12896 17.9158 3.19788C18.1051 3.25567 18.2447 3.33636 18.1892 3.52442C18.1693 3.59146 18.1839 3.66479 18.1839 3.73519C18.1834 3.97621 18.1836 3.97621 18.3945 4.1565C18.2942 4.2437 18.1914 4.3328 18.0698 4.43849C17.9943 4.36768 17.9346 4.31157 17.85 4.23236C17.701 4.29413 17.5393 4.36096 17.3765 4.42862C17.0674 4.21134 17.0439 4.01361 17.3082 3.65954V3.65954Z" fill="#78180E"/>
<path fill-rule="evenodd" clip-rule="evenodd" d="M17.8839 6.13097C18.0588 5.96086 18.1126 5.76786 18.0133 5.60128C17.9447 5.48566 17.7532 5.38334 17.588 5.34195C17.4737 5.31325 17.3718 5.56281 17.4307 5.72773C17.4973 5.91469 17.6802 6.01971 17.8839 6.13097ZM18.3945 5.62357C18.3796 5.96339 18.0951 6.16594 17.7684 6.33044C17.7015 6.36434 17.5202 6.30881 17.4261 6.25745C17.1491 6.10605 17.0467 5.78911 17.1916 5.53519C17.2535 5.42684 17.3479 5.31932 17.4614 5.23988C17.8408 4.9741 18.0681 5.02068 18.3215 5.40625C18.3646 5.47134 18.3712 5.55058 18.3945 5.62357V5.62357Z" fill="#78180E"/>
<path fill-rule="evenodd" clip-rule="evenodd" d="M17.126 3.11663C17.0127 3.13716 16.9 3.16023 16.7863 3.17722C16.6631 3.19572 16.5386 3.2084 16.3788 3.22817C16.4036 3.46977 16.4135 3.70249 16.4603 3.92988C16.4733 3.99275 16.5971 4.03915 16.7018 4.11647C16.6358 4.20342 16.564 4.32358 16.4606 4.42017C16.4271 4.4511 16.2664 4.444 16.2404 4.4113C16.1537 4.30229 16.076 4.17858 16.0426 4.05157C15.9958 3.87284 16.0023 3.68449 15.9658 3.50298C15.9404 3.37546 15.8816 3.25276 15.8574 3.20612C16.098 3.0094 16.3386 2.81242 16.5792 2.6157C16.56 2.58933 16.5408 2.56322 16.5219 2.53711C16.5005 2.60429 16.4779 2.67147 16.4581 2.7389C16.4005 2.93461 16.4532 2.999 16.6947 3.01218C16.8322 3.02004 16.9706 3.0137 17.1087 3.0137C17.1142 3.04793 17.1201 3.08241 17.126 3.11663" fill="#78180E"/>
<path fill-rule="evenodd" clip-rule="evenodd" d="M17.7574 7.1757C17.9954 6.86792 18.1725 7.14158 18.3941 7.26169C18.3119 7.33616 18.2411 7.42446 18.1483 7.47334C18.1051 7.49616 18.0178 7.44705 17.954 7.42193C17.8934 7.39795 17.8371 7.36291 17.7791 7.3327C17.7622 7.39726 17.733 7.46158 17.7305 7.52659C17.7238 7.71357 17.724 7.90123 17.7288 8.08821C17.732 8.21086 17.6684 8.23875 17.5578 8.2429C17.4348 8.24728 17.393 8.19979 17.3997 8.08383C17.407 7.95518 17.3995 7.82561 17.4034 7.69674C17.414 7.35092 17.415 7.35092 17.1255 7.21904C17.3973 6.90135 17.4111 6.9002 17.7574 7.1757" fill="#78180E"/>
<path fill-rule="evenodd" clip-rule="evenodd" d="M17.0957 5.36485C16.8068 5.5022 16.721 5.49599 16.4166 5.32313C16.1715 5.44871 16.1061 5.58713 16.216 5.7478C16.3737 5.97822 16.6738 6.0516 17.126 5.97094C17.0602 6.12626 16.6873 6.34855 16.5058 6.34063C16.2746 6.33058 15.9425 6.08412 15.8764 5.87381C15.7712 5.54007 16.1163 5.15262 16.5938 5.0741C16.6336 5.06747 16.6954 5.07945 16.7253 5.09935C16.8525 5.18407 16.972 5.27499 17.0957 5.36485" fill="#78180E"/>
<path fill-rule="evenodd" clip-rule="evenodd" d="M13.3198 7.81288C13.1814 7.98689 13.0813 8.11251 12.9759 8.24465C12.8053 8.16417 12.7219 8.04431 12.7212 7.83946C12.72 7.40468 12.7026 6.96989 12.6862 6.53536C12.6813 6.40924 12.7014 6.33703 12.8437 6.34204C12.9653 6.34605 13.0414 6.35709 13.0368 6.52132C13.0267 6.86508 13.0366 7.20935 13.0327 7.55336C13.031 7.72888 13.0243 7.89838 13.3198 7.81288" fill="#78180E"/>
<path fill-rule="evenodd" clip-rule="evenodd" d="M15.6457 6.3418C15.6295 6.46967 15.6183 6.54928 15.6096 6.62971C15.5966 6.74913 15.5874 6.86309 15.7063 6.87427C15.7274 6.87618 15.7467 6.92634 15.7667 6.95415C15.7414 6.98223 15.7166 7.03376 15.6912 7.03458C15.5861 7.03676 15.5783 7.13301 15.5815 7.24997C15.5844 7.34867 15.5853 7.44764 15.5868 7.54633C15.5923 7.88441 15.5976 7.89204 15.8574 7.86723C15.7757 8.00001 15.721 8.11861 15.6476 8.20068C15.5496 8.31028 15.386 8.20395 15.3617 8.0041C15.3375 7.8048 15.342 7.59677 15.3398 7.39256C15.3381 7.21016 15.4021 7.00241 15.2231 6.91844C15.3658 6.72377 15.4911 6.55255 15.6457 6.3418" fill="#78180E"/>
<path fill-rule="evenodd" clip-rule="evenodd" d="M15.857 4.14746C15.7883 4.22126 15.7533 4.2546 15.7246 4.29052C15.6417 4.39441 15.5084 4.48056 15.3629 4.41649C15.2391 4.36195 15.1422 4.24637 15.0906 4.1427C15.0421 4.04465 15.0534 3.92648 15.0644 3.81848C15.0897 3.56589 15.0248 3.49317 14.5884 3.45681C14.7463 3.35768 14.8759 3.26483 15.0217 3.188C15.1553 3.11744 15.4233 3.2657 15.4404 3.42131C15.4526 3.52975 15.4559 3.64035 15.4413 3.74835C15.413 3.96176 15.4724 4.12582 15.857 4.14746" fill="#78180E"/>
<path fill-rule="evenodd" clip-rule="evenodd" d="M15.6643 1.90234C15.7432 2.0813 15.8393 2.2291 15.8573 2.38187C15.8629 2.43091 15.6615 2.5363 15.5544 2.53663C15.4551 2.53696 15.3101 2.44649 15.2639 2.37027C15.142 2.16911 15.299 2.03954 15.6643 1.90234" fill="#78180E"/>
<path fill-rule="evenodd" clip-rule="evenodd" d="M18.4354 5.61795C18.6334 5.63998 18.8313 5.66202 19.0288 5.68406C19.0149 5.72104 19.0009 5.75828 18.9865 5.79551C18.7895 5.77221 18.592 5.74865 18.3945 5.7256C18.408 5.68963 18.4219 5.65366 18.4354 5.61795" fill="#78180E"/>
<path fill-rule="evenodd" clip-rule="evenodd" d="M19.0288 6.42906C18.7736 6.40018 18.6043 6.38093 18.3945 6.35712C18.6295 6.20311 18.7862 6.21704 19.0288 6.42906" fill="#78180E"/>
<path fill-rule="evenodd" clip-rule="evenodd" d="M10.361 3.55817C10.1187 3.36392 10.0433 3.35053 9.90048 3.47037C10.0276 3.70413 10.1697 3.73486 10.361 3.55817ZM9.87947 4.13933C10.0219 4.18915 10.1437 4.24907 10.2723 4.26861C10.3221 4.27607 10.408 4.2021 10.4371 4.14635C10.4521 4.11804 10.3894 4.0309 10.3405 3.99995C10.1523 3.88033 10.1161 3.89284 9.87947 4.13933ZM10.7827 3.40551C10.6733 3.49923 10.5831 3.57649 10.487 3.6588C10.5292 3.68843 10.5659 3.71301 10.601 3.73957C10.8061 3.89585 10.8044 4.07122 10.5967 4.22749C10.238 4.49791 9.84591 4.51151 9.51416 4.25032C9.62196 4.15397 9.72809 4.05871 9.83303 3.96499C9.83136 3.95006 9.8347 3.93492 9.82826 3.92789C9.62053 3.69567 9.60145 3.60283 9.73119 3.44941C9.94751 3.1937 10.2998 3.09581 10.5418 3.23014C10.6191 3.27316 10.6854 3.33395 10.7827 3.40551V3.40551Z" fill="#78180E"/>
<path fill-rule="evenodd" clip-rule="evenodd" d="M10.7432 7.73101C10.6249 7.73796 10.5106 7.74468 10.3963 7.75163C10.4165 7.81609 10.4145 7.91268 10.4618 7.93807C10.5381 7.97888 10.6469 7.9728 10.7614 7.9893C10.7536 7.87925 10.7495 7.81957 10.7432 7.73101ZM10.7522 7.61462C10.7906 7.41233 10.6943 7.23631 10.5304 7.24217C10.4834 7.2439 10.4116 7.33181 10.4015 7.38737C10.3757 7.53171 10.5304 7.62504 10.7522 7.61462ZM11.417 8.01481C11.3194 8.08535 11.2218 8.15589 11.1045 8.24076C11.1265 8.24076 11.1072 8.24575 11.1007 8.23989C10.8809 8.04281 10.6662 8.06387 10.4371 8.23425C10.4045 8.25834 10.2808 8.23012 10.2379 8.19214C10.1142 8.08383 10.1276 7.88111 10.2242 7.71572C10.2631 7.64887 10.2816 7.56053 10.2712 7.48609C10.2404 7.26774 10.4857 6.98644 10.7327 6.97472C10.8599 6.96886 11.1093 7.19502 11.1227 7.33328C11.1371 7.48435 11.1505 7.63585 11.1555 7.78735C11.1603 7.92908 11.1657 8.06083 11.417 8.01481V8.01481Z" fill="#78180E"/>
<path fill-rule="evenodd" clip-rule="evenodd" d="M6.86185 3.83396C6.81757 3.70134 6.80678 3.54352 6.71868 3.444C6.64968 3.3656 6.48157 3.3197 6.36448 3.32986C6.17367 3.34631 6.08332 3.5025 6.04781 3.66478C6.00308 3.8693 6.0314 4.07606 6.22716 4.19996C6.31548 4.25581 6.47685 4.26922 6.57956 4.2355C6.75981 4.1766 6.84476 4.0261 6.86185 3.83396ZM6.92552 3.16992C6.92552 3.38359 6.919 3.59746 6.92754 3.81051C6.93563 4.01606 6.95901 4.22078 6.97631 4.43222C6.98103 4.43019 6.96215 4.43993 6.96103 4.43831C6.84776 4.28456 6.70167 4.32477 6.5448 4.366C6.25554 4.44197 5.99574 4.36722 5.82425 4.14767C5.67569 3.95797 5.67075 3.72623 5.80582 3.51926C5.96382 3.27655 6.19014 3.14981 6.51513 3.19693C6.63784 3.21481 6.78528 3.32245 6.92552 3.16992V3.16992Z" fill="#78180E"/>
<path fill-rule="evenodd" clip-rule="evenodd" d="M7.80616 8.23585C7.79243 8.12481 7.77115 8.01377 7.76738 7.90231C7.762 7.75063 7.78516 7.59727 7.76496 7.44747C7.75742 7.39111 7.6629 7.34209 7.60797 7.28971C7.55869 7.34586 7.47037 7.40033 7.46633 7.45878C7.4499 7.69657 7.4596 7.93541 7.4596 8.182C7.35081 8.182 7.27326 8.182 7.19436 8.182C7.08638 7.86041 7.30476 7.50173 6.97705 7.20758C7.07803 7.133 7.17847 7.05883 7.29238 6.97461C7.36212 7.05757 7.42136 7.12776 7.49487 7.21512C7.58374 7.16463 7.67233 7.12441 7.74503 7.07077C7.86379 6.9832 7.95319 7.0207 8.00381 7.11414C8.04905 7.19732 8.06817 7.29222 8.08082 7.38357C8.10075 7.52876 8.09752 7.67625 8.12148 7.82081C8.13037 7.87528 8.188 7.92452 8.24562 8.00874C8.14545 8.07348 8.01377 8.15833 7.88183 8.24318C7.85678 8.24067 7.83147 8.23836 7.80616 8.23585" fill="#78180E"/>
<path fill-rule="evenodd" clip-rule="evenodd" d="M8.29296 6.34231C8.27957 6.14229 8.26283 5.88931 8.24609 5.63662C8.27092 5.63159 8.29575 5.62685 8.32057 5.62182C8.34428 5.65881 8.37553 5.69254 8.39031 5.73367C8.51333 6.06832 8.70553 6.21094 9.02074 6.15146C9.11307 6.134 9.25115 6.02749 9.25869 5.94937C9.26873 5.84759 9.19397 5.69224 9.1114 5.63366C8.96802 5.53158 8.78893 5.49015 8.6277 5.41559C8.48683 5.35079 8.30942 5.27948 8.34094 5.08212C8.36548 4.92826 8.44917 4.74629 8.56103 4.65811C8.6846 4.56106 8.86899 4.55189 9.02827 4.51283C9.14543 4.48354 9.26538 4.46786 9.41992 4.43945C9.43443 4.58533 9.452 4.76256 9.47404 4.98418C9.32145 4.8676 9.23135 4.77026 9.12256 4.7238C9.02241 4.68119 8.89549 4.66285 8.79395 4.69125C8.71362 4.71345 8.65336 4.82233 8.58446 4.89275C8.65113 4.95164 8.70999 5.0333 8.78642 5.06348C8.9139 5.11378 9.05449 5.12295 9.18588 5.16408C9.4294 5.24013 9.54015 5.44429 9.50974 5.73899C9.47683 6.05648 9.31001 6.27692 9.07542 6.29556C8.97778 6.30296 8.87764 6.271 8.77973 6.27751C8.63523 6.28698 8.49185 6.31479 8.29296 6.34231" fill="#78180E"/>
<path fill-rule="evenodd" clip-rule="evenodd" d="M6.63522 5.81529C6.62898 5.96604 6.77001 6.01622 6.90622 6.02021C6.94623 6.02126 6.99333 5.87639 7.05009 5.77518C6.86904 5.79261 6.75894 5.80332 6.63522 5.81529ZM7.0953 5.54971C6.96505 5.4273 6.87992 5.34709 6.7945 5.2671C6.7159 5.33953 6.56976 5.41575 6.576 5.48357C6.58338 5.56231 6.71306 5.64692 6.81578 5.70004C6.84274 5.71411 6.9659 5.6213 7.0953 5.54971ZM7.61134 6.02589C7.42604 6.15355 7.30204 6.23921 7.15448 6.34084C7.09716 6.26651 7.0492 6.20436 6.99018 6.12835C6.93711 6.14683 6.86872 6.15985 6.8185 6.19029C6.70981 6.25664 6.62043 6.34315 6.47372 6.22452C6.33297 6.11009 6.29721 5.96311 6.40817 5.84091C6.44279 5.8027 6.48706 5.76932 6.52536 5.73509C6.39483 5.42267 6.42832 5.3011 6.72684 5.15433C6.82701 5.10499 7.02082 5.04851 7.07304 5.08273C7.19619 5.16273 7.29835 5.28829 7.33666 5.4086C7.37894 5.54109 7.34829 5.6889 7.33439 5.82916C7.32304 5.94464 7.35453 6.02505 7.61134 6.02589V6.02589Z" fill="#78180E"/>
<path fill-rule="evenodd" clip-rule="evenodd" d="M8.57876 3.1306C8.6029 3.13804 8.62678 3.14571 8.65093 3.15293C8.75361 3.06602 8.85629 2.97911 8.96401 2.88804C8.87991 2.82368 8.81278 2.77245 8.6825 2.67263C8.64058 2.85805 8.60954 2.99443 8.57876 3.1306ZM9.51418 3.5229C9.18941 3.82106 9.00289 3.86266 8.68449 3.74401C8.38441 3.63192 8.22627 3.43096 8.2475 3.18818C8.2743 2.88476 8.51283 2.61221 8.80655 2.5496C8.99917 2.50866 9.10133 2.56273 9.26211 2.79588C9.10292 2.92438 8.9469 3.05989 8.77869 3.18292C8.66274 3.26786 8.67706 3.35477 8.78532 3.40491C8.92329 3.46861 9.08222 3.50342 9.23664 3.53691C9.30404 3.55136 9.38204 3.531 9.51418 3.5229V3.5229Z" fill="#78180E"/>
<path fill-rule="evenodd" clip-rule="evenodd" d="M6.58463 7.08182C6.47806 6.93826 6.38626 6.81458 6.29478 6.69149C5.91602 6.91955 5.85118 7.1441 6.08678 7.42977C6.25081 7.31515 6.41515 7.20024 6.58463 7.08182ZM6.49399 8.24465C6.02119 8.10051 5.70374 7.73239 5.70855 7.34878C5.71369 6.92072 6.09052 6.49647 6.60024 6.3418C6.71868 6.52249 6.8368 6.7026 6.97707 6.91634C6.85124 7.01546 6.7145 7.12393 6.5768 7.23153C6.44328 7.33562 6.30878 7.43883 6.17526 7.54234C6.36528 7.76105 6.43621 7.77479 6.89971 7.66719C6.74789 7.88326 6.61949 8.06542 6.49399 8.24465V8.24465Z" fill="#78180E"/>
<path fill-rule="evenodd" clip-rule="evenodd" d="M6.97705 3.43017C7.19674 3.15625 7.22689 3.1488 7.51762 3.25084C7.5551 3.26404 7.61776 3.27988 7.6369 3.26284C7.82906 3.09263 7.9735 3.18145 8.11402 3.32766C8.13054 3.34471 8.16435 3.34711 8.24562 3.37592C8.12451 3.46186 8.03826 3.56918 7.941 3.57902C7.84688 3.58838 7.74123 3.49715 7.60832 3.43497C7.59626 3.52716 7.57896 3.60807 7.57686 3.68897C7.57241 3.88392 7.56926 4.0791 7.57686 4.2738C7.58184 4.4008 7.51683 4.43873 7.3965 4.43849C7.27801 4.43849 7.23291 4.38784 7.23842 4.27668C7.24681 4.10215 7.23842 3.92713 7.24812 3.75283C7.25782 3.5795 7.23265 3.43713 6.97705 3.43017" fill="#78180E"/>
<path fill-rule="evenodd" clip-rule="evenodd" d="M6.34279 5.27419C6.19233 5.37073 6.0999 5.43 6.00969 5.4878C5.98225 5.47439 5.969 5.46685 5.95417 5.4612C5.82705 5.41387 5.69993 5.36717 5.57281 5.32005C5.5072 5.42874 5.39585 5.53533 5.38544 5.64653C5.3662 5.84904 5.59552 6.00966 5.91506 6.06181C6.00527 6.07626 6.09927 6.08108 6.21125 6.09259C6.09801 6.22285 6.03398 6.3663 5.74472 6.33698C5.45862 6.30787 5.14791 6.12861 5.09019 5.93846C4.98357 5.5879 5.42676 5.11566 5.94376 5.07273C6.0548 5.06352 6.19075 5.19356 6.34279 5.27419" fill="#78180E"/>
<path fill-rule="evenodd" clip-rule="evenodd" d="M8.16868 5.99908C8.12211 6.09419 8.10133 6.16152 8.06576 6.20305C8.0152 6.26253 7.93866 6.36044 7.90029 6.3394C7.82815 6.29984 7.73763 6.19884 7.72284 6.10177C7.68946 5.88349 7.70385 5.65091 7.68607 5.4259C7.67767 5.31788 7.6401 5.21408 7.61133 5.08951C7.71804 4.91276 7.85033 4.69308 8.00321 4.43945C7.98363 4.56767 7.96404 4.66446 7.95445 4.7635C7.92967 5.01684 7.95025 5.04771 8.12411 5.05023C8.16028 5.05079 8.19645 5.06173 8.23242 5.06791C8.23682 5.08951 8.24122 5.11083 8.24561 5.13215C8.20125 5.15712 8.15689 5.20313 8.11232 5.20342C7.94186 5.20482 7.87671 5.31311 7.91708 5.55327C7.92467 5.59844 7.92128 5.64726 7.92567 5.69383C7.94306 5.87704 7.95505 6.06866 8.16868 5.99908" fill="#78180E"/>
<path fill-rule="evenodd" clip-rule="evenodd" d="M8.59398 6.34681C8.5823 6.54648 8.57062 6.74616 8.55829 6.95615C8.61324 6.97031 8.65455 6.97355 8.69176 6.99273C8.71966 7.00718 8.74216 7.04198 8.76703 7.06764C8.74432 7.09743 8.72528 7.14078 8.69846 7.15465C8.56262 7.22573 8.50919 7.42805 8.57019 7.66047C8.60848 7.80616 8.66428 7.82386 8.88038 7.71532C8.77677 7.91618 8.70928 8.0837 8.61605 8.21583C8.55115 8.30785 8.37551 8.16481 8.34825 7.99434C8.32533 7.8507 8.33246 7.69822 8.31624 7.55193C8.2998 7.40328 8.26908 7.25787 8.2494 7.10982C8.24378 7.06734 8.24421 7.01101 8.25957 6.9768C8.35691 6.76267 8.45901 6.55297 8.55937 6.3418C8.57084 6.34357 8.58252 6.34504 8.59398 6.34681" fill="#78180E"/>
<path fill-rule="evenodd" clip-rule="evenodd" d="M10.1484 5.87864C10.1158 6.13551 9.98465 6.351 9.89202 6.34047C9.70576 6.31892 9.52091 6.05127 9.5143 5.79269C9.50768 5.53655 9.74205 5.12198 9.94034 5.07399C9.99607 5.06052 10.067 5.12933 10.1268 5.16998C10.1402 5.17928 10.1472 5.24907 10.1382 5.25691C10.0927 5.29706 10.0434 5.34432 9.99086 5.35436C9.88881 5.3742 9.73764 5.29853 9.71719 5.47974C9.70256 5.60732 9.75308 5.77604 9.82004 5.88109C9.89422 5.99789 10.0183 6.08384 10.1484 5.87864" fill="#78180E"/>
<path fill-rule="evenodd" clip-rule="evenodd" d="M8.87988 7.26298C8.92941 7.2196 8.97774 7.17396 9.02868 7.13384C9.09826 7.07867 9.16965 7.02752 9.24024 6.97461C9.29278 7.10099 9.35775 7.2221 9.39345 7.35576C9.41671 7.44352 9.39044 7.5511 9.40007 7.64739C9.4125 7.76875 9.43877 7.88736 9.45902 8.00722C9.47747 8.01424 9.49592 8.02151 9.51417 8.02853C9.449 8.1 9.38362 8.17146 9.31805 8.24318C9.19652 8.18576 9.14699 8.07994 9.15822 7.91795C9.16504 7.82091 9.16183 7.72186 9.15702 7.62432C9.14398 7.36278 9.11411 7.32692 8.91798 7.32241C8.90535 7.3026 8.89252 7.28279 8.87988 7.26298" fill="#78180E"/>
<path fill-rule="evenodd" clip-rule="evenodd" d="M11.1142 6.34084C11.0679 6.19667 11.0199 6.08914 11.0002 5.97375C10.9818 5.86551 10.9861 5.74846 10.9928 5.63617C11.0036 5.45703 10.9492 5.37019 10.7832 5.36187C10.8647 5.26694 10.9428 5.16679 11.0299 5.0809C11.0494 5.06163 11.1204 5.0771 11.1324 5.10279C11.1683 5.1794 11.2003 5.26694 11.2086 5.35402C11.2212 5.4851 11.2167 5.61975 11.211 5.75227C11.205 5.89072 11.2316 5.99017 11.4175 6.00087C11.3063 6.1253 11.2308 6.20999 11.1142 6.34084" fill="#78180E"/>
<path fill-rule="evenodd" clip-rule="evenodd" d="M11.1008 4.43945C11.3354 4.5901 11.5516 4.73315 11.3151 4.96915C11.1876 5.09596 11.0029 5.11842 10.8777 4.97537C10.6879 4.75734 10.795 4.58077 11.1008 4.43945" fill="#78180E"/>
<path fill-rule="evenodd" clip-rule="evenodd" d="M9.19719 6.3418C9.30122 6.42634 9.39905 6.50545 9.51417 6.59907C9.41764 6.7199 9.32339 6.83747 9.21284 6.97608C9.10196 6.87738 9.00022 6.78667 8.87988 6.67926C8.9963 6.55552 9.09577 6.44993 9.19719 6.3418" fill="#78180E"/>
<path fill-rule="evenodd" clip-rule="evenodd" d="M12.1347 10.9723C12.1347 11.0665 12.1347 11.1347 12.1347 11.2218C12.2204 11.1808 12.2908 11.1469 12.3856 11.1013C12.2899 11.0521 12.2231 11.0177 12.1347 10.9723ZM11.7118 11.2748C11.6988 11.1795 11.6873 11.0945 11.6759 11.0102C11.5978 11.0102 11.5181 11.0102 11.4175 11.0102C11.5704 10.7998 11.8529 10.7261 12.0966 10.824C12.2952 10.9036 12.4857 11.0006 12.6861 11.0931C12.494 11.1845 12.311 11.2806 12.1204 11.3604C11.8762 11.4625 11.671 11.422 11.5279 11.2458C11.5989 11.257 11.6539 11.2656 11.7118 11.2748V11.2748Z" fill="#78180E"/>
<path fill-rule="evenodd" clip-rule="evenodd" d="M29.1772 16.337V7.41602H32.7001V16.2479C32.7001 18.7903 34.0041 20.1063 36.1543 20.1063C38.3049 20.1063 39.6086 18.835 39.6086 16.3594V7.41602H43.1315V16.2255C43.1315 20.9539 40.4092 23.2732 36.1087 23.2732C31.8081 23.2732 29.1772 20.9316 29.1772 16.337" fill="#78180E"/>
<path fill-rule="evenodd" clip-rule="evenodd" d="M44.3999 15.7072V15.6619C44.3999 11.1288 47.7872 7.41602 52.6429 7.41602C55.6238 7.41602 57.4078 8.41832 58.8759 9.876L56.6627 12.4501C55.443 11.3339 54.2009 10.6506 52.6203 10.6506C49.9554 10.6506 48.0359 12.8826 48.0359 15.6162V15.6619C48.0359 18.3952 49.9101 20.6731 52.6203 20.6731C54.4269 20.6731 55.5335 19.9441 56.7753 18.8052L58.9885 21.0603C57.3626 22.8141 55.5561 23.9074 52.5072 23.9074C47.8551 23.9074 44.3999 20.2857 44.3999 15.7072" fill="#78180E"/>
<path fill-rule="evenodd" clip-rule="evenodd" d="M60.2573 6.78125H63.5954V12.8809C64.364 11.8642 65.3526 10.9381 67.0433 10.9381C69.569 10.9381 71.0402 12.6548 71.0402 15.4336V23.2727H67.7023V16.5182C67.7023 14.8914 66.9555 14.0555 65.6819 14.0555C64.408 14.0555 63.5954 14.8914 63.5954 16.5182V23.2727H60.2573V6.78125" fill="#78180E"/>
<path fill-rule="evenodd" clip-rule="evenodd" d="M72.4041 23.2737H76.0197V11.1649H72.4041V23.2737ZM72.3086 9.83108H76.1143V6.78125H72.3086V9.83108Z" fill="#78180E"/>
<path fill-rule="evenodd" clip-rule="evenodd" d="M76.7485 17.6091V17.5636C76.7485 14.0852 79.4309 11.2207 83.1908 11.2207C85.5065 11.2207 86.9507 11.9936 88.097 13.2667L85.9648 15.54C85.1855 14.7219 84.4058 14.1988 83.1678 14.1988C81.4253 14.1988 80.1874 15.722 80.1874 17.5183V17.5636C80.1874 19.4279 81.4024 20.9283 83.3054 20.9283C84.4747 20.9283 85.2771 20.4283 86.1254 19.6324L88.1657 21.6784C86.9736 22.9744 85.5981 23.9064 83.1449 23.9064C79.4539 23.9064 76.7485 21.0875 76.7485 17.6091" fill="#78180E"/>
<path fill-rule="evenodd" clip-rule="evenodd" d="M96.4332 19.3318V18.7115C95.8647 18.4357 95.1209 18.2518 94.3116 18.2518C92.89 18.2518 92.015 18.8494 92.015 19.9524V19.9985C92.015 20.9406 92.7585 21.4922 93.8305 21.4922C95.3833 21.4922 96.4332 20.5958 96.4332 19.3318ZM88.7998 20.1375V20.0915C88.7998 17.4027 90.7466 16.1617 93.5243 16.1617C94.7053 16.1617 95.5584 16.3687 96.3896 16.6672V16.4605C96.3896 15.0126 95.5365 14.2083 93.8744 14.2083C92.6054 14.2083 91.709 14.4611 90.637 14.8747L89.8058 12.2089C91.0964 11.6113 92.3651 11.2207 94.3555 11.2207C96.1707 11.2207 97.483 11.7264 98.3142 12.5995C99.1892 13.5189 99.5827 14.8747 99.5827 16.5293V23.6764H96.3677V22.3437C95.5584 23.2858 94.4429 23.9064 92.8243 23.9064C90.6151 23.9064 88.7998 22.5734 88.7998 20.1375V20.1375Z" fill="#78180E"/>
<path fill-rule="evenodd" clip-rule="evenodd" d="M110.158 16.8639V16.8192C110.158 15.1843 108.874 14.0419 107.206 14.0419C105.539 14.0419 104.277 15.1843 104.277 16.8192V16.8639C104.277 18.5215 105.539 19.6412 107.206 19.6412C108.874 19.6412 110.158 18.4991 110.158 16.8639ZM101.46 25.8236L102.632 23.2704C103.871 23.9647 105.11 24.3678 106.71 24.3678C109.053 24.3678 110.157 23.2479 110.157 21.0979V20.5155C109.143 21.7249 108.039 22.4641 106.214 22.4641C103.398 22.4641 100.852 20.4257 100.852 16.8646V16.82C100.852 13.2364 103.443 11.2207 106.214 11.2207C108.085 11.2207 109.188 12.0045 110.112 13.0125V11.4446H113.537V20.7396C113.537 22.8897 113.019 24.4573 112.005 25.4653C110.878 26.585 109.143 27.0778 106.8 27.0778C104.84 27.0778 102.992 26.6298 101.46 25.8236V25.8236Z" fill="#78180E"/>
<path fill-rule="evenodd" clip-rule="evenodd" d="M124.681 17.6089V17.5633C124.681 15.7673 123.372 14.1986 121.443 14.1986C119.445 14.1986 118.251 15.7218 118.251 17.518V17.5633C118.251 19.3593 119.56 20.9281 121.489 20.9281C123.487 20.9281 124.681 19.4049 124.681 17.6089ZM114.806 17.6091V17.5636C114.806 14.0624 117.654 11.2207 121.489 11.2207C125.301 11.2207 128.126 14.0168 128.126 17.5183V17.5636C128.126 21.0647 125.278 23.9064 121.443 23.9064C117.631 23.9064 114.806 21.1103 114.806 17.6091V17.6091Z" fill="#78180E"/>
<path fill-rule="evenodd" clip-rule="evenodd" d="M158.353 16.586C158.147 15.0403 157.23 13.9942 155.764 13.9942C154.32 13.9942 153.381 15.0172 153.106 16.586H158.353ZM149.692 17.6091V17.5636C149.692 14.0852 152.189 11.2207 155.763 11.2207C159.864 11.2207 161.743 14.3805 161.743 17.8365C161.743 18.1093 161.72 18.4276 161.697 18.7459H153.152C153.495 20.3144 154.595 21.1331 156.153 21.1331C157.322 21.1331 158.169 20.7692 159.131 19.8824L161.124 21.6332C159.979 23.0427 158.329 23.9064 156.107 23.9064C152.418 23.9064 149.692 21.3377 149.692 17.6091V17.6091Z" fill="black"/>
<path fill-rule="evenodd" clip-rule="evenodd" d="M171.683 17.0999V17.0555C171.683 15.0718 170.354 13.757 168.754 13.757C167.154 13.757 165.802 15.0495 165.802 17.0555V17.0999C165.802 19.0833 167.154 20.3982 168.754 20.3982C170.354 20.3982 171.683 19.0833 171.683 17.0999ZM162.377 17.0996V17.0552C162.377 13.0658 165.014 10.8818 167.875 10.8818C169.7 10.8818 170.827 11.7065 171.638 12.6646V6.78125H175.063V23.05H171.638V21.3337C170.804 22.4483 169.655 23.2727 167.875 23.2727C165.058 23.2727 162.377 21.089 162.377 17.0996V17.0996Z" fill="black"/>
<path fill-rule="evenodd" clip-rule="evenodd" d="M176.427 23.2738H180.042V11.1649H176.427V23.2738ZM176.331 9.83098H180.137V6.78125H176.331V9.83098Z" fill="black"/>
<path fill-rule="evenodd" clip-rule="evenodd" d="M180.771 17.6091V17.5636C180.771 14.0852 183.454 11.2207 187.214 11.2207C189.529 11.2207 190.974 11.9936 192.12 13.2668L189.988 15.5403C189.208 14.7218 188.429 14.1989 187.191 14.1989C185.448 14.1989 184.21 15.7221 184.21 17.5182V17.5636C184.21 19.4276 185.425 20.9282 187.328 20.9282C188.498 20.9282 189.3 20.4281 190.148 19.6324L192.189 21.6785C190.996 22.9743 189.621 23.9064 187.168 23.9064C183.477 23.9064 180.771 21.0872 180.771 17.6091" fill="black"/>
<path fill-rule="evenodd" clip-rule="evenodd" d="M192.919 23.2738H196.534V11.1649H192.919V23.2738ZM192.823 9.83098H196.629V6.78125H192.823V9.83098Z" fill="black"/>
<path fill-rule="evenodd" clip-rule="evenodd" d="M198.531 11.4415H201.87V13.1189C202.638 12.1254 203.626 11.2207 205.317 11.2207C207.843 11.2207 209.314 12.8982 209.314 15.6129V23.2721H205.976V16.6725C205.976 15.0833 205.23 14.2666 203.956 14.2666C202.682 14.2666 201.87 15.0833 201.87 16.6725V23.2721H198.531V11.4415" fill="black"/>
<path fill-rule="evenodd" clip-rule="evenodd" d="M218.61 16.586C218.403 15.04 217.487 13.9942 216.021 13.9942C214.577 13.9942 213.638 15.0172 213.363 16.586H218.61ZM209.949 17.6091V17.5636C209.949 14.0852 212.446 11.2207 216.02 11.2207C220.121 11.2207 222 14.3805 222 17.8363C222 18.1093 221.977 18.4276 221.954 18.7459H213.408C213.752 20.3144 214.852 21.1328 216.41 21.1328C217.578 21.1328 218.426 20.7689 219.388 19.8824L221.381 21.6332C220.236 23.0427 218.586 23.9064 216.364 23.9064C212.675 23.9064 209.949 21.3377 209.949 17.6091V17.6091Z" fill="black"/>
<path fill-rule="evenodd" clip-rule="evenodd" d="M130.663 7.41602H134.484L139.86 14.1215L145.235 7.41602H149.057V23.2732H145.535V12.9207L139.86 19.6939H139.768L134.139 12.9886V23.2732H130.663V7.41602" fill="black"/>
</svg>
