<svg width="66" height="87" viewBox="0 0 66 87" fill="none" xmlns="http://www.w3.org/2000/svg">
<path d="M27.0389 56.28C27.0389 53.48 27.4789 51 28.3589 48.84C29.3189 46.68 30.4789 44.76 31.8389 43.08C33.2789 41.4 34.7989 39.84 36.3989 38.4C37.9989 36.96 39.4789 35.6 40.8389 34.32C42.2789 32.96 43.4389 31.56 44.3189 30.12C45.2789 28.68 45.7589 27.08 45.7589 25.32C45.7589 22.44 44.5589 20.12 42.1589 18.36C39.8389 16.6 36.7189 15.72 32.7989 15.72C29.0389 15.72 25.6789 16.52 22.7189 18.12C19.7589 19.64 17.3189 21.8 15.3989 24.6L0.878906 16.08C4.07891 11.2 8.51891 7.32 14.1989 4.44C19.8789 1.48 26.7589 0 34.8389 0C40.8389 0 46.1189 0.879998 50.6789 2.63999C55.2389 4.32 58.7989 6.8 61.3589 10.08C63.9989 13.36 65.3189 17.4 65.3189 22.2C65.3189 25.32 64.8389 28.08 63.8789 30.48C62.9189 32.88 61.6789 34.96 60.1589 36.72C58.6389 38.48 56.9989 40.12 55.2389 41.64C53.5589 43.16 51.9589 44.64 50.4389 46.08C48.9189 47.52 47.6389 49.04 46.5989 50.64C45.6389 52.24 45.1589 54.12 45.1589 56.28H27.0389ZM36.1589 86.4C32.7989 86.4 30.0389 85.32 27.8789 83.16C25.7189 81 24.6389 78.44 24.6389 75.48C24.6389 72.44 25.7189 69.92 27.8789 67.92C30.0389 65.84 32.7989 64.8 36.1589 64.8C39.5989 64.8 42.3589 65.84 44.4389 67.92C46.5989 69.92 47.6789 72.44 47.6789 75.48C47.6789 78.44 46.5989 81 44.4389 83.16C42.3589 85.32 39.5989 86.4 36.1589 86.4Z" fill="url(#paint0_linear_540_5842)"/>
<defs>
<linearGradient id="paint0_linear_540_5842" x1="36.4989" y1="-2.56" x2="34.2202" y2="93.3859" gradientUnits="userSpaceOnUse">
<stop stop-color="#9BA152"/>
<stop offset="1" stop-color="#9BA152" stop-opacity="0.25"/>
</linearGradient>
</defs>
</svg>
