<svg width="66" height="87" viewBox="0 0 66 87" fill="none" xmlns="http://www.w3.org/2000/svg">
<path d="M27.0399 56.28C27.0399 53.48 27.4799 51 28.3599 48.84C29.3199 46.68 30.4799 44.76 31.8399 43.08C33.2799 41.4 34.7999 39.84 36.3999 38.4C37.9999 36.96 39.4799 35.6 40.8399 34.32C42.2799 32.96 43.4399 31.56 44.3199 30.12C45.2799 28.68 45.7599 27.08 45.7599 25.32C45.7599 22.44 44.5599 20.12 42.1599 18.36C39.8399 16.6 36.7199 15.72 32.7999 15.72C29.0399 15.72 25.6799 16.52 22.7199 18.12C19.7599 19.64 17.3199 21.8 15.3999 24.6L0.879883 16.08C4.07988 11.2 8.51988 7.32 14.1999 4.44C19.8799 1.48 26.7599 0 34.8399 0C40.8399 0 46.1199 0.879998 50.6799 2.63999C55.2399 4.32 58.7999 6.8 61.3599 10.08C63.9999 13.36 65.3199 17.4 65.3199 22.2C65.3199 25.32 64.8399 28.08 63.8799 30.48C62.9199 32.88 61.6799 34.96 60.1599 36.72C58.6399 38.48 56.9999 40.12 55.2399 41.64C53.5599 43.16 51.9599 44.64 50.4399 46.08C48.9199 47.52 47.6399 49.04 46.5999 50.64C45.6399 52.24 45.1599 54.12 45.1599 56.28H27.0399ZM36.1599 86.4C32.7999 86.4 30.0399 85.32 27.8799 83.16C25.7199 81 24.6399 78.44 24.6399 75.48C24.6399 72.44 25.7199 69.92 27.8799 67.92C30.0399 65.84 32.7999 64.8 36.1599 64.8C39.5999 64.8 42.3599 65.84 44.4399 67.92C46.5999 69.92 47.6799 72.44 47.6799 75.48C47.6799 78.44 46.5999 81 44.4399 83.16C42.3599 85.32 39.5999 86.4 36.1599 86.4Z" fill="url(#paint0_linear_540_5851)"/>
<defs>
<linearGradient id="paint0_linear_540_5851" x1="36.4999" y1="-2.56" x2="34.2212" y2="93.3859" gradientUnits="userSpaceOnUse">
<stop stop-color="#DF766D"/>
<stop offset="1" stop-color="#DF766D" stop-opacity="0.2"/>
</linearGradient>
</defs>
</svg>
