<svg width="66" height="87" viewBox="0 0 66 87" fill="none" xmlns="http://www.w3.org/2000/svg">
<path d="M27.0409 56.28C27.0409 53.48 27.4809 51 28.3609 48.84C29.3209 46.68 30.4809 44.76 31.8409 43.08C33.2809 41.4 34.8009 39.84 36.4009 38.4C38.0009 36.96 39.4809 35.6 40.8409 34.32C42.2809 32.96 43.4409 31.56 44.3209 30.12C45.2809 28.68 45.7609 27.08 45.7609 25.32C45.7609 22.44 44.5609 20.12 42.1609 18.36C39.8409 16.6 36.7209 15.72 32.8009 15.72C29.0409 15.72 25.6809 16.52 22.7209 18.12C19.7609 19.64 17.3209 21.8 15.4009 24.6L0.880859 16.08C4.08086 11.2 8.52086 7.32 14.2009 4.44C19.8809 1.48 26.7609 0 34.8409 0C40.8409 0 46.1209 0.879998 50.6809 2.63999C55.2409 4.32 58.8009 6.8 61.3609 10.08C64.0009 13.36 65.3209 17.4 65.3209 22.2C65.3209 25.32 64.8409 28.08 63.8809 30.48C62.9209 32.88 61.6809 34.96 60.1609 36.72C58.6409 38.48 57.0009 40.12 55.2409 41.64C53.5609 43.16 51.9609 44.64 50.4409 46.08C48.9209 47.52 47.6409 49.04 46.6009 50.64C45.6409 52.24 45.1609 54.12 45.1609 56.28H27.0409ZM36.1609 86.4C32.8009 86.4 30.0409 85.32 27.8809 83.16C25.7209 81 24.6409 78.44 24.6409 75.48C24.6409 72.44 25.7209 69.92 27.8809 67.92C30.0409 65.84 32.8009 64.8 36.1609 64.8C39.6009 64.8 42.3609 65.84 44.4409 67.92C46.6009 69.92 47.6809 72.44 47.6809 75.48C47.6809 78.44 46.6009 81 44.4409 83.16C42.3609 85.32 39.6009 86.4 36.1609 86.4Z" fill="url(#paint0_linear_802_1187)"/>
<defs>
<linearGradient id="paint0_linear_802_1187" x1="36.5009" y1="-2.56" x2="34.2221" y2="93.3859" gradientUnits="userSpaceOnUse">
<stop stop-color="#5B8FA8"/>
<stop offset="1" stop-color="#5B8FA8" stop-opacity="0.25"/>
</linearGradient>
</defs>
</svg>
