<svg width="77" height="60" viewBox="0 0 77 60" fill="none" xmlns="http://www.w3.org/2000/svg">
<path d="M33.3684 0L21.7524 42.24L17.8804 26.4C22.9257 26.4 27.0324 27.8667 30.2004 30.8C33.3684 33.7333 34.9524 37.7813 34.9524 42.944C34.9524 47.9893 33.3097 52.096 30.0244 55.264C26.8564 58.3147 22.867 59.84 18.0564 59.84C13.1284 59.84 9.02171 58.3147 5.73638 55.264C2.56838 52.096 0.984375 47.9893 0.984375 42.944C0.984375 41.4187 1.10171 39.952 1.33638 38.544C1.57104 37.0187 2.04038 35.2587 2.74438 33.264C3.44837 31.2693 4.44571 28.6293 5.73638 25.344L15.9444 0H33.3684ZM74.9044 0L63.2884 42.24L59.4164 26.4C64.4617 26.4 68.5684 27.8667 71.7364 30.8C74.9044 33.7333 76.4884 37.7813 76.4884 42.944C76.4884 47.9893 74.8457 52.096 71.5604 55.264C68.3924 58.3147 64.403 59.84 59.5924 59.84C54.6644 59.84 50.5577 58.3147 47.2724 55.264C44.1044 52.096 42.5204 47.9893 42.5204 42.944C42.5204 41.4187 42.6377 39.952 42.8724 38.544C43.107 37.0187 43.5764 35.2587 44.2804 33.264C44.9844 31.2693 45.9817 28.6293 47.2724 25.344L57.4804 0H74.9044Z" fill="url(#paint0_linear_540_5855)"/>
<defs>
<linearGradient id="paint0_linear_540_5855" x1="39.0004" y1="22.592" x2="30.723" y2="59.092" gradientUnits="userSpaceOnUse">
<stop stop-color="#78180F"/>
<stop offset="1" stop-color="#78180F" stop-opacity="0"/>
</linearGradient>
</defs>
</svg>
