<svg width="77" height="61" viewBox="0 0 77 61" fill="none" xmlns="http://www.w3.org/2000/svg">
<path d="M25.6244 28.3922C28.5577 29.6829 30.8457 31.6189 32.4884 34.2002C34.131 36.7815 34.9524 39.8322 34.9524 43.3522C34.9524 48.3975 33.3684 52.5042 30.2004 55.6722C27.0324 58.7229 22.9844 60.2482 18.0564 60.2482C13.1284 60.2482 9.02171 58.6642 5.73638 55.4962C2.56838 52.3282 0.984375 48.2802 0.984375 43.3522C0.984375 41.0055 1.27771 38.6589 1.86438 36.3122C2.45104 33.9655 3.74171 30.4455 5.73638 25.7522L15.9444 0.408203H33.3684L25.6244 28.3922ZM67.1604 28.3922C70.0937 29.6829 72.3817 31.6189 74.0244 34.2002C75.667 36.7815 76.4884 39.8322 76.4884 43.3522C76.4884 48.3975 74.9044 52.5042 71.7364 55.6722C68.5684 58.7229 64.5204 60.2482 59.5924 60.2482C54.6644 60.2482 50.5577 58.6642 47.2724 55.4962C44.1044 52.3282 42.5204 48.2802 42.5204 43.3522C42.5204 41.0055 42.8137 38.6589 43.4004 36.3122C43.987 33.9655 45.2777 30.4455 47.2724 25.7522L57.4804 0.408203H74.9044L67.1604 28.3922Z" fill="url(#paint0_linear_540_5858)"/>
<defs>
<linearGradient id="paint0_linear_540_5858" x1="39.0004" y1="23.0002" x2="30.723" y2="59.5002" gradientUnits="userSpaceOnUse">
<stop stop-color="#0F425C"/>
<stop offset="1" stop-color="#0F425C" stop-opacity="0"/>
</linearGradient>
</defs>
</svg>
