<svg width="76" height="61" viewBox="0 0 76 61" fill="none" xmlns="http://www.w3.org/2000/svg">
<path d="M25.0771 28.234C28.0105 29.5247 30.2985 31.4607 31.9411 34.042C33.5838 36.6233 34.4051 39.674 34.4051 43.194C34.4051 48.2393 32.8211 52.346 29.6531 55.514C26.4851 58.5647 22.4371 60.09 17.5091 60.09C12.5811 60.09 8.47447 58.506 5.18913 55.338C2.02113 52.17 0.437134 48.122 0.437134 43.194C0.437134 40.8473 0.730467 38.5007 1.31713 36.154C1.9038 33.8073 3.19447 30.2873 5.18913 25.594L15.3971 0.25H32.8211L25.0771 28.234ZM66.6131 28.234C69.5465 29.5247 71.8345 31.4607 73.4771 34.042C75.1198 36.6233 75.9411 39.674 75.9411 43.194C75.9411 48.2393 74.3571 52.346 71.1891 55.514C68.0211 58.5647 63.9731 60.09 59.0451 60.09C54.1171 60.09 50.0105 58.506 46.7251 55.338C43.5571 52.17 41.9731 48.122 41.9731 43.194C41.9731 40.8473 42.2665 38.5007 42.8531 36.154C43.4398 33.8073 44.7305 30.2873 46.7251 25.594L56.9331 0.25H74.3571L66.6131 28.234Z" fill="url(#paint0_linear_504_20764)"/>
<defs>
<linearGradient id="paint0_linear_504_20764" x1="38.4531" y1="22.842" x2="30.1758" y2="59.342" gradientUnits="userSpaceOnUse">
<stop stop-color="#5B8FA8"/>
<stop offset="1" stop-color="#5B8FA8" stop-opacity="0"/>
</linearGradient>
</defs>
</svg>
