<svg width="77" height="61" viewBox="0 0 77 61" fill="none" xmlns="http://www.w3.org/2000/svg">
<path d="M33.3684 0.40625L21.7524 42.6463L17.8804 26.8063C22.9257 26.8063 27.0324 28.2729 30.2004 31.2063C33.3684 34.1396 34.9524 38.1876 34.9524 43.3503C34.9524 48.3956 33.3097 52.5023 30.0244 55.6702C26.8564 58.7209 22.867 60.2463 18.0564 60.2463C13.1284 60.2463 9.02171 58.7209 5.73638 55.6702C2.56838 52.5023 0.984375 48.3956 0.984375 43.3503C0.984375 41.8249 1.10171 40.3583 1.33638 38.9503C1.57104 37.4249 2.04038 35.6649 2.74438 33.6702C3.44837 31.6756 4.44571 29.0356 5.73638 25.7502L15.9444 0.40625H33.3684ZM74.9044 0.40625L63.2884 42.6463L59.4164 26.8063C64.4617 26.8063 68.5684 28.2729 71.7364 31.2063C74.9044 34.1396 76.4884 38.1876 76.4884 43.3503C76.4884 48.3956 74.8457 52.5023 71.5604 55.6702C68.3924 58.7209 64.403 60.2463 59.5924 60.2463C54.6644 60.2463 50.5577 58.7209 47.2724 55.6702C44.1044 52.5023 42.5204 48.3956 42.5204 43.3503C42.5204 41.8249 42.6377 40.3583 42.8724 38.9503C43.107 37.4249 43.5764 35.6649 44.2804 33.6702C44.9844 31.6756 45.9817 29.0356 47.2724 25.7502L57.4804 0.40625H74.9044Z" fill="url(#paint0_linear_540_5844)"/>
<defs>
<linearGradient id="paint0_linear_540_5844" x1="39.0004" y1="22.9983" x2="30.723" y2="59.4983" gradientUnits="userSpaceOnUse">
<stop stop-color="#9AA244"/>
<stop offset="1" stop-color="#9AA244" stop-opacity="0"/>
</linearGradient>
</defs>
</svg>
