<svg width="27" height="26" viewBox="0 0 27 26" fill="none" xmlns="http://www.w3.org/2000/svg">
<path d="M22.1466 8.19719C21.5466 8.47719 20.8766 8.66719 20.1366 8.76719C20.4966 8.56719 20.8116 8.29219 21.0816 7.94219C21.3516 7.59219 21.5566 7.21719 21.6966 6.81719C20.8966 7.25719 20.1466 7.54719 19.4466 7.68719C19.1266 7.34719 18.7466 7.07719 18.3066 6.87719C17.8666 6.67719 17.3966 6.57719 16.8966 6.57719C16.2566 6.57719 15.6666 6.73219 15.1266 7.04219C14.5866 7.35219 14.1566 7.77719 13.8366 8.31719C13.5166 8.85719 13.3566 9.44719 13.3566 10.0872C13.3566 10.3472 13.3866 10.6172 13.4466 10.8972C12.0066 10.8172 10.6466 10.4472 9.36656 9.78719C8.12656 9.14719 7.06656 8.28719 6.18656 7.20719C5.86656 7.74719 5.70656 8.33219 5.70656 8.96219C5.70656 9.59219 5.84156 10.1622 6.11156 10.6722C6.38156 11.1822 6.75656 11.5972 7.23656 11.9172C6.65656 11.8972 6.09656 11.7472 5.55656 11.4672V11.4972C5.55656 12.3372 5.83656 13.0822 6.39656 13.7322C6.95656 14.3822 7.63656 14.7872 8.43656 14.9472C8.09656 15.0472 7.81656 15.0972 7.59656 15.0972C7.43656 15.0972 7.21656 15.0772 6.93656 15.0372C7.15656 15.7372 7.56656 16.3122 8.16656 16.7622C8.76656 17.2122 9.44656 17.4472 10.2066 17.4672C9.58656 17.9472 8.90656 18.3172 8.16656 18.5772C7.42656 18.8372 6.65656 18.9672 5.85656 18.9672C5.47656 18.9672 5.19656 18.9572 5.01656 18.9372C6.71656 19.9772 8.51656 20.4972 10.4166 20.4972C12.4566 20.4972 14.2766 19.9772 15.8766 18.9372C17.3166 17.9972 18.4366 16.7272 19.2366 15.1272C20.0166 13.6472 20.4066 12.0972 20.4066 10.4772V10.0272C21.1066 9.54719 21.6866 8.93719 22.1466 8.19719ZM26.4366 4.95719V21.0372C26.4366 21.9172 26.2216 22.7272 25.7916 23.4672C25.3616 24.2072 24.7766 24.7922 24.0366 25.2222C23.2966 25.6522 22.4866 25.8672 21.6066 25.8672H5.55656C4.67656 25.8672 3.86656 25.6522 3.12656 25.2222C2.38656 24.7922 1.80156 24.2072 1.37156 23.4672C0.941563 22.7272 0.726562 21.9172 0.726562 21.0372V4.95719C0.726562 4.07719 0.941563 3.26719 1.37156 2.52719C1.80156 1.78719 2.38656 1.20219 3.12656 0.772188C3.86656 0.342188 4.67656 0.127188 5.55656 0.127188H21.6066C22.4866 0.127188 23.2966 0.342188 24.0366 0.772188C24.7766 1.20219 25.3616 1.78719 25.7916 2.52719C26.2216 3.26719 26.4366 4.07719 26.4366 4.95719Z" fill="#2D2D2D"/>
</svg>
