<svg width="26" height="26" viewBox="0 0 26 26" fill="none" xmlns="http://www.w3.org/2000/svg">
<path d="M15.556 19.8072V17.1972C15.556 16.6372 15.396 16.3572 15.076 16.3572C14.856 16.3572 14.666 16.4472 14.506 16.6272V20.3772C14.666 20.5372 14.856 20.6172 15.076 20.6172C15.396 20.6172 15.556 20.3472 15.556 19.8072ZM18.646 17.7672H19.726V17.1972C19.726 16.6372 19.546 16.3572 19.186 16.3572C18.826 16.3572 18.646 16.6372 18.646 17.1972V17.7672ZM9.07602 13.3272V14.4972H7.72602V21.5772H6.49602V14.4972H5.17602V13.3272H9.07602ZM12.436 15.4272V21.5772H11.326V20.8872C10.866 21.4072 10.436 21.6672 10.036 21.6672C9.87602 21.6672 9.73102 21.6222 9.60102 21.5322C9.47101 21.4422 9.38602 21.3272 9.34601 21.1872C9.26602 20.9472 9.22602 20.6472 9.22602 20.2872V15.4272H10.336V19.9572C10.336 20.2172 10.346 20.3572 10.366 20.3772C10.366 20.5372 10.446 20.6172 10.606 20.6172C10.826 20.6172 11.066 20.4472 11.326 20.1072V15.4272H12.436ZM16.666 17.2872V19.7172C16.666 20.3172 16.626 20.7272 16.546 20.9472C16.406 21.4272 16.106 21.6672 15.646 21.6672C15.286 21.6672 14.906 21.4372 14.506 20.9772V21.5772H13.396V13.3272H14.506V15.9972C14.886 15.5572 15.266 15.3372 15.646 15.3372C16.106 15.3372 16.406 15.5772 16.546 16.0572C16.626 16.2772 16.666 16.6872 16.666 17.2872ZM20.866 19.4472V19.5972L20.836 20.3172C20.816 20.5372 20.726 20.7572 20.566 20.9772C20.266 21.4372 19.826 21.6672 19.246 21.6672C18.666 21.6672 18.206 21.4472 17.866 21.0072C17.646 20.6872 17.536 20.2072 17.536 19.5672V17.4072C17.536 16.7472 17.646 16.2672 17.866 15.9672C18.166 15.5472 18.606 15.3372 19.186 15.3372C19.766 15.3372 20.206 15.5472 20.506 15.9672C20.746 16.2872 20.866 16.7672 20.866 17.4072V18.6972H18.646V19.7772C18.646 20.3372 18.826 20.6172 19.186 20.6172C19.466 20.6172 19.636 20.4772 19.696 20.1972V20.1072C19.716 19.8672 19.726 19.6472 19.726 19.4472H20.866ZM13.306 5.64719V8.25719C13.306 8.83719 13.126 9.12719 12.766 9.12719C12.406 9.12719 12.226 8.83719 12.226 8.25719V5.64719C12.226 5.06719 12.406 4.77719 12.766 4.77719C13.126 4.77719 13.306 5.06719 13.306 5.64719ZM22.216 17.5872C22.216 16.6072 22.206 15.8772 22.186 15.3972C22.146 14.5772 22.056 13.8572 21.916 13.2372C21.796 12.7372 21.551 12.3222 21.181 11.9922C20.811 11.6622 20.386 11.4772 19.906 11.4372C18.906 11.3172 17.766 11.2372 16.486 11.1972C15.726 11.1772 14.576 11.1672 13.036 11.1672C11.496 11.1672 10.346 11.1772 9.58602 11.1972C8.30602 11.2372 7.15602 11.3172 6.13602 11.4372C5.65602 11.4772 5.23102 11.6622 4.86102 11.9922C4.49102 12.3222 4.25602 12.7372 4.15602 13.2372C4.01602 13.8572 3.91602 14.5772 3.85602 15.3972C3.83602 15.8772 3.82602 16.6022 3.82602 17.5722C3.82602 18.5422 3.83602 19.2672 3.85602 19.7472C3.91602 20.5872 4.01602 21.3172 4.15602 21.9372C4.25602 22.4172 4.49102 22.8222 4.86102 23.1522C5.23102 23.4822 5.65602 23.6772 6.13602 23.7372C7.15602 23.8572 8.30602 23.9372 9.58602 23.9772C10.346 23.9972 11.496 24.0072 13.036 24.0072C14.576 24.0072 15.726 23.9972 16.486 23.9772C17.746 23.9372 18.886 23.8572 19.906 23.7372C20.386 23.6772 20.811 23.4822 21.181 23.1522C21.551 22.8222 21.786 22.4172 21.886 21.9372C22.026 21.3172 22.126 20.5872 22.186 19.7472C22.206 19.2672 22.216 18.5472 22.216 17.5872ZM9.58602 6.69719L11.086 1.71719H9.85602L8.98602 4.98719L8.11602 1.71719H6.79602C6.87602 1.99719 7.01602 2.42719 7.21602 3.00719L7.57602 4.02719C7.95602 5.12719 8.21602 6.01719 8.35602 6.69719V10.0572H9.58602V6.69719ZM14.416 8.04719V5.85719C14.416 5.17719 14.306 4.69719 14.086 4.41719C13.766 3.99719 13.326 3.78719 12.766 3.78719C12.206 3.78719 11.776 3.99719 11.476 4.41719C11.236 4.71719 11.116 5.19719 11.116 5.85719V8.04719C11.116 8.70719 11.236 9.18719 11.476 9.48719C11.796 9.92719 12.226 10.1472 12.766 10.1472C13.306 10.1472 13.746 9.92719 14.086 9.48719C14.306 9.20719 14.416 8.72719 14.416 8.04719ZM17.446 10.0572H18.586V3.84719H17.446V8.58719C17.206 8.94719 16.976 9.12719 16.756 9.12719C16.616 9.12719 16.526 9.03719 16.486 8.85719V3.84719H15.346V8.76719C15.346 9.16719 15.376 9.47719 15.436 9.69719C15.556 9.99719 15.806 10.1472 16.186 10.1472C16.566 10.1472 16.986 9.88719 17.446 9.36719V10.0572ZM25.876 4.95719V21.0372C25.876 21.9172 25.661 22.7272 25.231 23.4672C24.801 24.2072 24.216 24.7922 23.476 25.2222C22.736 25.6522 21.926 25.8672 21.046 25.8672H4.99602C4.11602 25.8672 3.30602 25.6522 2.56602 25.2222C1.82602 24.7922 1.24102 24.2072 0.811016 23.4672C0.381016 22.7272 0.166016 21.9172 0.166016 21.0372V4.95719C0.166016 4.07719 0.381016 3.26719 0.811016 2.52719C1.24102 1.78719 1.82602 1.20219 2.56602 0.772188C3.30602 0.342188 4.11602 0.127188 4.99602 0.127188H21.046C21.926 0.127188 22.736 0.342188 23.476 0.772188C24.216 1.20219 24.801 1.78719 25.231 2.52719C25.661 3.26719 25.876 4.07719 25.876 4.95719Z" fill="#2D2D2D"/>
</svg>
